<svg width="69" height="70" viewBox="0 0 69 70" fill="none" xmlns="http://www.w3.org/2000/svg">
<mask id="path-1-inside-1_1_3539" fill="white">
<path d="M0 0.00634766H69V70.0063H0V0.00634766Z"/>
</mask>
<path d="M68 0.00634766V70.0063H70V0.00634766H68ZM1 70.0063V0.00634766H-1V70.0063H1Z" fill="white" fill-opacity="0.15" mask="url(#path-1-inside-1_1_3539)"/>
<path d="M47 35.8462C47 42.7498 41.4035 48.3462 34.5 48.3462C27.5963 48.3462 22 42.7498 22 35.8462C22 28.9425 27.5963 23.3462 34.5 23.3462C41.4035 23.3462 47 28.9425 47 35.8462Z" stroke="white" stroke-miterlimit="10" stroke-linecap="round" stroke-linejoin="round"/>
<path d="M39.5001 34.1797C39.5001 36.9411 37.2616 39.1797 34.5001 39.1797C31.7384 39.1797 29.5 36.9411 29.5 34.1797C29.5 31.4183 31.7384 29.1797 34.5001 29.1797C37.2616 29.1797 39.5001 31.4183 39.5001 34.1797Z" stroke="white" stroke-miterlimit="10" stroke-linecap="round" stroke-linejoin="round"/>
<path d="M27.043 45.8788C27.4429 42.1131 30.6292 39.1797 34.5008 39.1797C38.3725 39.1797 41.5588 42.1133 41.9585 45.8789" stroke="white" stroke-miterlimit="10" stroke-linecap="round" stroke-linejoin="round"/>
</svg>
