<svg width="66" height="70" viewBox="0 0 66 70" fill="none" xmlns="http://www.w3.org/2000/svg">
<mask id="path-1-inside-1_1_3545" fill="white">
<path d="M0 0.00634766H66V70.0063H0V0.00634766Z"/>
</mask>
<path d="M65 0.00634766V70.0063H67V0.00634766H65Z" fill="white" fill-opacity="0.15" mask="url(#path-1-inside-1_1_3545)"/>
<path d="M21.8001 23.4376C20.8467 23.7788 20.1933 24.5949 20.06 25.6184C19.98 26.2539 19.98 30.9766 20.06 31.6121C20.18 32.5085 20.68 33.2309 21.4868 33.6524L21.8935 33.8664H25.327H28.7606L29.1606 33.6524C29.674 33.3848 30.0807 32.9767 30.3473 32.4616L30.5607 32.0603V28.6152V25.1702L30.3473 24.7688C30.0807 24.2537 29.674 23.8457 29.1606 23.5781L28.7606 23.364L25.427 23.3506C22.5468 23.3373 22.0535 23.3506 21.8001 23.4376ZM28.6606 24.4611C29.0672 24.6752 29.2473 24.8491 29.4339 25.217L29.594 25.5314V28.6353V31.7325L29.3739 32.0937C29.0739 32.6021 28.6206 32.8697 27.9738 32.9299C27.7072 32.9567 26.3271 32.9634 24.8937 32.95L22.2935 32.9299L21.9601 32.7493C21.5668 32.5419 21.4001 32.368 21.1867 31.9599L21.0267 31.6589V28.6152V25.5715L21.1867 25.2705C21.4668 24.7287 21.8601 24.4276 22.4268 24.3273C22.5735 24.3005 23.9669 24.2872 25.527 24.2872L28.3605 24.3005L28.6606 24.4611Z" fill="white"/>
<path d="M36.201 23.4376C35.2477 23.7788 34.5943 24.5949 34.461 25.6184C34.4277 25.8859 34.401 27.2372 34.401 28.6152C34.401 29.9933 34.4277 31.3445 34.461 31.6121C34.581 32.5085 35.081 33.2309 35.8877 33.6524L36.2943 33.8664H39.7279H43.1616L43.5616 33.6524C44.0749 33.3848 44.4816 32.9767 44.7482 32.4616L44.9616 32.0603V28.6152V25.1702L44.7482 24.7688C44.4816 24.2537 44.0749 23.8457 43.5616 23.5781L43.1616 23.364L39.8279 23.3506C36.9478 23.3373 36.4543 23.3506 36.201 23.4376ZM43.0616 24.4611C43.4749 24.6752 43.6482 24.8491 43.8349 25.2237L44.0016 25.5448L43.9949 28.6219C43.9949 31.3111 43.9816 31.7325 43.8882 31.9131C43.6882 32.3078 43.4816 32.5285 43.1216 32.7292L42.7614 32.9299H39.7279H36.6945L36.361 32.7493C35.9677 32.5419 35.801 32.368 35.5877 31.9599L35.4277 31.6589V28.6152V25.5715L35.5877 25.2705C35.8677 24.7287 36.261 24.4276 36.8278 24.3273C36.9745 24.3005 38.3678 24.2872 39.9279 24.2872L42.7614 24.3005L43.0616 24.4611Z" fill="white"/>
<path d="M21.8001 37.8868C20.8467 38.228 20.1933 39.0441 20.06 40.0675C19.98 40.7031 19.98 45.4257 20.06 46.0613C20.18 46.9577 20.68 47.6802 21.4868 48.1016L21.8935 48.3156H25.327H28.7606L29.1606 48.1016C29.674 47.8339 30.0807 47.4259 30.3473 46.9109L30.5607 46.5095V43.0645V39.6193L30.3473 39.218C30.0807 38.703 29.674 38.2949 29.1606 38.0273L28.7606 37.8132L25.427 37.7999C22.5468 37.7864 22.0535 37.7999 21.8001 37.8868ZM28.6606 38.9103C29.0672 39.1243 29.2473 39.2982 29.4339 39.6662L29.594 39.9806V43.0845V46.1817L29.3739 46.543C29.0739 47.0513 28.6206 47.3189 27.9738 47.3791C27.7072 47.4059 26.3271 47.4125 24.8937 47.3992L22.2935 47.3791L21.9601 47.1985C21.5668 46.9912 21.4001 46.8173 21.1867 46.4092L21.0267 46.1081V43.0645V40.0207L21.1867 39.7198C21.4668 39.1778 21.8601 38.8768 22.4268 38.7766C22.5735 38.7498 23.9669 38.7364 25.527 38.7364L28.3605 38.7498L28.6606 38.9103Z" fill="white"/>
<path d="M38.3946 37.9202C36.5078 38.4152 35.081 39.8534 34.5943 41.7531C34.4076 42.4823 34.4076 43.6463 34.5943 44.3755C35.0476 46.1414 36.2944 47.486 38.0479 48.1014C38.5546 48.2753 38.7412 48.3088 39.5279 48.3356C40.3014 48.3623 40.5214 48.3423 40.9947 48.2219C42.9415 47.7269 44.3683 46.302 44.8683 44.3487C45.0483 43.6463 45.0416 42.4689 44.8616 41.7531C44.375 39.8401 42.9415 38.4017 41.0347 37.9134C40.3214 37.7328 39.1012 37.7328 38.3946 37.9202ZM41.1547 39.0105C41.8147 39.2513 42.2882 39.5657 42.8282 40.1277C43.6215 40.9638 43.9948 41.907 43.9948 43.0777C43.9948 44.3019 43.6215 45.1916 42.7348 46.0745C41.8347 46.9709 40.948 47.3455 39.748 47.3523C39.0279 47.3523 38.4879 47.2252 37.7946 46.8974C37.4078 46.7101 37.1678 46.5294 36.7211 46.0813C35.8278 45.1849 35.4611 44.3019 35.4611 43.0644C35.4611 41.887 35.8278 40.9705 36.6278 40.1277C37.1678 39.5657 37.6412 39.2513 38.3079 39.0038C39.1546 38.6962 40.308 38.6962 41.1547 39.0105Z" fill="white"/>
</svg>
