<svg width="26" height="26" viewBox="0 0 26 26" fill="none" xmlns="http://www.w3.org/2000/svg">
<path d="M2.25006 0.431262C1.29667 0.772423 0.643297 1.58853 0.509955 2.61202C0.42995 3.24751 0.42995 7.97024 0.509955 8.60574C0.629962 9.50213 1.13 10.2246 1.93672 10.646L2.34341 10.8601H5.77696H9.21052L9.61055 10.646C10.1239 10.3784 10.5306 9.9704 10.7973 9.4553L11.0106 9.05394V5.60888V2.16383L10.7973 1.76245C10.5306 1.24737 10.1239 0.839316 9.61055 0.57174L9.21052 0.357678L5.87696 0.344299C2.99678 0.33092 2.50342 0.344299 2.25006 0.431262ZM9.11051 1.45474C9.5172 1.66881 9.69722 1.84273 9.88389 2.21065L10.0439 2.52505V5.62895V8.72616L9.8239 9.08738C9.52387 9.59578 9.07051 9.86335 8.4238 9.92356C8.15712 9.95033 6.77702 9.95701 5.3436 9.94363L2.74344 9.92356L2.41008 9.74295C2.01672 9.53557 1.85005 9.36164 1.63669 8.95359L1.47668 8.65258V5.60888V2.56519L1.63669 2.26416C1.91672 1.72232 2.31008 1.4213 2.87677 1.32096C3.02345 1.2942 4.41687 1.28082 5.97698 1.28082L8.81049 1.2942L9.11051 1.45474Z" fill="black"/>
<path d="M16.651 0.431262C15.6976 0.772423 15.0443 1.58853 14.911 2.61202C14.8776 2.87959 14.851 4.23085 14.851 5.60888C14.851 6.98691 14.8776 8.33817 14.911 8.60574C15.031 9.50213 15.531 10.2246 16.3376 10.646L16.7443 10.8601H20.1779H23.6115L24.0115 10.646C24.5248 10.3784 24.9315 9.9704 25.1982 9.4553L25.4115 9.05394V5.60888V2.16383L25.1982 1.76245C24.9315 1.24737 24.5248 0.839316 24.0115 0.57174L23.6115 0.357678L20.2779 0.344299C17.3978 0.33092 16.9043 0.344299 16.651 0.431262ZM23.5115 1.45474C23.9248 1.66881 24.0982 1.84273 24.2848 2.21734L24.4515 2.53844L24.4448 5.61558C24.4448 8.30471 24.4315 8.72616 24.3382 8.90677C24.1382 9.30145 23.9315 9.5222 23.5715 9.72288L23.2114 9.92356H20.1779H17.1444L16.811 9.74295C16.4176 9.53557 16.251 9.36164 16.0376 8.95359L15.8776 8.65258V5.60888V2.56519L16.0376 2.26416C16.3176 1.72232 16.711 1.4213 17.2778 1.32096C17.4244 1.2942 18.8178 1.28082 20.3779 1.28082L23.2114 1.2942L23.5115 1.45474Z" fill="black"/>
<path d="M2.25006 14.8805C1.29667 15.2216 0.643297 16.0377 0.509955 17.0612C0.42995 17.6967 0.42995 22.4194 0.509955 23.0549C0.629962 23.9513 1.13 24.6738 1.93672 25.0952L2.34341 25.3092H5.77696H9.21052L9.61055 25.0952C10.1239 24.8276 10.5306 24.4195 10.7973 23.9045L11.0106 23.5031V20.0581V16.613L10.7973 16.2116C10.5306 15.6966 10.1239 15.2886 9.61055 15.0209L9.21052 14.8069L5.87696 14.7936C2.99678 14.7801 2.50342 14.7936 2.25006 14.8805ZM9.11051 15.904C9.5172 16.118 9.69722 16.2919 9.88389 16.6598L10.0439 16.9742V20.0781V23.1754L9.8239 23.5366C9.52387 24.0449 9.07051 24.3126 8.4238 24.3727C8.15712 24.3995 6.77702 24.4062 5.3436 24.3929L2.74344 24.3727L2.41008 24.1922C2.01672 23.9848 1.85005 23.8109 1.63669 23.4029L1.47668 23.1017V20.0581V17.0144L1.63669 16.7134C1.91672 16.1715 2.31008 15.8705 2.87677 15.7702C3.02345 15.7434 4.41687 15.7301 5.97698 15.7301L8.81049 15.7434L9.11051 15.904Z" fill="black"/>
<path d="M18.8446 14.9138C16.9578 15.4088 15.531 16.847 15.0443 18.7468C14.8576 19.4759 14.8576 20.64 15.0443 21.3691C15.4976 23.1351 16.7444 24.4797 18.4979 25.0951C19.0046 25.269 19.1912 25.3025 19.9779 25.3293C20.7514 25.3559 20.9714 25.3359 21.4447 25.2155C23.3915 24.7205 24.8183 23.2956 25.3183 21.3423C25.4983 20.64 25.4917 19.4626 25.3117 18.7468C24.825 16.8337 23.3915 15.3954 21.4847 14.907C20.7714 14.7265 19.5512 14.7265 18.8446 14.9138ZM21.6047 16.0041C22.2647 16.245 22.7382 16.5594 23.2782 17.1213C24.0715 17.9575 24.4449 18.9007 24.4449 20.0713C24.4449 21.2955 24.0715 22.1852 23.1849 23.0682C22.2847 23.9645 21.398 24.3391 20.198 24.3459C19.4779 24.3459 18.9379 24.2188 18.2446 23.8911C17.8578 23.7037 17.6178 23.523 17.1711 23.075C16.2778 22.1786 15.9111 21.2955 15.9111 20.058C15.9111 18.8807 16.2778 17.9641 17.0778 17.1213C17.6178 16.5594 18.0912 16.245 18.7579 15.9975C19.6046 15.6898 20.758 15.6898 21.6047 16.0041Z" fill="black"/>
</svg>
