<svg width="50" height="51" viewBox="0 0 50 51" fill="none" xmlns="http://www.w3.org/2000/svg">
<rect y="0.52002" width="50" height="50" rx="25" fill="#DDEED6"/>
<path d="M24.0821 15.1668C23.7957 14.2841 23.2836 13.6495 22.6016 13.3311C21.9805 13.0417 21.2484 13.0224 20.4849 13.2752C18.9609 13.7801 18.238 15.055 18.5977 16.6025C18.6248 16.719 18.6573 16.8368 18.6947 16.9514C18.9017 17.5888 19.2713 18.2372 19.7356 18.7766C19.8546 18.9153 19.9779 19.0447 20.1044 19.164C20.264 19.3152 20.4288 19.4502 20.5971 19.568C20.6476 19.6038 20.6993 19.6383 20.7506 19.6705C20.8139 19.7103 20.8867 19.7308 20.9599 19.7308C20.9942 19.7308 21.0284 19.7264 21.0618 19.7175C21.0753 19.7139 21.0885 19.7103 21.102 19.7071C21.172 19.6882 21.2428 19.6705 21.3132 19.6532C21.3451 19.6452 21.3765 19.6375 21.408 19.6303C21.4238 19.6263 21.4402 19.6227 21.4561 19.6191C21.4879 19.6114 21.5194 19.6038 21.5512 19.597C21.5643 19.5937 21.5778 19.5909 21.591 19.5881C21.6447 19.5761 21.6984 19.5644 21.7525 19.5531C21.7887 19.5455 21.8253 19.5379 21.8619 19.5306C21.8985 19.523 21.9347 19.5157 21.9713 19.5089C22.0274 19.4981 22.084 19.4876 22.1404 19.4775C22.2061 19.4655 22.2722 19.4538 22.3386 19.4434C22.3999 19.4334 22.4611 19.4237 22.5228 19.4145C22.5419 19.4117 22.5606 19.4089 22.5797 19.406C22.5825 19.4052 22.5857 19.4048 22.5889 19.4048C22.6199 19.4 22.6505 19.3956 22.6816 19.3916C22.7532 19.3815 22.8248 19.3722 22.8964 19.3638C22.9426 19.3582 22.9883 19.353 23.0345 19.3477C23.0803 19.3429 23.1264 19.3381 23.1722 19.3333C23.2641 19.324 23.3564 19.316 23.4483 19.3088C23.5737 19.2991 23.687 19.23 23.7543 19.1222C23.876 18.9269 23.9795 18.7075 24.063 18.4711C24.4096 17.4976 24.4291 16.2355 24.0821 15.1668ZM23.1758 18.5258C23.1081 18.5322 23.0405 18.5391 22.9728 18.5463C22.939 18.5499 22.9052 18.5535 22.8714 18.5575C22.8376 18.5611 22.8037 18.5652 22.7703 18.5696C22.7253 18.5752 22.6804 18.5809 22.6354 18.5868C22.606 18.5909 22.5769 18.5949 22.5475 18.5989C22.5447 18.5989 22.5415 18.5993 22.5383 18.6001C22.5201 18.6026 22.5021 18.6049 22.4838 18.6077C22.4806 18.6082 22.4771 18.6086 22.4739 18.6094C22.4377 18.6146 22.4019 18.6198 22.3657 18.6255C22.3294 18.6307 22.2936 18.6363 22.2582 18.6423C22.193 18.6524 22.1277 18.6637 22.0624 18.6749C22.0398 18.6789 22.0167 18.6829 21.994 18.6874C21.9892 18.6877 21.9849 18.6885 21.9801 18.6898C21.93 18.699 21.8794 18.7083 21.8293 18.7179C21.8078 18.7219 21.7864 18.7259 21.7648 18.7303C21.6236 18.7581 21.4824 18.7883 21.3423 18.8204C21.3093 18.8281 21.2758 18.8357 21.2428 18.8437C21.1724 18.8602 21.1024 18.8771 21.0324 18.8948C20.7908 18.7231 20.5569 18.5061 20.3364 18.2493C19.9401 17.7886 19.6254 17.2388 19.4507 16.7002C19.4205 16.6073 19.3938 16.5129 19.3723 16.4188C18.9967 14.8022 20.1984 14.2162 20.7327 14.0393C20.9245 13.9754 21.2074 13.9055 21.5217 13.9055C22.1608 13.9055 22.9291 14.1953 23.3262 15.4172C23.6588 16.4425 23.5916 17.7107 23.1758 18.5258Z" fill="#63AB45"/>
<path d="M24.572 35.826C24.4474 35.5583 24.2516 35.3212 23.9914 35.1451C23.3015 34.6785 22.3935 34.789 21.8325 35.4076L20.1506 37.2629L18.4998 39.0842L18.7803 39.3438L18.6427 39.3551L18.3955 39.3559C18.3955 39.3623 18.3955 39.3687 18.396 39.3755V39.3804C18.3964 39.384 18.3968 39.3872 18.3968 39.3908C18.4648 40.1778 18.8376 40.8849 19.4464 41.3808C19.9592 41.7988 20.5812 42.0199 21.2285 42.0199C21.3499 42.0199 21.472 42.0123 21.5942 41.9966L21.6196 41.9934C21.7414 41.9777 21.8488 41.9066 21.9117 41.8001L24.3666 37.6291L24.4972 37.4073C24.7908 36.9093 24.8011 36.3168 24.572 35.826ZM21.3308 41.2136C20.829 41.2381 20.3424 41.0782 19.9461 40.7554C19.5515 40.4334 19.2944 39.9889 19.2112 39.4901L22.4194 35.9506C22.713 35.627 23.1877 35.5692 23.5486 35.8132C23.9342 36.074 24.0503 36.5937 23.8132 36.9965L21.3308 41.2136Z" fill="#63AB45"/>
<path d="M30.7531 31.3762L27.8903 34.7123L27.2075 34.2557C26.7611 33.957 26.1595 34.0845 25.869 34.5386L25.6693 34.8505L21.7728 32.5659C21.9415 32.0599 21.9423 31.5097 21.7716 31C21.5965 30.4766 21.4111 29.9144 21.2173 29.3339C21.8611 27.9758 23.1148 26.9259 24.5568 26.5441C25.986 26.1659 27.5724 26.4508 28.7875 27.2981C28.8997 28.0176 29.0091 28.676 29.1023 29.2057C29.2057 29.7962 29.5121 30.3303 29.9677 30.7142L30.7531 31.3762Z" fill="#63AB45"/>
<path d="M31.1498 31.3438C31.1411 31.2365 31.0902 31.1368 31.0082 31.0677L30.2227 30.4057C29.8396 30.0833 29.581 29.6323 29.4942 29.1355C29.4735 29.0186 29.4524 28.8984 29.4314 28.7742C29.3724 28.4297 29.3116 28.0604 29.2507 27.6793C29.2272 27.533 29.2038 27.3847 29.1807 27.2356C29.1636 27.1271 29.1031 27.0302 29.0136 26.9675C28.7769 26.8023 28.5273 26.6572 28.2683 26.5326C27.3651 26.0973 26.3473 25.9116 25.3526 25.9992C25.2663 26.0068 25.1808 26.0165 25.0948 26.0285C25.0944 26.0282 25.094 26.0285 25.094 26.0285C25.02 26.0382 24.9468 26.0499 24.8732 26.0631C24.7702 26.0816 24.6671 26.1033 24.5652 26.1278C24.5286 26.1367 24.492 26.1459 24.4558 26.1556C23.1913 26.4904 22.0657 27.2955 21.3149 28.3743C21.1418 28.6227 20.989 28.8855 20.8585 29.1605C20.814 29.2549 20.8072 29.3634 20.8402 29.4627C20.9325 29.738 21.0225 30.0094 21.1103 30.2742C21.2079 30.568 21.3025 30.8538 21.3949 31.1287C21.5361 31.5512 21.5365 32.0158 21.3957 32.4379C21.3952 32.439 21.3949 32.4407 21.3944 32.4419C21.3368 32.6216 21.4108 32.8185 21.5731 32.9138L21.9654 33.1437L25.1087 34.9866L25.4696 35.1984C25.5325 35.235 25.6009 35.2526 25.6689 35.2526C25.7998 35.2526 25.9275 35.1876 26.0036 35.0689L26.2033 34.7571C26.2857 34.628 26.413 34.5396 26.5614 34.5082C26.7098 34.4769 26.8614 34.5062 26.9879 34.5911L27.6707 35.0477C27.8375 35.159 28.0603 35.1285 28.1912 34.9757L28.488 34.63L30.7981 31.9379L31.0539 31.6396C31.1236 31.558 31.1582 31.4515 31.1498 31.3438ZM27.4272 33.9206C27.122 33.7164 26.7568 33.6457 26.3987 33.7217C26.0441 33.7964 25.7398 34.0054 25.5412 34.3109L24.3412 33.6075L23.6516 33.2028L22.2364 32.3731C22.3394 31.8764 22.31 31.3539 22.1484 30.8715C22.0565 30.597 21.9622 30.3116 21.8648 30.0186C21.7936 29.8043 21.7211 29.5857 21.6471 29.3642C22.2619 28.1757 23.3763 27.2726 24.6575 26.9329C24.6758 26.9281 24.6937 26.9233 24.712 26.9189C24.9818 26.8509 25.2575 26.8087 25.5345 26.7906C26.5411 26.7259 27.5681 26.9856 28.4219 27.5354C28.4868 27.9482 28.5525 28.3518 28.6165 28.7296C28.6165 28.7316 28.6169 28.7332 28.6173 28.7348C28.6487 28.9221 28.6797 29.103 28.7104 29.2758C28.8301 29.9587 29.1862 30.5793 29.7126 31.023L30.1869 31.4226L29.1504 32.6304L28.6276 33.2398L27.8188 34.1823L27.4272 33.9206Z" fill="#63AB45"/>
<path d="M25.3332 34.6326L23.6964 37.1928L24.3648 37.6289L26.0017 35.0687L25.3332 34.6326Z" fill="#63AB45"/>
<path d="M34.9238 39.3351C34.3902 39.3351 33.8515 39.182 33.3756 38.8636L27.6707 35.0472L28.1099 34.3772L33.8149 38.1936C34.7041 38.7885 35.901 38.5782 36.5392 37.7149L39.439 33.794C39.5472 33.6472 39.6045 33.4732 39.6045 33.2907C39.6045 33.0608 39.5146 32.8458 39.3518 32.6858C39.0427 32.3819 38.5609 32.3655 38.2318 32.6472L35.9109 34.6332C35.3607 35.1043 34.5589 35.1075 34.0055 34.6409L30.4985 31.685L31.0081 31.0676L34.5151 34.0234C34.7714 34.2393 35.1418 34.2377 35.3965 34.0198L37.7173 32.0339C38.3607 31.4832 39.3021 31.5158 39.9065 32.1094C40.2248 32.4222 40.4002 32.8417 40.4002 33.2907C40.4002 33.648 40.2885 33.9885 40.0764 34.2751L37.1766 38.196C36.6275 38.9388 35.782 39.3351 34.9238 39.3351Z" fill="#63AB45"/>
<path d="M20.8402 29.4627C20.1323 27.3432 19.3752 25.1812 18.6283 23.6872C18.2746 23.5236 16.9321 22.9746 14.061 21.8507C13.4172 21.5991 12.8279 21.237 12.3099 20.7751L9.00665 17.8309C8.70664 17.5637 8.52759 17.1942 8.50292 16.7907C8.47825 16.3876 8.61035 15.9985 8.87495 15.6958C9.15903 15.3711 9.56806 15.1845 9.99778 15.1845C10.3053 15.1845 10.601 15.2786 10.8532 15.4562L14.7251 18.1818C14.8158 18.2454 14.9172 18.2883 15.0262 18.3084L19.7221 19.1835C19.8578 19.2088 19.9987 19.1995 20.1299 19.1565C20.3687 19.0785 20.6137 19.0058 20.8581 18.9407C21.6841 18.72 22.5348 18.5745 23.3867 18.5078C23.7404 18.4801 24.1004 18.466 24.4562 18.4656C24.6953 18.4652 24.9233 18.3607 25.0816 18.1786L27.4948 15.4012C27.6647 15.2054 27.7681 14.9542 27.7857 14.6942L28.0718 10.3971C28.1231 9.62132 28.7617 9.02002 29.5292 9.02002C29.5355 9.02002 29.542 9.02002 29.5479 9.02002C30.3437 9.03007 30.991 9.69166 30.991 10.4955C30.991 10.5028 30.991 10.5104 30.9907 10.518C30.9907 10.5205 30.9907 10.5221 30.9907 10.5245L30.9043 15.019C30.8884 15.8422 30.6799 16.6625 30.3011 17.3916C29.0967 19.7076 28.5616 20.7876 28.4462 21.0609C28.4836 22.2245 28.7569 24.5236 29.1802 27.2359L28.3941 27.3613C28.1879 26.0405 27.7069 22.8126 27.6508 21.0963C27.6253 20.9548 27.683 20.8189 27.7168 20.7406C27.7491 20.6654 27.796 20.5625 27.8613 20.427C27.9731 20.1935 28.1378 19.8611 28.3507 19.4399C28.7525 18.6453 29.2499 17.6842 29.5965 17.0182C29.9179 16.3992 30.0954 15.7026 30.1085 15.0037L30.1949 10.512C30.1949 10.506 30.1949 10.5 30.1952 10.4939V10.4959C30.1952 10.1302 29.9004 9.82872 29.5379 9.8243C29.1858 9.82028 28.889 10.0952 28.8655 10.4513L28.5795 14.7489C28.5504 15.1845 28.3773 15.6046 28.0928 15.9322L25.6797 18.7096C25.3701 19.0653 24.9249 19.2695 24.4573 19.2699C24.1215 19.2702 23.7821 19.2835 23.4483 19.3097C22.6442 19.3728 21.8412 19.5102 21.0618 19.7184C20.8314 19.7799 20.6002 19.8487 20.375 19.9222C20.1184 20.0058 19.8431 20.0239 19.5781 19.9749L14.8814 19.1002C14.6602 19.0589 14.4549 18.9725 14.2703 18.843L10.3981 16.117C10.2799 16.0339 10.1414 15.99 9.99778 15.99C9.79645 15.99 9.60467 16.0773 9.47178 16.2296C9.34764 16.3715 9.28596 16.5536 9.2975 16.7424C9.30904 16.9314 9.39299 17.1042 9.53345 17.2296L12.8367 20.1738C13.2839 20.5725 13.7928 20.8849 14.3487 21.1023C15.1631 21.4211 16.3393 21.8833 17.3157 22.2756C17.856 22.4926 18.2798 22.6655 18.5746 22.7901C18.7457 22.8624 18.873 22.9178 18.9633 22.9596C19.0815 23.0143 19.2637 23.0987 19.3171 23.282C20.0941 24.8238 20.8708 27.0389 21.595 29.2066L20.8402 29.4627Z" fill="#63AB45"/>
<path d="M19.0723 39.6426L18.7923 39.356H18.3955C18.3955 39.2997 18.4071 39.2426 18.4298 39.1912L21.326 32.6183C21.3519 32.5604 21.3742 32.5017 21.3952 32.4382L22.1496 32.6939C22.1206 32.7815 22.0876 32.8667 22.0521 32.9467L19.1619 39.5063C19.142 39.5569 19.1118 39.6036 19.0723 39.6426Z" fill="#63AB45"/>
<path d="M24.2354 23.3231C24.1188 23.3231 24.005 23.2713 23.9282 23.1764L20.942 19.5108L21.5564 18.9999L23.8602 21.8275L23.9218 18.8596L24.7176 18.8765L24.6333 22.9293C24.6297 23.0972 24.523 23.2456 24.3659 23.3006C24.3229 23.3159 24.2791 23.3231 24.2354 23.3231Z" fill="#63AB45"/>
<path d="M24.6228 22.8308L23.8477 23.0129L24.6551 26.5187L25.4302 26.3366L24.6228 22.8308Z" fill="#63AB45"/>
<path d="M29.3919 28.9101L28.6153 28.7341C28.8584 27.6391 29.9004 27.1291 30.8259 27.1094C31.147 27.1026 31.4613 27.1368 31.7649 27.1693C32.2137 27.2179 32.6379 27.2637 33.035 27.1753C33.9299 26.976 34.7737 26.0399 35.3503 24.6074C35.5902 24.0109 35.7824 23.3661 35.9678 22.7427C36.1835 22.0189 36.4063 21.27 36.711 20.5654C37.1615 19.5248 37.8104 18.5694 38.5871 17.8025C39.3693 17.0304 40.2857 16.4448 41.2378 16.1091L41.5 16.868C39.7851 17.4729 38.2676 18.9758 37.44 20.8874C37.1543 21.5474 36.9387 22.2729 36.7297 22.9739C36.5388 23.6153 36.3414 24.2782 36.0876 24.91C35.6901 25.898 34.7869 27.6082 33.2065 27.9603C32.682 28.0773 32.1728 28.0222 31.6802 27.9688C31.3886 27.937 31.1128 27.9077 30.8426 27.9133C30.2275 27.9266 29.5404 28.2397 29.3919 28.9101Z" fill="#63AB45"/>
<path d="M24.0288 34.0459L23.3986 33.5551C24.7673 31.7616 25.1417 29.6483 24.6495 26.489C24.6161 26.2748 24.757 26.0726 24.9679 26.0316C25.1787 25.991 25.3837 26.1264 25.4306 26.3379C26.0326 29.0273 26.643 30.9369 29.5308 32.8979L29.0867 33.5651C27.2469 32.3159 26.2534 31.0607 25.62 29.6703C25.4998 31.3923 24.9786 32.8018 24.0288 34.0459Z" fill="#63AB45"/>
</svg>
