<svg width="18" height="21" viewBox="0 0 18 21" fill="none" xmlns="http://www.w3.org/2000/svg">
<path d="M14.3281 4.74208C13.2357 2.85686 11.2954 1.70511 9.13767 1.66109C9.04556 1.65919 8.95285 1.65919 8.86071 1.66109C6.70303 1.70511 4.76268 2.85686 3.67024 4.74208C2.5536 6.66907 2.52305 8.98375 3.5885 10.9339L8.05204 19.1038C8.05405 19.1074 8.05605 19.111 8.05812 19.1146C8.25451 19.456 8.60632 19.6597 8.99926 19.6597C9.39216 19.6597 9.74397 19.4559 9.94032 19.1146C9.94239 19.111 9.9444 19.1074 9.9464 19.1038L14.4099 10.9339C15.4753 8.98375 15.4448 6.66907 14.3281 4.74208ZM8.99919 9.81594C7.60345 9.81594 6.46794 8.68043 6.46794 7.28469C6.46794 5.88895 7.60345 4.75344 8.99919 4.75344C10.3949 4.75344 11.5304 5.88895 11.5304 7.28469C11.5304 8.68043 10.395 9.81594 8.99919 9.81594Z" fill="#FBB03B" fill-opacity="0.8"/>
</svg>
