<svg width="18" height="21" viewBox="0 0 18 21" fill="none" xmlns="http://www.w3.org/2000/svg">
<path d="M6.56266 14.8688V18.3473C6.56324 18.4655 6.60099 18.5805 6.67058 18.6761C6.74017 18.7717 6.83807 18.8429 6.9504 18.8797C7.06274 18.9166 7.18382 18.9171 7.29648 18.8813C7.40915 18.8455 7.5077 18.7752 7.57817 18.6803L9.61292 15.9113L6.56266 14.8688ZM17.7639 1.76397C17.6794 1.70379 17.5799 1.66815 17.4764 1.661C17.3729 1.65386 17.2694 1.67548 17.1774 1.72347L0.302415 10.536C0.205322 10.5873 0.125322 10.6658 0.0722333 10.762C0.0191447 10.8581 -0.00472288 10.9676 0.00355981 11.0772C0.0118425 11.1867 0.0519151 11.2914 0.11886 11.3784C0.185804 11.4655 0.276708 11.5311 0.380415 11.5672L5.07166 13.1708L15.0624 4.62823L7.33141 13.9425L15.1937 16.6298C15.2717 16.656 15.3545 16.6648 15.4363 16.6557C15.5181 16.6465 15.5969 16.6196 15.6672 16.5768C15.7375 16.534 15.7976 16.4764 15.8433 16.4079C15.8889 16.3395 15.9191 16.2618 15.9317 16.1805L17.9942 2.30547C18.0094 2.20276 17.996 2.09783 17.9554 2.00227C17.9147 1.90671 17.8485 1.82424 17.7639 1.76397Z" fill="#FBB03B" fill-opacity="0.8"/>
</svg>
