<svg width="50" height="51" viewBox="0 0 50 51" fill="none" xmlns="http://www.w3.org/2000/svg">
<rect y="0.52002" width="50" height="50" rx="25" fill="#DDEED6"/>
<path d="M36.4886 10.9949C33.411 9.72126 29.3308 9.02002 25 9.02002C20.6692 9.02002 16.589 9.72126 13.5114 10.9949C10.2797 12.3321 8.5 14.17 8.5 16.17C8.50145 16.6181 8.59018 17.0616 8.76125 17.4757C9.11558 18.3507 9.82309 19.1721 10.8641 19.9172C10.9204 19.9569 10.9836 19.9856 11.0506 20.0019L16.6934 28.0986L16.6797 28.1124C16.5004 28.2925 16.3888 28.529 16.3637 28.7819C16.3387 29.0348 16.4017 29.2886 16.5422 29.5004L19.1025 33.3401C19.303 33.6418 19.575 33.8891 19.8944 34.0601C20.2138 34.231 20.5705 34.3203 20.9327 34.3198H21.0294L21.15 34.4928V35.4198H19.4649C19.223 35.4195 18.984 35.4726 18.7649 35.5753C18.5459 35.678 18.3521 35.8276 18.1975 36.0138L16.0565 38.583L15.8471 38.4781C15.6629 38.3863 15.4599 38.3384 15.254 38.3383C14.9635 38.3379 14.681 38.4329 14.4498 38.6086C14.2185 38.7842 14.0512 39.031 13.9737 39.3108C13.8961 39.5907 13.9125 39.8883 14.0204 40.158C14.1283 40.4276 14.3217 40.6544 14.5709 40.8036L16.467 41.9414C16.5722 42.0045 16.6954 42.0307 16.8172 42.0157C16.9389 42.0008 17.0521 41.9455 17.1389 41.8589L17.8665 41.1313L19.217 41.9416C19.3222 42.0047 19.4454 42.0309 19.5672 42.0159C19.6889 42.001 19.8021 41.9458 19.8889 41.8591L20.9817 40.7663L21.5028 40.288C21.6569 40.4848 21.8538 40.644 22.0786 40.7534C22.3033 40.8629 22.55 40.9198 22.8 40.9198H27.75C28.3332 40.9192 28.8925 40.6871 29.3049 40.2747C29.7174 39.8623 29.9493 39.3031 29.95 38.7198V34.1349C30.3355 33.9665 30.6644 33.6905 30.8971 33.34L32.6076 30.775L32.6081 30.7743L33.4575 29.5005C33.5963 29.2912 33.6594 29.0409 33.6365 28.7909C33.6136 28.5409 33.5061 28.3061 33.3318 28.1255L38.2218 21.1768L37.3223 20.5437L33.5419 25.9157L34.7706 18.1333C36.2526 18.6214 37.5245 19.2231 38.4959 19.9178C38.5892 19.9846 38.7011 20.0204 38.8159 20.0204C38.9306 20.0204 39.0425 19.9846 39.1359 19.9178C40.1769 19.1727 40.8844 18.3513 41.2383 17.4772C41.4097 17.0626 41.4986 16.6186 41.5 16.17C41.5 14.17 39.7203 12.3321 36.4886 10.9949ZM13.9319 12.0113C16.8794 10.7917 20.8101 10.12 25 10.12C29.1899 10.12 33.1206 10.7917 36.0681 12.0113C38.5184 13.0252 40.0375 14.3376 40.3422 15.6742C39.3397 14.5667 37.7118 13.5996 35.5362 12.8306C32.5973 11.792 28.8555 11.22 25 11.22C21.1445 11.22 17.4027 11.792 14.4639 12.8306C12.2881 13.5996 10.6603 14.5667 9.65782 15.6742C9.96245 14.3376 11.4815 13.0253 13.9319 12.0113ZM14.8304 13.8675C16.172 13.4044 17.55 13.0543 18.95 12.821V16.1054C18.2041 16.2296 17.4788 16.3761 16.7824 16.546C15.9945 16.7382 15.2487 16.9585 14.55 17.2021V13.9694C14.6425 13.9352 14.736 13.9011 14.8304 13.8675ZM20.05 12.6511C21.5087 12.4533 22.9781 12.3442 24.45 12.3243V15.6239C22.9784 15.6434 21.5092 15.7493 20.05 15.941V12.6511ZM25.55 12.3243C27.0219 12.3442 28.4913 12.4533 29.95 12.6511V15.941C28.4908 15.7493 27.0216 15.6434 25.55 15.6239V12.3243ZM31.05 12.821C32.45 13.0544 33.8281 13.4045 35.1696 13.8678C35.2643 13.9012 35.3577 13.9351 35.45 13.9694V17.2021C34.7513 16.9583 34.0054 16.7382 33.2176 16.546C32.5212 16.3762 31.7959 16.2296 31.05 16.1054V12.821ZM9.875 17.27C10.3975 16.2232 11.6389 15.2375 13.45 14.4195V17.6225C12.6657 17.9435 11.9123 18.3354 11.1992 18.7935C10.5802 18.3042 10.1363 17.7937 9.875 17.27ZM17.9354 29.6066L17.4577 28.89L18.3146 28.0332L18.7923 28.7497L17.9354 29.6066ZM28.85 34.8698V35.4198H22.25V34.8698H28.85ZM24.9054 36.5198H26.5554C26.4414 36.8413 26.2306 37.1195 25.9521 37.3165C25.6737 37.5134 25.3411 37.6194 25 37.6198V37.0698C25.0001 36.8825 24.9681 36.6964 24.9054 36.5198ZM19.0426 36.7178C19.0941 36.6558 19.1587 36.6059 19.2317 36.5717C19.3047 36.5374 19.3843 36.5198 19.4649 36.5198H20.5257L18.8064 38.5831L18.597 38.4784C18.3044 38.332 17.9679 38.2991 17.6524 38.3861L19.0426 36.7178ZM16.6648 40.7772L15.1365 39.8602C15.1069 39.8425 15.0818 39.8181 15.063 39.7892C15.0442 39.7603 15.0322 39.7274 15.028 39.6931C15.0239 39.6589 15.0275 39.6241 15.0387 39.5914C15.05 39.5588 15.0685 39.5291 15.0929 39.5048C15.1266 39.4711 15.1701 39.449 15.2171 39.4413C15.2641 39.4336 15.3123 39.4408 15.355 39.4618L15.9233 39.7464L16.3459 40.0283L16.8923 40.3926C16.9129 40.424 16.935 40.4545 16.9581 40.4838L16.6648 40.7772ZM19.4148 40.7772L17.8865 39.8604C17.8569 39.8426 17.8317 39.8184 17.8128 39.7894C17.794 39.7605 17.782 39.7276 17.7778 39.6933C17.7736 39.659 17.7772 39.6242 17.7885 39.5916C17.7998 39.5589 17.8183 39.5293 17.8428 39.5049C17.8765 39.4711 17.92 39.4488 17.9671 39.4412C18.0141 39.4335 18.0624 39.4409 18.1051 39.4622L18.6734 39.7464L19.7367 40.4553L19.4148 40.7772ZM19.7644 39.1517L21.7925 36.7179C21.844 36.6559 21.9086 36.6059 21.9816 36.5717C22.0546 36.5374 22.1343 36.5197 22.2149 36.5198H23.35C23.4958 36.52 23.6356 36.578 23.7387 36.6811C23.8418 36.7842 23.8998 36.924 23.9 37.0698V37.6198H22.8C22.7347 37.6197 22.6695 37.6236 22.6047 37.6313C22.5989 37.6318 22.5931 37.6325 22.5873 37.6332C22.2171 37.6808 21.874 37.8529 21.6145 38.1213C21.355 38.3896 21.1946 38.7382 21.1594 39.1098L20.546 39.6728L19.7644 39.1517ZM27.75 39.8198H22.8C22.6546 39.8195 22.5153 39.7617 22.4122 39.6591C22.3093 39.5565 22.2509 39.4174 22.25 39.272C22.25 39.2665 22.2505 39.261 22.2506 39.2556C22.2537 39.1147 22.3109 38.9803 22.4105 38.8806C22.4929 38.7973 22.6 38.743 22.7158 38.7258C22.7213 38.7253 22.7268 38.7245 22.7322 38.7239C22.7547 38.7211 22.7773 38.7197 22.8 38.7198H27.2C27.3459 38.7198 27.4858 38.6618 27.5889 38.5588C27.6921 38.4556 27.75 38.3157 27.75 38.1698V36.5198H28.85V38.7198C28.8496 39.0115 28.7336 39.291 28.5275 39.4972C28.3212 39.7035 28.0416 39.8195 27.75 39.8198ZM29.9819 32.7298C29.8222 32.9707 29.5737 33.1388 29.2907 33.1973C29.2172 33.2123 29.1423 33.22 29.0672 33.2201H27.75C27.6273 33.2201 27.5081 33.2611 27.4113 33.3366C27.3146 33.4122 27.246 33.5179 27.2163 33.637L27.1831 33.7698H22.8169L22.7836 33.6365C22.7538 33.5175 22.6852 33.4118 22.5885 33.3364C22.4918 33.2608 22.3727 33.2198 22.25 33.2198H20.9327C20.7517 33.22 20.5735 33.1753 20.4139 33.0897C20.2544 33.0042 20.1185 32.8805 20.0183 32.7297L18.558 30.5399L19.3908 29.7067L20.6783 31.8527C20.7272 31.9342 20.7964 32.0016 20.879 32.0484C20.9617 32.0952 21.055 32.1198 21.15 32.1198H23.5471C23.9482 32.4743 24.4648 32.6698 25 32.6698C25.5352 32.6698 26.0518 32.4743 26.4528 32.1198H28.85C28.945 32.1198 29.0383 32.0953 29.121 32.0485C29.2036 32.0017 29.2728 31.9343 29.3216 31.8528L30.6092 29.7067L31.4422 30.5398L29.9819 32.7298ZM23.9 29.9199H26.1V30.4699C26.1 30.7616 25.9841 31.0414 25.7778 31.2477C25.5715 31.454 25.2917 31.5698 25 31.5698C24.7083 31.5698 24.4285 31.454 24.2222 31.2477C24.0159 31.0414 23.9 30.7616 23.9 30.4699V29.9199ZM23.9 28.8199C23.9 28.5282 24.0159 28.2484 24.2222 28.0421C24.4285 27.8358 24.7083 27.7199 25 27.7199C25.2917 27.7199 25.5715 27.8358 25.7778 28.0421C25.9841 28.2484 26.1 28.5282 26.1 28.8199H23.9ZM32.5423 28.89L32.0646 29.6066L31.2077 28.7497L31.6854 28.0333L32.5423 28.89ZM32.2432 27.0862C32.0013 26.9431 31.7136 26.8983 31.4396 26.961C31.1655 27.0237 30.9259 27.189 30.7702 27.4231L30.0424 28.5148C30.0395 28.5192 30.0371 28.5238 30.0343 28.5282C30.0324 28.5312 30.0302 28.5339 30.0284 28.537L28.5386 31.0199H27.1303C27.1767 30.8402 27.2001 30.6554 27.2 30.4699V28.8199C27.2 28.2364 26.9682 27.6768 26.5556 27.2643C26.1431 26.8517 25.5835 26.6199 25 26.6199C24.4165 26.6199 23.8569 26.8517 23.4444 27.2643C23.0318 27.6768 22.8 28.2364 22.8 28.8199V30.4699C22.7999 30.6554 22.8233 30.8402 22.8697 31.0199H21.4614L19.2298 27.423C19.0741 27.1889 18.8345 27.0235 18.5604 26.9608C18.2864 26.8981 17.9987 26.943 17.7567 27.0861L16.449 18.8034L15.3623 18.9753L16.4422 25.8148L12.0714 19.5434C14.9354 17.7914 19.7947 16.72 25 16.72C28.1514 16.72 31.1758 17.113 33.7077 17.8115L32.2432 27.0862ZM38.8008 18.7934C38.0877 18.3354 37.3344 17.9435 36.55 17.6224V14.4194C38.3613 15.2375 39.6025 16.2232 40.125 17.27C39.8638 17.7934 39.42 18.304 38.8008 18.7934Z" fill="#63AB45"/>
</svg>
