<svg width="37" height="25" viewBox="0 0 37 25" fill="none" xmlns="http://www.w3.org/2000/svg">
<g clip-path="url(#clip0_1_2223)">
<g clip-path="url(#clip1_1_2223)">
<g clip-path="url(#clip2_1_2223)">
<path d="M36.144 -0.000488281H0.429688V24.9995H36.144V-0.000488281Z" fill="#253B80"/>
<path fill-rule="evenodd" clip-rule="evenodd" d="M9.74591 9.43799H7.99647C7.87676 9.43799 7.77494 9.52681 7.75627 9.64741L7.04871 14.2269C7.03465 14.3173 7.1032 14.3988 7.19299 14.3988H8.02819C8.14791 14.3988 8.24972 14.31 8.26839 14.1891L8.45923 12.954C8.47764 12.833 8.5797 12.7443 8.69917 12.7443H9.25298C10.4054 12.7443 11.0705 12.175 11.2442 11.0469C11.3225 10.5534 11.2475 10.1656 11.0211 9.89393C10.7725 9.59581 10.3314 9.43799 9.74591 9.43799ZM9.94775 11.1106C9.8521 11.7514 9.37245 11.7514 8.90868 11.7514H8.64468L8.82989 10.5546C8.84088 10.4823 8.90227 10.429 8.9739 10.429H9.0949C9.41082 10.429 9.70886 10.429 9.86287 10.6128C9.95461 10.7226 9.98279 10.8855 9.94775 11.1106ZM14.9754 11.09H14.1376C14.0663 11.09 14.0046 11.1433 13.9936 11.2157L13.9565 11.4549L13.8979 11.3682C13.7166 11.0995 13.3122 11.0097 12.9085 11.0097C11.9827 11.0097 11.192 11.7255 11.038 12.7296C10.958 13.2303 11.0718 13.7092 11.3501 14.0433C11.6054 14.3503 11.9707 14.4783 12.4053 14.4783C13.1512 14.4783 13.5649 13.9886 13.5649 13.9886L13.5275 14.2263C13.5134 14.3172 13.582 14.3987 13.6712 14.3987H14.4259C14.5459 14.3987 14.6471 14.3098 14.6661 14.189L15.1189 11.2619C15.1332 11.1719 15.0649 11.09 14.9754 11.09ZM13.8076 12.7546C13.7268 13.2431 13.3469 13.5711 12.8625 13.5711C12.6192 13.5711 12.4247 13.4915 12.2999 13.3405C12.1761 13.1907 12.129 12.9773 12.1684 12.7397C12.2439 12.2552 12.6302 11.9166 13.1073 11.9166C13.3451 11.9166 13.5385 11.9972 13.6659 12.1495C13.7935 12.3033 13.8442 12.518 13.8076 12.7546ZM18.5953 11.0899H19.4372C19.5551 11.0899 19.6239 11.2249 19.5569 11.3236L16.7569 15.4495C16.7116 15.5164 16.6369 15.5561 16.5571 15.5561H15.7162C15.5978 15.5561 15.5287 15.42 15.5973 15.3211L16.4691 14.0648L15.5419 11.2868C15.5098 11.1902 15.5796 11.0899 15.6802 11.0899H16.5075C16.615 11.0899 16.7098 11.162 16.7408 11.267L17.2329 12.9448L18.3941 11.1988C18.4395 11.1307 18.5151 11.0899 18.5953 11.0899Z" fill="white"/>
<path fill-rule="evenodd" clip-rule="evenodd" d="M27.727 14.2272L28.4449 9.56391C28.456 9.49152 28.5174 9.43823 28.5888 9.43799H29.3971C29.4863 9.43799 29.5549 9.51968 29.5408 9.61007L28.8327 14.1894C28.8143 14.3102 28.7125 14.399 28.5926 14.399H27.8707C27.7814 14.399 27.7129 14.3176 27.727 14.2272ZM22.2284 9.43823H20.4786C20.3592 9.43823 20.2574 9.52705 20.2387 9.64765L19.5311 14.2272C19.5171 14.3176 19.5856 14.399 19.675 14.399H20.5728C20.6562 14.399 20.7276 14.3369 20.7406 14.2523L20.9414 12.9542C20.9599 12.8332 21.0619 12.7445 21.1813 12.7445H21.7349C22.8875 12.7445 23.5525 12.1752 23.7264 11.0471C23.8048 10.5536 23.7294 10.1658 23.5031 9.89418C23.2546 9.59605 22.8139 9.43823 22.2284 9.43823ZM22.4302 11.1108C22.3348 11.7517 21.8551 11.7517 21.3911 11.7517H21.1274L21.3129 10.5548C21.3239 10.4826 21.3847 10.4293 21.4566 10.4293H21.5776C21.8933 10.4293 22.1916 10.4293 22.3455 10.6131C22.4373 10.7228 22.4653 10.8857 22.4302 11.1108ZM27.4574 11.0903H26.6203C26.5483 11.0903 26.4872 11.1436 26.4764 11.216L26.4394 11.4551L26.3805 11.3685C26.1992 11.0997 25.795 11.0099 25.3914 11.0099C24.4655 11.0099 23.6751 11.7257 23.5211 12.7298C23.4413 13.2306 23.5546 13.7095 23.8329 14.0435C24.0887 14.3506 24.4536 14.4785 24.8881 14.4785C25.634 14.4785 26.0477 13.9889 26.0477 13.9889L26.0104 14.2266C25.9963 14.3175 26.0648 14.3989 26.1547 14.3989H26.909C27.0284 14.3989 27.1302 14.3101 27.1489 14.1892L27.602 11.2621C27.6158 11.1721 27.5473 11.0903 27.4574 11.0903ZM26.2897 12.7548C26.2094 13.2434 25.829 13.5714 25.3445 13.5714C25.1017 13.5714 24.9068 13.4917 24.7819 13.3408C24.6581 13.1909 24.6116 12.9775 24.6505 12.7399C24.7264 12.2555 25.1122 11.9169 25.5893 11.9169C25.8272 11.9169 26.0205 11.9975 26.148 12.1497C26.2761 12.3036 26.3268 12.5182 26.2897 12.7548Z" fill="#179BD7"/>
</g>
</g>
</g>
<defs>
<clipPath id="clip0_1_2223">
<rect y="-0.000488281" width="37" height="25" rx="4" fill="white"/>
</clipPath>
<clipPath id="clip1_1_2223">
<rect width="37" height="25" fill="white" transform="translate(0 -0.000488281)"/>
</clipPath>
<clipPath id="clip2_1_2223">
<rect width="37" height="25" fill="white" transform="translate(0 -0.000488281)"/>
</clipPath>
</defs>
</svg>
