<svg width="18" height="21" viewBox="0 0 18 21" fill="none" xmlns="http://www.w3.org/2000/svg">
<path d="M17.5107 14.8699L14.9988 12.3579C14.1016 11.4608 12.5765 11.8197 12.2177 12.9859C11.9485 13.7934 11.0514 14.2419 10.244 14.0625C8.44974 13.6139 6.0275 11.2813 5.57894 9.39739C5.3098 8.58994 5.84808 7.69281 6.65549 7.42371C7.82176 7.06486 8.18061 5.53974 7.28348 4.64262L4.77153 2.13066C4.05382 1.50267 2.97727 1.50267 2.34929 2.13066L0.644747 3.8352C-1.0598 5.62945 0.824172 10.3842 5.04066 14.6007C9.25716 18.8172 14.0119 20.791 15.8062 18.9967L17.5107 17.2921C18.1387 16.5744 18.1387 15.4979 17.5107 14.8699Z" fill="#FBB03B" fill-opacity="0.8"/>
</svg>
