<svg width="50" height="51" viewBox="0 0 50 51" fill="none" xmlns="http://www.w3.org/2000/svg">
<rect y="0.52002" width="50" height="50" rx="25" fill="#DDEED6"/>
<path d="M32.8564 9.02589C32.2815 8.98107 31.7123 9.19752 31.2441 9.63906C30.7758 10.0806 30.4368 10.7205 30.2837 11.4517C30.1126 12.2955 30.2016 13.1943 30.5314 13.952C30.8612 14.7097 31.4051 15.2649 32.0445 15.4966C32.6849 15.7212 33.3667 15.6036 33.9415 15.1692C34.5163 14.7348 34.9375 14.0189 35.1135 13.1774C35.2086 12.7058 35.2234 12.2123 35.1568 11.7323C35.0902 11.2522 34.9438 10.7976 34.728 10.4008C34.5123 10.004 34.2327 9.67501 33.9091 9.43732C33.5855 9.19962 33.226 9.05912 32.8564 9.02589ZM19.6711 9.02589C19.0959 8.9807 18.5263 9.19734 18.058 9.6395C17.5895 10.0817 17.2508 10.7224 17.0985 11.4545C16.9275 12.2972 17.0166 13.1949 17.3466 13.9512C17.6765 14.7076 18.2204 15.2612 18.8593 15.4911C19.4991 15.7175 20.181 15.6012 20.756 15.1677C21.3309 14.7342 21.7524 14.0187 21.9282 13.1774C22.023 12.7058 22.0375 12.2123 21.9706 11.7325C21.9037 11.2526 21.757 10.7981 21.5411 10.4017C21.3252 10.0052 21.0454 9.67648 20.7218 9.43911C20.3981 9.20174 20.0386 9.06156 19.6691 9.02863L19.6711 9.02589ZM32.7837 10.4699C32.9924 10.4847 33.1959 10.5611 33.3791 10.6933C33.5624 10.8256 33.7207 11.0104 33.8425 11.234C33.9643 11.4577 34.0464 11.7145 34.0827 11.9856C34.1191 12.2566 34.1087 12.535 34.0524 12.8C34.005 13.0346 33.9228 13.2544 33.8106 13.4469C33.6983 13.6394 33.5582 13.8007 33.3983 13.9215C33.2384 14.0423 33.062 14.1202 32.8792 14.1506C32.6964 14.1811 32.5108 14.1636 32.3331 14.0991C32.1544 14.037 31.9868 13.9288 31.8401 13.7806C31.6934 13.6325 31.5705 13.4475 31.4786 13.2363C31.3866 13.0251 31.3274 12.792 31.3045 12.5504C31.2815 12.3088 31.2952 12.0637 31.3447 11.8291C31.4278 11.418 31.6167 11.0576 31.8792 10.8097C32.1417 10.5618 32.4614 10.4417 32.7837 10.4699ZM19.5984 10.4699C19.8071 10.4847 20.0106 10.5611 20.1939 10.6933C20.3771 10.8256 20.5355 11.0104 20.6573 11.234C20.7791 11.4577 20.8611 11.7145 20.8975 11.9856C20.9338 12.2566 20.9235 12.535 20.8672 12.8C20.8198 13.0349 20.7375 13.255 20.6251 13.4477C20.5127 13.6404 20.3724 13.8019 20.2123 13.9227C20.0522 14.0435 19.8755 14.1213 19.6925 14.1516C19.5094 14.1818 19.3236 14.164 19.1458 14.0991C18.9675 14.0367 18.8003 13.9283 18.654 13.7803C18.5077 13.6322 18.3851 13.4474 18.2934 13.2366C18.2017 13.0257 18.1427 12.793 18.1197 12.5519C18.0966 12.3108 18.1102 12.066 18.1595 11.8319C18.2425 11.4205 18.4313 11.0598 18.6938 10.8114C18.9562 10.563 19.276 10.4423 19.5984 10.4699ZM17.8501 16.6562C17.7481 16.6606 17.6489 16.7024 17.5639 16.7767C17.4788 16.8511 17.4111 16.9552 17.3684 17.0773L14.2205 26.0614H12.9186C11.7102 26.0614 10.7259 27.3659 10.7259 28.9576C10.7259 30.5493 11.7102 31.8511 12.9186 31.8511H18.4834L17.846 33.2541C17.4918 33.1482 17.1211 33.1991 16.7911 33.3988C16.4611 33.5986 16.1904 33.9361 16.0208 34.359L14.2455 38.8497C14.0455 39.3605 14.0066 39.9546 14.1372 40.5031C14.2678 41.0515 14.5574 41.5099 14.9431 41.7788C15.3317 42.0413 15.783 42.0918 16.1996 41.9193C16.6162 41.7469 16.9645 41.3652 17.169 40.8571L18.9444 36.3637C19.0884 35.9936 19.1488 35.577 19.1186 35.1631C19.0884 34.7492 18.9689 34.3553 18.7741 34.0281L19.7605 31.8511H32.6965L32.1151 33.2514C31.7629 33.1503 31.3952 33.2038 31.0683 33.4038C30.7413 33.6039 30.473 33.9393 30.3045 34.359L28.5292 38.8497C28.3293 39.3609 28.2907 39.9553 28.4217 40.5037C28.5528 41.0521 28.8428 41.5104 29.2289 41.7788C29.6172 42.0404 30.0681 42.0905 30.4842 41.918C30.9003 41.7456 31.2482 41.3645 31.4527 40.8571L33.2301 36.3637C33.375 35.9903 33.435 35.5698 33.403 35.1526C33.3709 34.7355 33.2482 34.3393 33.0495 34.0117L33.9486 31.8511H39.2933C40.5018 31.8511 41.4902 30.5466 41.4902 28.9576C41.4902 27.3687 40.5018 26.0587 39.2933 26.0587H36.3593L37.7754 22.6565C38.4046 22.5471 38.851 22.4295 38.851 22.4295C39.6379 22.3037 39.3971 20.7284 38.635 21.0128L38.4399 21.0566L39.2227 19.175C39.2926 19.0071 39.309 18.8095 39.2683 18.6256C39.2276 18.4417 39.1332 18.2867 39.0057 18.1946C38.8782 18.1024 38.7282 18.0808 38.5885 18.1344C38.449 18.188 38.3313 18.3125 38.2613 18.4803L37.0881 21.3027L36.787 21.3437C35.7717 21.4531 34.5653 21.3984 34.0317 21.0675C33.5956 20.7968 32.8938 19.7822 32.3913 18.8331C31.8867 17.8869 31.5337 17.0336 31.5337 17.0336C31.4846 16.9166 31.4119 16.8198 31.3236 16.7538C31.2353 16.6879 31.1349 16.6554 31.0335 16.6599C30.9321 16.6644 30.8335 16.7058 30.7488 16.7795C30.6642 16.8532 30.5966 16.9563 30.5537 17.0773L27.4017 26.0614H22.3767L23.8676 22.7632C24.8664 22.6401 25.6657 22.4295 25.6657 22.4295C26.4444 22.2927 26.2056 20.7339 25.4457 21.0128C25.4457 21.0128 25.0864 21.1031 24.5736 21.1961L25.4789 19.1996C25.5161 19.1179 25.5407 19.0273 25.5514 18.9331C25.562 18.8389 25.5585 18.7428 25.541 18.6503C25.5234 18.5579 25.4922 18.4709 25.4491 18.3943C25.4061 18.3178 25.3519 18.2532 25.2899 18.2041C25.2279 18.1551 25.1591 18.1226 25.0876 18.1086C25.016 18.0946 24.943 18.0993 24.8729 18.1224C24.8027 18.1455 24.7367 18.1866 24.6786 18.2433C24.6204 18.3 24.5713 18.3713 24.5341 18.453L23.2176 21.3684C22.2957 21.4285 21.3136 21.3574 20.8443 21.0675C20.4083 20.7968 19.7064 19.7822 19.2019 18.8331C18.894 18.2536 18.6099 17.6529 18.3506 17.0336C18.302 16.9163 18.2297 16.819 18.1417 16.7523C18.0538 16.6857 17.9515 16.6525 17.8501 16.6562ZM17.9394 18.8988C18.0889 19.2188 18.0889 19.2625 18.3048 19.6645C18.8489 20.6901 19.5237 21.847 20.3813 22.3748C21.0167 22.7659 21.7849 22.8589 22.547 22.8534L21.0976 26.0614H15.429L17.9394 18.8988ZM31.1247 18.8988C31.2742 19.2188 31.2742 19.2625 31.4901 19.6645C32.0341 20.6901 32.7069 21.847 33.5666 22.3748C34.4034 22.8944 35.4747 22.9054 36.4569 22.8206L35.1072 26.0614H28.6143L31.1247 18.8988ZM12.9186 27.5081H20.4456L19.1375 30.4044H12.9186C12.7739 30.407 12.6302 30.3712 12.4961 30.2992C12.362 30.2272 12.2403 30.1203 12.1382 29.9851C12.0362 29.8499 11.9558 29.689 11.9018 29.512C11.8479 29.3351 11.8216 29.1456 11.8244 28.9549C11.8244 28.1427 12.3019 27.5081 12.9186 27.5081ZM21.7227 27.5081H34.5051L33.3007 30.4044H20.4124L21.7227 27.5081ZM35.7571 27.5081H39.2933C39.91 27.5081 40.3917 28.1427 40.3917 28.9576C40.3917 29.7699 39.91 30.4044 39.2912 30.4044H34.5508L35.7571 27.5081ZM23.6994 33.2815C23.1263 33.3143 22.4432 33.555 21.4984 34.08C20.7862 34.4356 21.2368 35.8386 21.9261 35.4147C22.8065 34.9251 23.3776 34.7528 23.7472 34.7309C24.019 34.6951 24.2921 34.7819 24.5217 34.9771C24.9888 35.3299 25.6948 36.1941 27.2065 36.1941C27.9561 36.216 27.9561 34.7255 27.2065 34.7446C25.9731 34.7446 25.7509 34.2359 25.0698 33.7191C24.6544 33.4029 24.1786 33.2509 23.6994 33.2815ZM37.4349 33.2815C36.8618 33.3143 36.1787 33.555 35.2339 34.08C34.5923 34.4711 34.9972 35.7401 35.6575 35.4147C36.5379 34.9251 37.1131 34.7528 37.4848 34.7309C37.7566 34.6955 38.0296 34.7823 38.2592 34.9771C38.7264 35.3299 39.4262 36.1941 40.9378 36.1941C41.6874 36.216 41.6874 34.7255 40.9378 34.7446C39.7044 34.7446 39.4864 34.2359 38.8053 33.7191C38.3899 33.4029 37.9141 33.2509 37.4349 33.2815ZM10.62 33.5222C10.1425 33.5222 9.59636 33.6917 8.87169 34.0746C8.21347 34.4465 8.61007 35.7483 9.28075 35.4201C9.93067 35.0783 10.3418 34.9716 10.62 34.9716C10.8983 34.9716 11.0582 35.0537 11.3011 35.2123C11.7849 35.5295 12.5345 36.1941 14.0171 36.1941C14.7666 36.216 14.7666 34.7255 14.0171 34.7446C12.7546 34.7446 12.4078 34.3234 11.7932 33.9187C11.4316 33.6656 11.0295 33.5297 10.62 33.5222ZM17.5221 34.6352C17.5961 34.645 17.6681 34.6739 17.7338 34.72C18.0121 34.9115 18.1138 35.3299 17.9706 35.6964L16.1932 40.1871C16.1609 40.273 16.1158 40.3495 16.0605 40.412C16.0052 40.4745 15.9409 40.5216 15.8715 40.5504C15.8021 40.5793 15.7289 40.5893 15.6564 40.58C15.5839 40.5707 15.5137 40.5421 15.4498 40.4961C15.3848 40.4532 15.3271 40.3934 15.2802 40.3203C15.2332 40.2472 15.198 40.1624 15.1766 40.0708C15.1553 39.9793 15.1483 39.8831 15.156 39.7879C15.1636 39.6927 15.1859 39.6005 15.2214 39.517L16.9946 35.0263C17.1047 34.7528 17.3082 34.6106 17.5221 34.6352ZM31.8078 34.6352C31.8819 34.645 31.9539 34.6739 32.0196 34.72C32.2978 34.9115 32.3996 35.3299 32.2543 35.6964L30.4789 40.1871C30.4466 40.273 30.4016 40.3495 30.3463 40.412C30.291 40.4745 30.2267 40.5216 30.1573 40.5504C30.0878 40.5793 30.0147 40.5893 29.9422 40.58C29.8697 40.5707 29.7994 40.5421 29.7356 40.4961C29.6704 40.4534 29.6125 40.3938 29.5653 40.3208C29.5181 40.2479 29.4827 40.163 29.4612 40.0715C29.4397 39.9799 29.4324 39.8836 29.44 39.7883C29.4475 39.693 29.4697 39.6007 29.505 39.517L31.2804 35.029C31.3884 34.7528 31.594 34.6106 31.8078 34.6352ZM22.5989 36.8997C22.0279 36.9325 21.3448 37.1705 20.3979 37.6928C19.7064 38.062 20.1445 39.4295 20.8277 39.0302C21.706 38.5433 22.2771 38.3683 22.6488 38.3464C22.9206 38.3111 23.1936 38.3978 23.4232 38.5926C23.8904 38.9454 24.5943 39.8096 26.108 39.8096C26.8244 39.7878 26.8244 38.3848 26.108 38.3629C24.8726 38.3629 24.6504 37.8514 23.9693 37.3373C23.554 37.0208 23.0782 36.8689 22.5989 36.8997ZM36.3365 36.8997C35.7634 36.9325 35.0802 37.1705 34.1354 37.6928C33.4586 38.0675 33.8842 39.4048 34.5591 39.0302C35.4394 38.5433 36.0125 38.3683 36.3863 38.3464C36.6575 38.3112 36.9297 38.398 37.1587 38.5926C37.6259 38.9454 38.3278 39.8096 39.8394 39.8096C40.5558 39.7878 40.5558 38.3848 39.8394 38.3629C38.606 38.3629 38.3859 37.8514 37.7069 37.3373C37.2915 37.0211 36.8157 36.8692 36.3365 36.8997ZM10.3729 37.1459C9.92444 37.1459 9.43025 37.3209 8.83017 37.7147C8.13457 38.1277 8.65367 39.4951 9.32227 39.0083C9.82062 38.6801 10.1508 38.5926 10.3729 38.5926C10.5951 38.5926 10.7363 38.6637 10.9336 38.8114C11.3239 39.1067 11.9116 39.8096 12.9186 39.8096C13.635 39.7878 13.635 38.3848 12.9186 38.3629C12.2791 38.3629 12.0465 37.9855 11.4755 37.5561C11.1418 37.2939 10.7615 37.1524 10.3729 37.1459Z" fill="#63AB45"/>
</svg>
