<svg width="37" height="25" viewBox="0 0 37 25" fill="none" xmlns="http://www.w3.org/2000/svg">
<g clip-path="url(#clip0_1_2235)">
<g clip-path="url(#clip1_1_2235)">
<g clip-path="url(#clip2_1_2235)">
<path d="M36.5737 -0.000488281H0.859375V24.9995H36.5737V-0.000488281Z" fill="#862165"/>
<path fill-rule="evenodd" clip-rule="evenodd" d="M24.2867 8.15576C23.7092 8.15576 23.2402 8.63201 23.2402 9.21913C23.2402 9.80658 23.7092 10.2818 24.2867 10.2818C24.8651 10.2818 25.3338 9.80658 25.3338 9.21913C25.3338 8.63201 24.8651 8.15576 24.2867 8.15576ZM9.1916 11.7189C8.92327 11.7012 8.30161 11.6601 8.30161 11.092C8.30161 10.4065 9.19602 10.4065 9.53167 10.4065C10.122 10.4065 10.8859 10.5833 11.432 10.7494C11.432 10.7494 11.7361 10.8586 11.9949 10.9698L12.019 10.9767V9.09896L11.9867 9.08894C11.3419 8.85997 10.5934 8.63997 9.20486 8.63997C6.81105 8.63997 5.96289 10.0556 5.96289 11.2695C5.96289 11.9686 6.25808 13.6152 8.99877 13.8048L9.00131 13.805C9.23617 13.8196 9.84863 13.8577 9.84863 14.4427C9.84863 14.9276 9.34361 15.2129 8.49443 15.2129C7.56398 15.2129 6.66073 14.9725 6.11253 14.7435V16.6769C6.93347 16.8962 7.85917 17.0046 8.94402 17.0046C11.2838 17.0046 12.3326 15.6649 12.3326 14.3367C12.3326 12.8313 11.1596 11.8529 9.1916 11.7189ZM29.3495 16.9158V9.02574L31.4733 8.63997V16.9158H29.3495ZM22.0251 10.773C20.0632 10.8372 19.0664 11.7317 19.0664 13.5096V16.9149H21.2075V14.1375C21.2075 13.0734 21.3449 12.6172 22.5886 12.5737V10.8044C22.3794 10.7592 22.0251 10.773 22.0251 10.773ZM23.2285 16.9159V10.8628H25.352V16.9159H23.2285ZM26.2461 9.0259L28.3685 8.64013V16.916H26.2461V9.0259ZM16.2533 10.8845L16.2641 10.856H18.7704C18.699 11.0877 18.2518 12.4861 17.2323 13.7991C17.2323 13.7991 18.3678 15.8198 18.6273 16.916H16.0029C16.0029 16.916 15.6893 15.4607 15.0547 14.4936V16.916H12.8633V9.08047L15.0547 8.64013V12.9634C15.8313 12.0096 16.1773 11.0871 16.2533 10.8845Z" fill="white"/>
</g>
</g>
</g>
<defs>
<clipPath id="clip0_1_2235">
<rect y="-0.000488281" width="37" height="25" rx="4" fill="white"/>
</clipPath>
<clipPath id="clip1_1_2235">
<rect width="37" height="25" fill="white" transform="translate(0 -0.000488281)"/>
</clipPath>
<clipPath id="clip2_1_2235">
<rect width="37" height="25" fill="white" transform="translate(0 -0.000488281)"/>
</clipPath>
</defs>
</svg>
