<svg width="37" height="25" viewBox="0 0 37 25" fill="none" xmlns="http://www.w3.org/2000/svg">
<g clip-path="url(#clip0_1_2218)">
<g clip-path="url(#clip1_1_2218)">
<g clip-path="url(#clip2_1_2218)">
<path d="M36.4291 -0.000488281H0.714844V24.9995H36.4291V-0.000488281Z" fill="#6461FC"/>
<path fill-rule="evenodd" clip-rule="evenodd" d="M19.9021 8.48001L18.0879 8.87747V7.37594L19.9021 6.98584V8.48001ZM12.5326 7.84033L10.7689 8.22307L10.7617 14.1188C10.7617 15.2081 11.564 16.0104 12.6338 16.0104C13.2264 16.0104 13.6601 15.9 13.8986 15.7675V14.2734C13.6673 14.369 12.5253 14.7076 12.5253 13.6183V11.0053H13.8986V9.43755H12.5253L12.5326 7.84033ZM8.2614 10.9082C7.87832 10.9082 7.64702 11.0186 7.64702 11.3057C7.64702 11.6191 8.04508 11.757 8.53892 11.928C9.34399 12.2069 10.4036 12.5739 10.4081 13.9334C10.4081 15.2509 9.3745 16.009 7.87109 16.009C7.24949 16.009 6.57006 15.8839 5.89787 15.5895V13.8377C6.50501 14.1763 7.27117 14.4265 7.87109 14.4265C8.27585 14.4265 8.56497 14.3161 8.56497 13.9776C8.56497 13.6304 8.13347 13.4717 7.61252 13.2801C6.81916 12.9884 5.81836 12.6203 5.81836 11.394C5.81836 10.0912 6.79413 9.31103 8.2614 9.31103C8.86132 9.31103 9.45401 9.40672 10.0539 9.64961V11.3793C9.5046 11.0775 8.81072 10.9082 8.2614 10.9082ZM16.1437 9.98062L16.028 9.43594H14.4668V15.8763H16.2738V11.5116C16.7002 10.9448 17.423 11.0479 17.6471 11.1288V9.43594C17.4158 9.34762 16.5701 9.18569 16.1437 9.98062ZM18.0879 9.43603H19.9021V15.8764H18.0879V9.43603ZM31.841 12.6841C31.841 10.7998 30.9448 9.31299 29.2318 9.31299C27.5115 9.31299 26.4707 10.7998 26.4707 12.6693C26.4707 14.8848 27.6994 16.0036 29.4631 16.0036C30.3232 16.0036 30.9737 15.8049 31.4652 15.5252V14.0531C30.9737 14.3034 30.4099 14.4579 29.6943 14.4579C28.9932 14.4579 28.3716 14.2077 28.2921 13.3391H31.8266C31.8266 13.2988 31.8291 13.2074 31.8321 13.102L31.8322 13.1004C31.8362 12.9562 31.841 12.7858 31.841 12.6841ZM28.2715 11.9848C28.2715 11.1531 28.7702 10.8071 29.2256 10.8071C29.6665 10.8071 30.1363 11.1531 30.1363 11.9848H28.2715ZM22.2603 9.88694C22.5133 9.65141 22.9686 9.31282 23.6769 9.31282C24.9418 9.31282 26.1344 10.4758 26.1417 12.6103C26.1417 14.9436 24.9635 16.0035 23.6697 16.0035C23.0337 16.0035 22.6506 15.7311 22.3904 15.5398L22.3831 17.6228L20.5762 18.0129V9.43059H22.1663L22.2603 9.88694ZM22.39 14.0389C22.5635 14.2303 22.8165 14.3849 23.2429 14.3849C23.9079 14.3849 24.356 13.6488 24.356 12.6625C24.356 11.6983 23.9007 10.9475 23.2429 10.9475C22.8309 10.9475 22.5707 11.0947 22.3828 11.3082L22.39 14.0389Z" fill="white"/>
</g>
</g>
</g>
<defs>
<clipPath id="clip0_1_2218">
<rect y="-0.000488281" width="37" height="25" rx="4" fill="white"/>
</clipPath>
<clipPath id="clip1_1_2218">
<rect width="37" height="25" fill="white" transform="translate(0 -0.000488281)"/>
</clipPath>
<clipPath id="clip2_1_2218">
<rect width="37" height="25" fill="white" transform="translate(0 -0.000488281)"/>
</clipPath>
</defs>
</svg>
