<svg width="36" height="25" viewBox="0 0 36 25" fill="none" xmlns="http://www.w3.org/2000/svg">
<g clip-path="url(#clip0_1_2209)">
<g clip-path="url(#clip1_1_2209)">
<g clip-path="url(#clip2_1_2209)">
<path d="M35.7143 -0.000488281H0V24.9995H35.7143V-0.000488281Z" fill="#00579F"/>
<path d="M15.283 16.7542H13.2637L14.5267 8.78174H16.546L15.283 16.7542Z" fill="white"/>
<path d="M22.6025 8.97565C22.2042 8.81434 21.5724 8.63623 20.7913 8.63623C18.7971 8.63623 17.3928 9.72179 17.3842 11.2738C17.3676 12.4189 18.3896 13.0549 19.154 13.4367C19.9352 13.8268 20.2008 14.0815 20.2008 14.4293C20.1929 14.9634 19.5695 15.2096 18.9881 15.2096C18.1819 15.2096 17.7499 15.0826 17.0934 14.7855L16.8275 14.6581L16.5449 16.4477C17.0185 16.668 17.8911 16.8635 18.7971 16.8721C20.9159 16.8721 22.2954 15.8033 22.3117 14.1494C22.3198 13.2418 21.7801 12.5464 20.6167 11.9781C19.9104 11.6133 19.4778 11.3674 19.4778 10.9941C19.4861 10.6548 19.8437 10.3073 20.641 10.3073C21.2975 10.2903 21.7798 10.4513 22.1452 10.6125L22.3278 10.6972L22.6025 8.97565Z" fill="white"/>
<path d="M25.2844 13.9299C25.4508 13.4718 26.0907 11.6992 26.0907 11.6992C26.0823 11.7162 26.2566 11.2327 26.3564 10.9359L26.4975 11.6229C26.4975 11.6229 26.8799 13.5313 26.9629 13.9299C26.6473 13.9299 25.6833 13.9299 25.2844 13.9299ZM27.7771 8.78174H26.2151C25.7334 8.78174 25.3675 8.9258 25.1597 9.44322L22.1602 16.7541H24.279C24.279 16.7541 24.6279 15.7701 24.7028 15.5582C24.9353 15.5582 26.9965 15.5582 27.2955 15.5582C27.3535 15.8381 27.5365 16.7541 27.5365 16.7541H29.4062L27.7771 8.78174Z" fill="white"/>
<path d="M11.5735 8.78174L9.59591 14.2182L9.3798 13.1156C9.01418 11.8434 7.86751 10.4611 6.58789 9.77385L8.39932 16.7458H10.5347L13.7088 8.78174H11.5735Z" fill="white"/>
<path d="M7.76267 8.78174H4.51371L4.48047 8.94282C7.01486 9.60442 8.69335 11.1992 9.38296 13.116L8.67667 9.4519C8.56039 8.94271 8.20305 8.79853 7.76267 8.78174Z" fill="#FAA61A"/>
</g>
</g>
</g>
<defs>
<clipPath id="clip0_1_2209">
<rect y="-0.000488281" width="36" height="25" rx="4" fill="white"/>
</clipPath>
<clipPath id="clip1_1_2209">
<rect width="36" height="25" fill="white" transform="translate(0 -0.000488281)"/>
</clipPath>
<clipPath id="clip2_1_2209">
<rect width="36" height="25" fill="white" transform="translate(0 -0.000488281)"/>
</clipPath>
</defs>
</svg>
