<svg width="36" height="25" viewBox="0 0 36 25" fill="none" xmlns="http://www.w3.org/2000/svg">
<g clip-path="url(#clip0_1_2229)">
<g clip-path="url(#clip1_1_2229)">
<g clip-path="url(#clip2_1_2229)">
<path d="M35.8588 -0.000488281H0.144531V24.9995H35.8588V-0.000488281Z" fill="#7F54B3"/>
<path d="M9.60347 6.23584H26.3913C27.4537 6.23584 28.3138 7.11377 28.3138 8.19838V14.7401C28.3138 15.8246 27.4538 16.7026 26.3913 16.7026H20.371L21.1974 18.7684L17.5632 16.7026H9.61201C8.54962 16.7026 7.68951 15.8247 7.68951 14.7401V8.19838C7.68108 7.12241 8.54107 6.23584 9.60347 6.23584Z" fill="white"/>
<path d="M8.86299 8.02655C8.98036 7.86394 9.15643 7.77835 9.39117 7.76124C9.81875 7.727 10.0619 7.93241 10.1206 8.37745C10.3805 10.1662 10.6655 11.681 10.9674 12.9221L12.8034 9.35317C12.9711 9.02794 13.1807 8.85677 13.4322 8.83966C13.8011 8.81398 14.0275 9.05362 14.1197 9.55858C14.3293 10.6969 14.5976 11.664 14.9162 12.4856C15.1341 10.3117 15.503 8.74553 16.0229 7.77837C16.1486 7.53873 16.3331 7.41891 16.5762 7.40179C16.769 7.38467 16.9451 7.44458 17.1044 7.57296C17.2637 7.70134 17.3475 7.86395 17.3643 8.06079C17.3727 8.21485 17.3475 8.34322 17.2804 8.4716C16.9535 9.08782 16.6852 10.1234 16.4672 11.5612C16.2576 12.9563 16.1822 14.0432 16.2325 14.822C16.2492 15.036 16.2157 15.2242 16.1319 15.3869C16.0313 15.5751 15.8803 15.6778 15.6875 15.695C15.4695 15.7121 15.2432 15.6094 15.0252 15.3783C14.2455 14.5652 13.6251 13.35 13.1724 11.7323C12.6275 12.8278 12.2251 13.6495 11.9652 14.1972C11.4705 15.1643 11.0513 15.6607 10.6992 15.6864C10.4728 15.7035 10.28 15.5066 10.1123 15.0958C9.68473 13.9746 9.22361 11.8094 8.72895 8.59996C8.69541 8.37743 8.74562 8.18061 8.86299 8.02655ZM26.8802 9.37022C26.5784 8.83103 26.1341 8.50577 25.5389 8.37739C25.3796 8.34316 25.2287 8.32604 25.0861 8.32604C24.2813 8.32604 23.6274 8.75397 23.1159 9.60984C22.68 10.3373 22.462 11.1418 22.462 12.0233C22.462 12.6823 22.5961 13.2471 22.8644 13.7179C23.1662 14.2571 23.6106 14.5823 24.2058 14.7107C24.3651 14.745 24.516 14.7621 24.6585 14.7621C25.4717 14.7621 26.1257 14.3342 26.6287 13.4783C27.0647 12.7422 27.2827 11.9377 27.2827 11.0563C27.291 10.3887 27.1485 9.83242 26.8802 9.37022ZM25.8239 11.7409C25.7065 12.3058 25.4969 12.7251 25.1867 13.0076C24.9436 13.2301 24.7172 13.3243 24.5076 13.2815C24.3064 13.2387 24.1387 13.059 24.013 12.7252C23.9124 12.4599 23.8621 12.1946 23.8621 11.9464C23.8621 11.7324 23.8788 11.5184 23.9208 11.3216C23.9962 10.9707 24.1387 10.6283 24.3651 10.3031C24.6418 9.88375 24.9352 9.71258 25.237 9.77249C25.4383 9.81528 25.6059 9.99501 25.7317 10.3288C25.8323 10.5941 25.8826 10.8594 25.8826 11.1076C25.8826 11.3301 25.8658 11.5441 25.8239 11.7409ZM21.6319 9.37022C21.3301 8.83103 20.8774 8.50577 20.2905 8.37739C20.1312 8.34316 19.9803 8.32604 19.8378 8.32604C19.033 8.32604 18.379 8.75397 17.8676 9.60984C17.4317 10.3373 17.2137 11.1418 17.2137 12.0233C17.2137 12.6823 17.3478 13.2471 17.6161 13.7179C17.9179 14.2571 18.3623 14.5823 18.9575 14.7107C19.1168 14.745 19.2677 14.7621 19.4102 14.7621C20.2234 14.7621 20.8774 14.3342 21.3804 13.4783C21.8164 12.7422 22.0343 11.9377 22.0343 11.0563C22.0343 10.3887 21.9002 9.83242 21.6319 9.37022ZM20.5672 11.7409C20.4498 12.3058 20.2402 12.7251 19.93 13.0076C19.6869 13.2301 19.4605 13.3243 19.2509 13.2815C19.0497 13.2387 18.882 13.059 18.7563 12.7252C18.6557 12.4599 18.6054 12.1946 18.6054 11.9464C18.6054 11.7324 18.6221 11.5184 18.6641 11.3216C18.7395 10.9707 18.882 10.6283 19.1084 10.3031C19.3851 9.88375 19.6785 9.71258 19.9803 9.77249C20.1816 9.81528 20.3492 9.99501 20.475 10.3288C20.5756 10.5941 20.6259 10.8594 20.6259 11.1076C20.6343 11.3301 20.6091 11.5441 20.5672 11.7409Z" fill="#7F54B3"/>
</g>
</g>
</g>
<defs>
<clipPath id="clip0_1_2229">
<rect y="-0.000488281" width="36" height="25" rx="4" fill="white"/>
</clipPath>
<clipPath id="clip1_1_2229">
<rect width="36" height="25" fill="white" transform="translate(0 -0.000488281)"/>
</clipPath>
<clipPath id="clip2_1_2229">
<rect width="36" height="25" fill="white" transform="translate(0 -0.000488281)"/>
</clipPath>
</defs>
</svg>
