<svg width="50" height="51" viewBox="0 0 50 51" fill="none" xmlns="http://www.w3.org/2000/svg">
<rect y="0.52002" width="50" height="50" rx="25" fill="#100C08" fill-opacity="0.2"/>
<path d="M41.4764 9.55356C41.4556 9.45921 41.4214 9.37137 41.3758 9.29504C41.3301 9.2187 41.2739 9.15538 41.2103 9.10868C41.1467 9.06199 41.0769 9.03283 41.0051 9.02288C40.9332 9.01293 40.8606 9.02238 40.7914 9.05069L34.5327 11.611C31.4401 12.8767 28.2284 13.5196 24.9996 13.5192C24.2708 13.5192 23.5344 13.4838 22.8046 13.4179L22.7713 13.282C22.7348 13.1327 22.6648 13.0028 22.5711 12.9107C22.4775 12.8187 22.365 12.7692 22.2496 12.7692H20.0496C19.9233 12.7693 19.801 12.8286 19.7031 12.9373C18.2712 12.6215 16.8559 12.1785 15.4664 11.6111L9.20773 9.05078C9.068 8.99359 8.91734 9.01444 8.78889 9.10873C8.66044 9.20302 8.56471 9.36303 8.52277 9.55356C8.48084 9.74409 8.49612 9.94954 8.56527 10.1247C8.63441 10.2999 8.75175 10.4304 8.89148 10.4876L15.1502 13.0479C16.4594 13.5828 17.7908 14.0109 19.1373 14.3298L19.0076 14.6837C18.9694 14.7879 18.9495 14.9027 18.9495 15.0192C18.9495 15.1356 18.9694 15.2505 19.0076 15.3546L19.4996 16.6962V20.7921L17.8496 24.1671V23.2691C17.9954 23.2691 18.1353 23.1901 18.2385 23.0495C18.3416 22.9088 18.3996 22.718 18.3996 22.5191V21.0191C18.3996 20.0246 18.1098 19.0708 17.5941 18.3675C17.0784 17.6642 16.3789 17.2692 15.6496 17.2692C14.9202 17.2692 14.2208 17.6642 13.705 18.3675C13.1893 19.0708 12.8996 20.0246 12.8996 21.0191V22.5191C12.8996 22.718 12.9575 22.9088 13.0607 23.0495C13.1638 23.1901 13.3037 23.2691 13.4496 23.2691V24.7691C13.45 25.2558 13.5372 25.7351 13.7036 26.1658C13.8699 26.5964 14.1105 26.9655 14.4047 27.2413C14.2312 27.4947 14.0731 27.7669 13.932 28.0553C13.7782 28.3699 13.6743 28.7249 13.6272 29.0974C13.58 29.47 13.5905 29.8519 13.6581 30.2186C13.7256 30.5853 13.8487 30.9286 14.0194 31.2265C14.1901 31.5245 14.4047 31.7704 14.6492 31.9484C14.6676 31.9845 14.6881 32.0183 14.7107 32.0494L18.8552 37.7009C19.161 38.1201 19.5246 38.4525 19.9251 38.6787C20.3256 38.9049 20.7551 39.0206 21.1886 39.019H21.2161C22.0155 39.0191 22.7877 38.6235 23.3892 37.9056L26.6242 34.0455L30.1104 38.7994L32.3104 41.7993C32.3614 41.869 32.4221 41.9243 32.4889 41.962C32.5555 41.9997 32.6271 42.019 32.6993 42.019C32.7716 42.019 32.8431 41.9997 32.9098 41.962C32.9765 41.9243 33.0372 41.869 33.0882 41.7993L36.3882 37.2994C36.4393 37.2298 36.4798 37.1471 36.5075 37.0561C36.5351 36.9651 36.5493 36.8676 36.5493 36.769C36.5493 36.6705 36.5351 36.573 36.5075 36.482C36.4798 36.391 36.4393 36.3083 36.3882 36.2387L35.6663 35.2543L36.5213 31.7566C36.5536 31.6245 36.5583 31.4827 36.5348 31.3471C36.5114 31.2116 36.4607 31.0876 36.3885 30.9891L35.2885 29.4891C35.2069 29.3778 35.1017 29.3043 34.9877 29.279C34.8737 29.2538 34.7569 29.2781 34.6536 29.3485L32.6797 30.694L28.2536 28.1574C27.8018 27.6061 27.2464 27.237 26.6495 27.0914V24.7691C26.6496 24.6117 26.6132 24.4583 26.5457 24.3305C26.4782 24.2028 26.383 24.1073 26.2735 24.0576L25.0841 23.517C25.0841 23.517 25.5496 20.3184 25.5496 20.2691V15.0123C28.7008 14.9441 31.8301 14.2831 34.8488 13.048L41.1076 10.4876C41.1768 10.4593 41.2413 10.4127 41.2972 10.3504C41.3532 10.2881 41.3996 10.2114 41.4338 10.1247C41.4681 10.038 41.4894 9.9429 41.4968 9.8449C41.504 9.7469 41.4971 9.6479 41.4764 9.55356ZM24.4496 15.0118V20.1949L24.3088 21.1548L23.1395 16.5191L23.2915 16.1047C23.3238 16.0166 23.343 15.9207 23.3482 15.8224C23.3532 15.7241 23.3441 15.6255 23.3213 15.5321L23.1794 14.9516C23.6026 14.9822 24.0259 15.0023 24.4496 15.0118ZM16.3415 32.152C16.9555 31.9603 17.5171 31.5357 17.9614 30.9272L19.454 28.8919L20.9626 31.4634L18.3996 34.9584L16.3415 32.152ZM14.8472 28.8874C15.088 28.3941 15.393 27.9651 15.747 27.6217C15.7568 27.6128 15.7662 27.6035 15.7755 27.5936C15.9989 27.3815 16.2394 27.2048 16.4922 27.0671L17.7171 26.3989L18.7218 27.7691L17.1836 29.8665C16.9742 30.1536 16.7253 30.3812 16.4509 30.5361C16.1767 30.691 15.8826 30.7702 15.5857 30.7691C15.4251 30.7691 15.2674 30.7096 15.1296 30.5971C14.9917 30.4845 14.8789 30.323 14.8031 30.1299C14.7273 29.9367 14.6914 29.7191 14.6992 29.5002C14.7069 29.2815 14.758 29.0696 14.8472 28.8874ZM20.189 27.7436L22.6971 22.9551C22.7638 22.8278 22.7996 22.6754 22.7996 22.5191V19.783L23.7728 23.6421L23.1035 24.0983C23.0122 24.1606 22.9354 24.2564 22.8817 24.3749C22.828 24.4933 22.7996 24.6298 22.7996 24.7691V26.006L20.9846 29.0997L20.189 27.7436ZM20.5073 21.4353C20.5675 21.312 20.5996 21.1672 20.5996 21.0191V16.5191C20.5996 16.4027 20.5797 16.2878 20.5415 16.1837L20.1145 15.0192L20.3895 14.2692H21.8531L21.8767 14.3655L21.8789 14.3743L22.2058 15.7116L21.7576 16.9337C21.7194 17.0379 21.6996 17.1527 21.6996 17.2692V22.2789L19.4294 26.6127L18.5573 25.4235L20.5073 21.4353ZM13.9996 21.0191C13.9996 20.4224 14.1734 19.8501 14.4829 19.4282C14.7923 19.0062 15.212 18.7691 15.6496 18.7691C16.0872 18.7691 16.5068 19.0062 16.8163 19.4282C17.1257 19.8501 17.2996 20.4224 17.2996 21.0191V21.7691H13.9996V21.0191ZM16.7496 23.2691V24.7691C16.7496 24.9722 16.7193 25.1731 16.6607 25.3597L16.0837 25.6744C15.8196 25.8185 15.5657 25.995 15.325 26.2019C15.1006 26.107 14.9044 25.9168 14.7649 25.659C14.6254 25.4013 14.5499 25.0895 14.5496 24.7691V23.2691H16.7496ZM26.2874 32.4546L22.6649 36.7764C22.264 37.2551 21.7492 37.519 21.2163 37.5191H21.1888C20.8998 37.5201 20.6135 37.443 20.3465 37.2922C20.0795 37.1413 19.837 36.9198 19.6332 36.6403L19.1774 36.019L22.0708 32.0732L24.5871 29.2144C24.9825 28.7656 25.4806 28.5196 25.9952 28.5191H26.0605C26.3495 28.518 26.6358 28.5951 26.9028 28.7459C27.1699 28.8968 27.4123 29.1184 27.6161 29.3978L31.9217 35.2691L30.4995 37.2084L27.0385 32.4887C26.9398 32.3542 26.8073 32.2758 26.6678 32.2694C26.5284 32.2631 26.3924 32.3293 26.2874 32.4546ZM32.6995 40.2084L31.2773 38.269L32.9966 35.9245L34.201 35.3772L35.2218 36.769L32.6995 40.2084ZM34.7909 30.9316L35.3703 31.7217L34.7964 34.0681L34.7382 33.9887C34.6659 33.8902 34.575 33.8211 34.4756 33.7891C34.3762 33.7571 34.2722 33.7635 34.1753 33.8075L33.2495 34.2284V31.9826L34.7909 30.9316ZM32.1495 33.4583L30.3266 30.9726L32.1495 32.0173V33.4583ZM25.5496 27.0609C24.9361 27.1753 24.3585 27.5222 23.8826 28.0622L21.7788 30.4528L21.6894 30.3001L23.7794 26.7376C23.8573 26.6045 23.8996 26.4393 23.8996 26.2691V25.2326L24.4917 24.8289L25.5496 25.3097V27.0609Z" fill="white"/>
</svg>
