<svg width="24" height="24" viewBox="0 0 24 24" fill="none" xmlns="http://www.w3.org/2000/svg">
<path d="M16.8512 10.8699L16.0361 10.6815L15.8604 9.8068C15.8463 9.73686 15.815 9.67228 15.7696 9.61984C15.7242 9.5674 15.6665 9.52906 15.6026 9.50884C15.5386 9.48862 15.4707 9.48727 15.4061 9.50494C15.3415 9.5226 15.2825 9.55863 15.2354 9.60923L13.7366 11.2174C13.6927 11.2645 13.6606 11.3226 13.6431 11.3864C13.6255 11.4502 13.6232 11.5177 13.6363 11.5828L13.8198 12.4965L13.2129 13.1477C12.6947 12.7122 12.0431 12.4516 11.3354 12.4516C9.65313 12.4516 8.28449 13.9201 8.28449 15.7252C8.28449 17.5302 9.65313 18.9987 11.3354 18.9987C13.0177 18.9987 14.3863 17.5302 14.3863 15.7252C14.3863 14.9658 14.1434 14.2667 13.7376 13.7107L14.3445 13.0595L15.196 13.2564C15.2567 13.2705 15.3196 13.268 15.3791 13.2492C15.4386 13.2304 15.4927 13.1959 15.5365 13.1488L17.0354 11.5406C17.0825 11.49 17.116 11.4267 17.1325 11.3574C17.1489 11.2881 17.1476 11.2153 17.1288 11.1466C17.1099 11.078 17.0742 11.0161 17.0254 10.9674C16.9765 10.9187 16.9163 10.8851 16.8512 10.8699ZM13.6444 15.7251C13.6444 17.0912 12.6086 18.2026 11.3354 18.2026C10.0623 18.2026 9.02642 17.0912 9.02642 15.7251C9.02642 14.3591 10.0623 13.2476 11.3354 13.2476C11.8384 13.2476 12.3039 13.4216 12.6836 13.7157L11.9377 14.5159C11.9156 14.461 11.8821 14.4121 11.8399 14.373C11.7976 14.3339 11.7477 14.3055 11.6938 14.29C11.5988 14.2628 11.4975 14.2771 11.4123 14.3299C11.3271 14.3827 11.265 14.4696 11.2394 14.5715L10.9771 15.6221C10.9603 15.6896 10.9603 15.7606 10.9771 15.8281C10.994 15.8956 11.0271 15.9571 11.0732 16.0065C11.1192 16.0559 11.1765 16.0914 11.2394 16.1095C11.3023 16.1276 11.3685 16.1277 11.4314 16.1096L12.4105 15.8282C12.4576 15.8146 12.5017 15.7913 12.5403 15.7595C12.579 15.7277 12.6114 15.688 12.6358 15.6427C12.6601 15.5974 12.6759 15.5475 12.6823 15.4957C12.6886 15.4438 12.6854 15.3912 12.6728 15.3407C12.6584 15.2828 12.632 15.2293 12.5955 15.1839C12.5591 15.1386 12.5135 15.1027 12.4623 15.0789L13.2082 14.2787C13.4823 14.686 13.6444 15.1855 13.6444 15.7251ZM15.1548 12.4325L14.5373 12.2897L14.4041 11.6271L15.2785 10.6888L15.3612 11.1004C15.3763 11.1752 15.4111 11.2438 15.4615 11.298C15.512 11.3521 15.5759 11.3895 15.6457 11.4056L16.0292 11.4943L15.1548 12.4325ZM16.5581 14.7593C16.6089 15.0783 16.6345 15.4014 16.6346 15.7251C16.6346 18.8604 14.2574 21.411 11.3354 21.411C8.4134 21.411 6.03624 18.8603 6.03624 15.7251C6.03624 12.5899 8.41345 10.0392 11.3354 10.0392C11.6361 10.0392 11.9389 10.0668 12.2355 10.1213C12.3325 10.1391 12.4189 10.1975 12.4757 10.2837C12.5326 10.3698 12.5552 10.4767 12.5386 10.5807C12.522 10.6848 12.4676 10.7775 12.3872 10.8385C12.3069 10.8995 12.2074 10.9238 12.1104 10.906C11.8544 10.859 11.5951 10.8353 11.3354 10.8353C8.82253 10.8353 6.77817 13.0289 6.77817 15.7251C6.77817 18.4213 8.82253 20.6149 11.3354 20.6149C13.8483 20.6149 15.8927 18.4213 15.8927 15.7251C15.8926 15.4464 15.8705 15.1683 15.8268 14.8936C15.8102 14.7896 15.8328 14.6827 15.8896 14.5966C15.9464 14.5104 16.0328 14.452 16.1298 14.4341C16.1778 14.4253 16.227 14.4267 16.2745 14.4383C16.322 14.4498 16.3669 14.4713 16.4067 14.5015C16.4465 14.5317 16.4803 14.57 16.5063 14.6142C16.5322 14.6585 16.5498 14.7078 16.5581 14.7593ZM20.9241 2.9059H20.3391V1.65979C20.3391 1.17483 19.9714 0.780273 19.5194 0.780273H18.6296C18.1776 0.780273 17.8098 1.17483 17.8098 1.65979V2.9059H16.5969V1.65979C16.5969 1.17483 16.2291 0.780273 15.7772 0.780273H14.8874C14.4354 0.780273 14.0677 1.17483 14.0677 1.65979V2.9059H12.8547V1.65979C12.8547 1.17483 12.487 0.780273 12.035 0.780273H11.1452C10.6932 0.780273 10.3255 1.17483 10.3255 1.65979V2.9059H9.11249V1.65979C9.11249 1.17483 8.74472 0.780273 8.29274 0.780273H7.40293C6.95095 0.780273 6.58323 1.17483 6.58323 1.65979V2.9059H5.37026V1.65979C5.37026 1.17483 5.00254 0.780273 4.55056 0.780273H3.66079C3.20882 0.780273 2.84105 1.17483 2.84105 1.65979V2.9059H2.25608C1.06175 2.9059 0.0900879 3.94841 0.0900879 5.2299V21.4563C0.0900879 22.7378 1.06175 23.7803 2.25608 23.7803H18.2061C18.8014 23.7803 19.3167 23.5513 19.7377 23.0997L22.4557 20.1833C22.8767 19.7316 23.0901 19.1787 23.0901 18.54V5.2299C23.0901 3.94841 22.1184 2.9059 20.9241 2.9059ZM18.5518 1.65979C18.5521 1.63775 18.5603 1.61669 18.5749 1.6011C18.5894 1.58552 18.609 1.57664 18.6296 1.57635H19.5194C19.5399 1.57665 19.5596 1.58553 19.5741 1.60112C19.5886 1.6167 19.5969 1.63775 19.5972 1.65979V4.58045C19.5969 4.6025 19.5886 4.62356 19.5741 4.63915C19.5596 4.65475 19.5399 4.66364 19.5194 4.66394H18.6296C18.609 4.66364 18.5894 4.65475 18.5749 4.63916C18.5603 4.62356 18.552 4.6025 18.5518 4.58045V1.65979ZM14.8096 1.65979C14.8099 1.63775 14.8182 1.61669 14.8327 1.6011C14.8472 1.58552 14.8669 1.57664 14.8874 1.57635H15.7772C15.7977 1.57664 15.8173 1.58552 15.8319 1.6011C15.8464 1.61669 15.8547 1.63775 15.855 1.65979V4.58045C15.855 4.62568 15.8193 4.66394 15.7772 4.66394H14.8874C14.8668 4.66364 14.8472 4.65475 14.8327 4.63916C14.8182 4.62356 14.8099 4.6025 14.8096 4.58045V1.65979ZM11.0674 1.65979C11.0677 1.63775 11.076 1.61669 11.0905 1.6011C11.105 1.58552 11.1247 1.57664 11.1452 1.57635H12.035C12.0555 1.57664 12.0752 1.58552 12.0897 1.6011C12.1042 1.61669 12.1125 1.63775 12.1128 1.65979V4.58045C12.1128 4.62568 12.0771 4.66394 12.035 4.66394H11.1452C11.1247 4.66364 11.105 4.65475 11.0905 4.63916C11.076 4.62356 11.0677 4.6025 11.0674 4.58045V1.65979ZM7.32517 1.65979C7.32544 1.63775 7.33372 1.6167 7.34825 1.60112C7.36277 1.58553 7.38239 1.57665 7.40293 1.57635H8.29274C8.31329 1.57664 8.33292 1.58552 8.34746 1.6011C8.36199 1.61669 8.37028 1.63775 8.37055 1.65979V4.58045C8.37055 4.62568 8.33489 4.66394 8.29274 4.66394H7.40293C7.38238 4.66364 7.36276 4.65475 7.34823 4.63915C7.33371 4.62356 7.32543 4.6025 7.32517 4.58045V1.65979ZM3.58298 1.65979C3.58326 1.63775 3.59155 1.61669 3.60608 1.6011C3.62062 1.58552 3.64025 1.57664 3.66079 1.57635H4.55056C4.5711 1.57665 4.59072 1.58553 4.60524 1.60112C4.61977 1.6167 4.62805 1.63775 4.62832 1.65979V4.58045C4.62806 4.6025 4.61978 4.62356 4.60526 4.63915C4.59073 4.65475 4.57111 4.66364 4.55056 4.66394H3.66079C3.64024 4.66364 3.62061 4.65475 3.60608 4.63916C3.59155 4.62356 3.58326 4.6025 3.58298 4.58045V1.65979ZM2.25608 3.70198H2.84105V4.58045C2.84105 5.06541 3.20882 5.46002 3.66079 5.46002H4.55056C5.00254 5.46002 5.37026 5.06541 5.37026 4.58045V3.70198H6.58323V4.58045C6.58323 5.06541 6.95095 5.46002 7.40293 5.46002H8.29274C8.74472 5.46002 9.11249 5.06541 9.11249 4.58045V3.70198H10.3254V4.58045C10.3254 5.06541 10.6932 5.46002 11.1452 5.46002H12.0349C12.4869 5.46002 12.8547 5.06541 12.8547 4.58045V3.70198H14.0676V4.58045C14.0676 5.06541 14.4354 5.46002 14.8874 5.46002H15.7771C16.2291 5.46002 16.5969 5.06541 16.5969 4.58045V3.70198H17.8098V4.58045C17.8098 5.06541 18.1776 5.46002 18.6295 5.46002H19.5194C19.9713 5.46002 20.339 5.06541 20.339 4.58045V3.70198H20.9241C21.7093 3.70198 22.3481 4.3874 22.3481 5.2299V7.10914H0.832023V5.2299C0.832023 4.3874 1.47083 3.70198 2.25608 3.70198ZM2.25608 22.9842C1.47083 22.9842 0.832023 22.2988 0.832023 21.4563V7.90517H22.3482V18.54C22.3482 18.681 22.3329 18.8139 22.3027 18.9397H19.3984C18.9464 18.9397 18.5787 19.3343 18.5787 19.8193V22.9354C18.4614 22.9678 18.3375 22.9842 18.2061 22.9842H2.25608ZM19.3206 22.4212V19.8192C19.3209 19.7972 19.3291 19.7761 19.3437 19.7605C19.3582 19.7449 19.3778 19.736 19.3984 19.7357H21.8235L19.3206 22.4212Z" fill="black"/>
</svg>
