<svg width="15" height="10" viewBox="0 0 15 10" fill="none" xmlns="http://www.w3.org/2000/svg">
<path d="M0.92334 5.28025C0.92334 5.13803 0.967784 5.02248 1.05667 4.93359C1.14556 4.8447 1.26112 4.80025 1.40334 4.80025H13.19L10.0433 1.65359C9.93667 1.54692 9.88334 1.42248 9.88334 1.28025C9.88334 1.13803 9.93667 1.02248 10.0433 0.933587C10.15 0.844698 10.2745 0.800254 10.4167 0.800254C10.5589 0.800254 10.6833 0.83581 10.79 0.90692L14.79 4.90692C14.8611 5.01359 14.8967 5.13803 14.8967 5.28025C14.8967 5.42248 14.8611 5.54692 14.79 5.65359L10.79 9.65359C10.6833 9.7247 10.5589 9.76025 10.4167 9.76025C10.2745 9.76025 10.15 9.71581 10.0433 9.62692C9.93667 9.53803 9.88334 9.42248 9.88334 9.28025C9.88334 9.13803 9.93667 9.01359 10.0433 8.90692L13.19 5.76025H1.40334C1.26112 5.76025 1.14556 5.71581 1.05667 5.62692C0.967784 5.53803 0.92334 5.42248 0.92334 5.28025Z" fill="white"/>
</svg>
