<svg width="28" height="28" viewBox="0 0 28 28" fill="none" xmlns="http://www.w3.org/2000/svg">
<path d="M18.5275 17.9696C21.4007 13.4612 21.0395 14.0237 21.1223 13.9061C22.1683 12.4307 22.7212 10.6943 22.7212 8.88428C22.7212 4.08439 18.8262 0.130371 14.02 0.130371C9.22951 0.130371 5.31885 4.07659 5.31885 8.88428C5.31885 10.6931 5.88332 12.475 6.96363 13.9703L9.51238 17.9697C6.78733 18.3885 2.15479 19.6364 2.15479 22.3843C2.15479 23.386 2.80858 24.8135 5.92329 25.9259C8.09816 26.7026 10.9736 27.1304 14.02 27.1304C19.7166 27.1304 25.8852 25.5235 25.8852 22.3843C25.8852 19.6359 21.2581 18.3893 18.5275 17.9696ZM8.2851 13.1002C8.27641 13.0866 8.26732 13.0732 8.25784 13.0602C7.35888 11.8235 6.90088 10.3578 6.90088 8.88428C6.90088 4.92825 10.0863 1.7124 14.02 1.7124C17.9455 1.7124 21.1391 4.92967 21.1391 8.88428C21.1391 10.3601 20.6898 11.7761 19.8395 12.9802C19.7632 13.0807 20.1608 12.4631 14.02 22.099L8.2851 13.1002ZM14.02 25.5484C7.79767 25.5484 3.73682 23.7194 3.73682 22.3843C3.73682 21.487 5.8234 20.0115 10.4472 19.4364L13.3529 23.996C13.4244 24.1081 13.5229 24.2005 13.6395 24.2644C13.7561 24.3284 13.887 24.3619 14.0199 24.3619C14.1529 24.3619 14.2838 24.3284 14.4004 24.2644C14.5169 24.2005 14.6155 24.1081 14.687 23.996L17.5927 19.4364C22.2166 20.0115 24.3032 21.487 24.3032 22.3843C24.3032 23.708 20.2789 25.5484 14.02 25.5484Z" fill="#63AB45"/>
<path d="M14.02 4.9292C11.8392 4.9292 10.0649 6.70345 10.0649 8.88428C10.0649 11.0651 11.8392 12.8394 14.02 12.8394C16.2008 12.8394 17.9751 11.0651 17.9751 8.88428C17.9751 6.70345 16.2008 4.9292 14.02 4.9292ZM14.02 11.2574C12.7115 11.2574 11.647 10.1928 11.647 8.88428C11.647 7.57578 12.7115 6.51123 14.02 6.51123C15.3285 6.51123 16.393 7.57578 16.393 8.88428C16.393 10.1928 15.3285 11.2574 14.02 11.2574Z" fill="#63AB45"/>
</svg>
