<svg width="15" height="14" viewBox="0 0 15 14" fill="none" xmlns="http://www.w3.org/2000/svg">
<path d="M8.4303 12.25V7.46484H10.0436L10.276 5.5918H8.4303V4.40234C8.4303 4.12891 8.48726 3.90788 8.6012 3.73926C8.71513 3.57064 8.9635 3.48633 9.34631 3.48633H10.3307V1.81836C10.1211 1.80013 9.89775 1.78418 9.66077 1.77051C9.42379 1.75684 9.18681 1.75 8.94983 1.75C8.94071 1.75 8.9316 1.75 8.92249 1.75C8.91337 1.75 8.90426 1.75 8.89514 1.75C8.1842 1.75 7.60543 1.96191 7.15881 2.38574C6.7122 2.80957 6.48889 3.42253 6.48889 4.22461V5.5918H4.88928V7.46484H6.48889V12.25H8.4303Z" fill="white"/>
</svg>
