<svg width="16" height="16" viewBox="0 0 21 16" fill="none" xmlns="http://www.w3.org/2000/svg">
<path d="M0.409912 8.27979C0.409912 9.73756 0.765468 11.0798 1.47658 12.3065C2.18769 13.5331 3.15658 14.502 4.38325 15.2131C5.60991 15.9242 6.95213 16.2798 8.40991 16.2798C9.86769 16.2798 11.2099 15.9242 12.4366 15.2131C13.6632 14.502 14.6321 13.5331 15.3432 12.3065C16.0544 11.0798 16.4099 9.73756 16.4099 8.27979C16.4099 6.82201 16.0544 5.47978 15.3432 4.25312C14.6321 3.02645 13.6632 2.05756 12.4366 1.34645C11.2099 0.635341 9.86769 0.279785 8.40991 0.279785C6.95213 0.279785 5.60991 0.635341 4.38325 1.34645C3.15658 2.05756 2.18769 3.02645 1.47658 4.25312C0.765468 5.47978 0.409912 6.82201 0.409912 8.27979Z" fill="#00AA6C"/>
</svg>
