<svg width="20" height="24" viewBox="0 0 20 24" fill="none" xmlns="http://www.w3.org/2000/svg">
<path d="M17.6797 13.0468H14.1339C14.0322 13.0468 13.9347 13.0872 13.8628 13.1591C13.7909 13.2309 13.7505 13.3284 13.7505 13.4301V23.0136H11.738V19.0365C11.738 18.9348 11.6976 18.8373 11.6257 18.7654C11.5538 18.6935 11.4563 18.6531 11.3546 18.6531H7.9046C7.80293 18.6531 7.70543 18.6935 7.63354 18.7654C7.56165 18.8373 7.52126 18.9348 7.52126 19.0365V23.0136H5.50873V9.11751C5.50873 8.69479 5.85268 8.35083 6.27541 8.35083H12.9838C13.4066 8.35083 13.7505 8.69479 13.7505 9.11751V11.2499C13.7505 11.3515 13.7909 11.449 13.8628 11.5209C13.9347 11.5928 14.0322 11.6332 14.1339 11.6332C14.2355 11.6332 14.333 11.5928 14.4049 11.5209C14.4768 11.449 14.5172 11.3515 14.5172 11.2499V9.11751C14.5172 8.27201 13.8293 7.58416 12.9838 7.58416H6.27541C5.4299 7.58416 4.74205 8.27201 4.74205 9.11751V23.0136H1.57949C1.15677 23.0136 0.812822 22.6697 0.812822 22.2469V14.5801C0.812822 14.1574 1.15677 13.8135 1.57949 13.8135H2.92118C3.02285 13.8135 3.12036 13.7731 3.19225 13.7012C3.26414 13.6293 3.30452 13.5318 3.30452 13.4301C3.30452 13.3284 3.26414 13.2309 3.19225 13.1591C3.12036 13.0872 3.02285 13.0468 2.92118 13.0468H1.57949C0.733992 13.0468 0.0461426 13.7346 0.0461426 14.5801V22.2469C0.0461426 23.0924 0.733992 23.7803 1.57949 23.7803H14.1339C14.2355 23.7803 14.333 23.7399 14.4049 23.668C14.4768 23.5961 14.5172 23.4986 14.5172 23.3969V13.8135H17.6797C18.1025 13.8135 18.4464 14.1574 18.4464 14.5801V22.2469C18.4464 22.6697 18.1025 23.0136 17.6797 23.0136H16.0506C15.9489 23.0136 15.8514 23.054 15.7795 23.1259C15.7076 23.1978 15.6672 23.2953 15.6672 23.3969C15.6672 23.4986 15.7076 23.5961 15.7795 23.668C15.8514 23.7399 15.9489 23.7803 16.0506 23.7803H17.6797C18.5252 23.7803 19.2131 23.0924 19.2131 22.2469V14.5801C19.2131 13.7346 18.5252 13.0468 17.6797 13.0468ZM8.28792 19.4198H10.9713V23.0136H8.28792V19.4198ZM8.04059 4.1652L7.7965 5.59333C7.74307 5.90604 8.07245 6.145 8.35322 5.99694L9.62962 5.3235L10.906 5.99694C11.1865 6.145 11.5162 5.90618 11.4627 5.59333L11.2186 4.1652L12.2523 3.15404C12.4786 2.93266 12.3532 2.5464 12.0396 2.50069L10.6122 2.29253L9.97362 0.994069C9.83352 0.709008 9.42582 0.709008 9.28572 0.994069L8.64712 2.29253L7.21972 2.50069C6.90643 2.5463 6.78041 2.93242 7.00696 3.15404L8.04059 4.1652ZM8.95732 3.02208C9.01892 3.0131 9.07732 2.98927 9.12762 2.95266C9.17792 2.91604 9.21852 2.86774 9.24602 2.81191L9.62962 2.03186L10.0132 2.81191C10.0407 2.86773 10.0813 2.91604 10.1316 2.95265C10.1819 2.98927 10.2403 3.0131 10.3019 3.02208L11.1625 3.14762L10.5388 3.75766C10.4945 3.80101 10.4614 3.85446 10.4423 3.91343C10.4231 3.9724 10.4186 4.03513 10.429 4.09624L10.5759 4.95598C9.73462 4.51212 9.75462 4.50675 9.62962 4.50675C9.50302 4.50675 9.51442 4.51744 8.68322 4.95598L8.83012 4.09624C8.84062 4.03513 8.83602 3.9724 8.81692 3.91343C8.79782 3.85445 8.76462 3.801 8.72032 3.75766L8.09665 3.14762L8.95732 3.02208ZM3.79965 4.272C3.88667 4.00424 4.131 4.00793 4.37418 3.97257C4.48377 3.75047 4.55474 3.51869 4.83645 3.51869C5.11796 3.51869 5.18998 3.7522 5.29875 3.97257L5.56383 4.01109C5.8776 4.05671 6.00347 4.4435 5.7763 4.66497L5.58448 4.85195C5.62632 5.09604 5.70519 5.32533 5.47725 5.49088C5.24949 5.65639 5.05399 5.50976 4.83645 5.39538C4.61727 5.51062 4.42359 5.65648 4.19564 5.49088C3.96784 5.32542 4.04686 5.09417 4.08841 4.85195C3.91125 4.67916 3.71259 4.53991 3.79965 4.272ZM0.445433 6.1887C0.532453 5.92094 0.776782 5.92463 1.01996 5.88927L1.13851 5.64906C1.27886 5.36476 1.68558 5.36452 1.82603 5.64906L1.94458 5.88927C2.18963 5.92487 2.43204 5.92075 2.51911 6.1887C2.60613 6.45647 2.40626 6.5971 2.23031 6.76865L2.27559 7.03267C2.31589 7.26756 2.13438 7.4808 1.89771 7.4808C1.77955 7.4808 1.73283 7.44385 1.48232 7.31208L1.24527 7.43676C0.964622 7.58425 0.635422 7.34543 0.689042 7.03267L0.734332 6.76865C0.557032 6.59586 0.358373 6.45661 0.445433 6.1887ZM13.386 4.272C13.473 4.00424 13.7173 4.00793 13.9605 3.97257L14.079 3.73236C14.2194 3.44802 14.6261 3.44787 14.7666 3.73236L14.8851 3.97257C15.1301 4.00817 15.3726 4.00405 15.4596 4.272C15.5466 4.53977 15.3468 4.6804 15.1708 4.85195L15.2161 5.11597C15.2564 5.35087 15.0749 5.5641 14.8382 5.5641C14.7201 5.5641 14.6734 5.52715 14.4228 5.39538L14.1858 5.52006C13.9051 5.66755 13.5759 5.42873 13.6296 5.11597L13.6748 4.85195C13.4975 4.67916 13.2989 4.53991 13.386 4.272ZM16.7402 6.1887C16.8272 5.92094 17.0715 5.92463 17.3147 5.88927L17.4333 5.64906C17.5736 5.36471 17.9803 5.36457 18.1208 5.64906L18.2393 5.88927C18.4843 5.92487 18.7268 5.92075 18.8139 6.1887C18.9009 6.45647 18.701 6.5971 18.5251 6.76865L18.5703 7.03267C18.6106 7.26756 18.4291 7.4808 18.1925 7.4808C18.0743 7.4808 18.0276 7.44385 17.7771 7.31208L17.54 7.43676C17.2594 7.58425 16.9302 7.34543 16.9838 7.03267L17.0291 6.76865C16.8517 6.59586 16.6531 6.45661 16.7402 6.1887ZM2.77743 16.4968C2.8791 16.4968 2.9766 16.5372 3.04849 16.6091C3.12038 16.681 3.16077 16.7785 3.16077 16.8802V18.5094C3.16077 18.611 3.12038 18.7085 3.04849 18.7804C2.9766 18.8523 2.8791 18.8927 2.77743 18.8927C2.67576 18.8927 2.57826 18.8523 2.50637 18.7804C2.43448 18.7085 2.39409 18.611 2.39409 18.5094V16.8802C2.39409 16.7785 2.43448 16.681 2.50637 16.6091C2.57826 16.5372 2.67576 16.4968 2.77743 16.4968ZM16.4818 18.8927C16.3801 18.8927 16.2826 18.8523 16.2107 18.7804C16.1389 18.7085 16.0985 18.611 16.0985 18.5094V16.8802C16.0985 16.7785 16.1389 16.681 16.2107 16.6091C16.2826 16.5372 16.3801 16.4968 16.4818 16.4968C16.5835 16.4968 16.681 16.5372 16.7529 16.6091C16.8248 16.681 16.8651 16.7785 16.8651 16.8802V18.5094C16.8651 18.611 16.8248 18.7085 16.7529 18.7804C16.681 18.8523 16.5835 18.8927 16.4818 18.8927ZM11.8338 12.2322H7.42543C7.32376 12.2322 7.22625 12.1918 7.15436 12.1199C7.08247 12.048 7.04209 11.9505 7.04209 11.8488C7.04209 11.7472 7.08247 11.6497 7.15436 11.5778C7.22625 11.5059 7.32376 11.4655 7.42543 11.4655H11.8338C11.9355 11.4655 12.033 11.5059 12.1049 11.5778C12.1768 11.6497 12.2172 11.7472 12.2172 11.8488C12.2172 11.9505 12.1768 12.048 12.1049 12.1199C12.033 12.1918 11.9355 12.2322 11.8338 12.2322ZM11.163 15.1551C11.2646 15.1551 11.3621 15.1955 11.434 15.2674C11.5059 15.3393 11.5463 15.4368 11.5463 15.5385C11.5463 15.6402 11.5059 15.7377 11.434 15.8095C11.3621 15.8814 11.2646 15.9218 11.163 15.9218H8.09627C7.9946 15.9218 7.8971 15.8814 7.82521 15.8095C7.75332 15.7377 7.71293 15.6402 7.71293 15.5385C7.71293 15.4368 7.75332 15.3393 7.82521 15.2674C7.8971 15.1955 7.9946 15.1551 8.09627 15.1551H11.163Z" fill="black"/>
</svg>
