<svg width="11" height="12" viewBox="0 0 11 12" fill="none" xmlns="http://www.w3.org/2000/svg">
<path d="M5.60999 3.30664C5.23629 3.30664 4.88538 3.375 4.55725 3.51172C4.22913 3.65755 3.9443 3.85124 3.70276 4.09277C3.46122 4.33431 3.26754 4.61914 3.1217 4.94727C2.98499 5.27539 2.91663 5.6263 2.91663 6C2.91663 6.3737 2.98499 6.72461 3.1217 7.05273C3.26754 7.38086 3.46122 7.66569 3.70276 7.90723C3.9443 8.14876 4.22913 8.34245 4.55725 8.48828C4.88538 8.625 5.23629 8.69336 5.60999 8.69336C5.98368 8.69336 6.33459 8.625 6.66272 8.48828C6.99084 8.34245 7.27568 8.14876 7.51721 7.90723C7.75875 7.66569 7.95243 7.38086 8.09827 7.05273C8.23499 6.72461 8.30334 6.3737 8.30334 6C8.30334 5.6263 8.23499 5.27539 8.09827 4.94727C7.95243 4.61914 7.75875 4.33431 7.51721 4.09277C7.27568 3.85124 6.99084 3.65755 6.66272 3.51172C6.33459 3.375 5.98368 3.30664 5.60999 3.30664ZM5.60999 7.75C5.12691 7.75 4.71448 7.5791 4.37268 7.2373C4.03088 6.89551 3.85999 6.48307 3.85999 6C3.85999 5.51693 4.03088 5.10449 4.37268 4.7627C4.71448 4.4209 5.12691 4.25 5.60999 4.25C6.09306 4.25 6.50549 4.4209 6.84729 4.7627C7.18909 5.10449 7.35999 5.51693 7.35999 6C7.35999 6.48307 7.18909 6.89551 6.84729 7.2373C6.50549 7.5791 6.09306 7.75 5.60999 7.75ZM9.04163 3.19727C9.04163 3.37956 8.9801 3.52995 8.85706 3.64844C8.73401 3.76693 8.5859 3.82617 8.41272 3.82617C8.23954 3.82617 8.09143 3.76693 7.96838 3.64844C7.84534 3.52995 7.78381 3.37956 7.78381 3.19727C7.78381 3.02409 7.84534 2.87825 7.96838 2.75977C8.09143 2.64128 8.23954 2.58203 8.41272 2.58203C8.5859 2.58203 8.73401 2.64128 8.85706 2.75977C8.9801 2.87825 9.04163 3.02409 9.04163 3.19727ZM10.5865 2.56836C10.4498 2.21289 10.2493 1.903 9.98499 1.63867C9.72066 1.37435 9.41532 1.17383 9.06897 1.03711L9.0553 1.02344C8.86389 0.950521 8.66109 0.893555 8.4469 0.852539C8.23271 0.811523 8.01168 0.791016 7.78381 0.791016H7.77014C7.4967 0.772786 7.24605 0.761394 7.01819 0.756836C6.79032 0.752278 6.32092 0.75 5.60999 0.75C4.89905 0.75 4.42965 0.752278 4.20178 0.756836C3.97392 0.761394 3.72327 0.772786 3.44983 0.791016C3.22196 0.791016 2.99866 0.813802 2.77991 0.859375C2.56116 0.904948 2.35152 0.964192 2.151 1.03711L2.17834 1.02344C1.82288 1.16927 1.51298 1.37435 1.24866 1.63867C0.984334 1.903 0.783813 2.20378 0.647095 2.54102L0.633423 2.56836C0.560506 2.75065 0.50354 2.95117 0.462524 3.16992C0.421509 3.38867 0.396444 3.61198 0.387329 3.83984C0.378215 4.1224 0.371379 4.37533 0.366821 4.59863C0.362264 4.82194 0.359985 5.28906 0.359985 6C0.359985 6.71094 0.362264 7.18034 0.366821 7.4082C0.371379 7.63607 0.378215 7.89128 0.387329 8.17383C0.396444 8.39258 0.421509 8.60677 0.462524 8.81641C0.50354 9.02604 0.560506 9.23568 0.633423 9.44531C0.779256 9.80078 0.984334 10.1107 1.24866 10.375C1.51298 10.6393 1.81376 10.8398 2.151 10.9766H2.17834C2.36064 11.0586 2.55888 11.1224 2.77307 11.168C2.98726 11.2135 3.20829 11.2363 3.43616 11.2363H3.44983C3.73238 11.2546 3.98531 11.266 4.20862 11.2705C4.43193 11.2751 4.89905 11.2773 5.60999 11.2773C6.32092 11.2773 6.79032 11.2751 7.01819 11.2705C7.24605 11.266 7.50126 11.2546 7.78381 11.2363C8.01168 11.2363 8.23499 11.2135 8.45374 11.168C8.67249 11.1224 8.88212 11.0632 9.08264 10.9902L9.0553 11.0039C9.41077 10.8581 9.72066 10.653 9.98499 10.3887C10.2493 10.1243 10.4498 9.82357 10.5865 9.48633V9.45898C10.6686 9.25846 10.7301 9.05111 10.7711 8.83691C10.8121 8.62272 10.8326 8.40625 10.8326 8.1875C10.8418 7.90495 10.8486 7.65202 10.8531 7.42871C10.8577 7.2054 10.86 6.73828 10.86 6.02734C10.86 5.30729 10.86 4.83561 10.86 4.6123C10.86 4.389 10.8509 4.13607 10.8326 3.85352C10.8326 3.62565 10.8099 3.40006 10.7643 3.17676C10.7187 2.95345 10.6549 2.74154 10.5729 2.54102L10.5865 2.56836ZM9.87561 8.11914C9.87561 8.30143 9.85966 8.47689 9.82776 8.64551C9.79586 8.81413 9.74801 8.97591 9.6842 9.13086L9.69788 9.10352C9.60673 9.34049 9.47457 9.54329 9.30139 9.71191C9.12821 9.88053 8.93225 10.0104 8.7135 10.1016H8.69983C8.554 10.1654 8.39905 10.2109 8.23499 10.2383C8.07092 10.2656 7.9023 10.2839 7.72913 10.293C7.44657 10.3021 7.1982 10.3089 6.98401 10.3135C6.76982 10.318 6.30725 10.3203 5.59631 10.3203C4.88538 10.3203 4.42281 10.318 4.20862 10.3135C3.99443 10.3089 3.74605 10.3021 3.4635 10.293C3.28121 10.2839 3.10803 10.2633 2.94397 10.2314C2.77991 10.1995 2.6204 10.1562 2.46545 10.1016H2.47913C2.25126 10.0195 2.05074 9.89193 1.87756 9.71875C1.70439 9.54557 1.57222 9.34505 1.48108 9.11719V9.10352C1.42639 8.9668 1.3831 8.81641 1.3512 8.65234C1.3193 8.48828 1.30334 8.3151 1.30334 8.13281C1.28512 7.85938 1.276 7.61328 1.276 7.39453C1.276 7.17578 1.276 6.71094 1.276 6C1.276 5.28906 1.276 4.8265 1.276 4.6123C1.276 4.39811 1.28512 4.14974 1.30334 3.86719C1.30334 3.69401 1.3193 3.52311 1.3512 3.35449C1.3831 3.18587 1.43095 3.02409 1.49475 2.86914L1.48108 2.88281C1.57222 2.65495 1.70439 2.45443 1.87756 2.28125C2.05074 2.10807 2.25126 1.97591 2.47913 1.88477C2.62496 1.83008 2.77991 1.78678 2.94397 1.75488C3.10803 1.72298 3.28121 1.70703 3.4635 1.70703C3.73694 1.69792 3.98303 1.69108 4.20178 1.68652C4.42053 1.68197 4.88538 1.67969 5.59631 1.67969C6.30725 1.67969 6.76982 1.67969 6.98401 1.67969C7.1982 1.67969 7.44657 1.6888 7.72913 1.70703C7.9023 1.70703 8.07092 1.72298 8.23499 1.75488C8.39905 1.78678 8.55855 1.83464 8.7135 1.89844L8.69983 1.88477C8.92769 1.97591 9.12821 2.10807 9.30139 2.28125C9.47457 2.45443 9.60673 2.65495 9.69788 2.88281C9.75256 3.02865 9.79586 3.18359 9.82776 3.34766C9.85966 3.51172 9.87561 3.68034 9.87561 3.85352V3.86719C9.88472 4.14062 9.89156 4.38672 9.89612 4.60547C9.90068 4.82422 9.90295 5.28906 9.90295 6C9.90295 6.71094 9.90295 7.1735 9.90295 7.3877C9.90295 7.60189 9.8984 7.8457 9.88928 8.11914H9.87561Z" fill="white"/>
</svg>
