<svg width="12" height="12" viewBox="0 0 12 12" fill="none" xmlns="http://www.w3.org/2000/svg">
<path d="M3.25312 11.1597H1.07344V4.15186H3.25312V11.1597ZM2.15156 3.21436C1.47187 3.21436 0.909375 2.62842 0.909375 1.92529C0.909375 1.24561 1.47187 0.683105 2.15156 0.683105C2.85469 0.683105 3.41719 1.24561 3.41719 1.92529C3.41719 2.62842 2.85469 3.21436 2.15156 3.21436ZM11.3859 11.1597H9.22969V7.76123C9.22969 6.94092 9.20625 5.90967 8.08125 5.90967C6.95625 5.90967 6.79219 6.77686 6.79219 7.69092V11.1597H4.6125V4.15186H6.69844V5.11279H6.72187C7.02656 4.57373 7.72969 3.98779 8.78437 3.98779C10.9875 3.98779 11.4094 5.44092 11.4094 7.31592V11.1597H11.3859Z" fill="white" fill-opacity="0.5"/>
</svg>
