<svg width="18px" height="20px" xmlns="http://www.w3.org/2000/svg">
<path d="M12.1649 12.8928C14.0803 9.88722 13.8395 10.2622 13.8947 10.1838C14.5921 9.20023 14.9607 8.04257 14.9607 6.83594C14.9607 3.63602 12.364 1 9.15992 1C5.96626 1 3.35914 3.63081 3.35914 6.83594C3.35914 8.0418 3.73545 9.22976 4.45566 10.2266L6.15483 12.8929C4.33814 13.172 1.24976 14.004 1.24976 15.8359C1.24976 16.5037 1.68563 17.4554 3.7621 18.197C5.21201 18.7148 7.12898 19 9.15992 19C12.9577 19 17.0701 17.9287 17.0701 15.8359C17.0701 14.0037 13.9853 13.1726 12.1649 12.8928ZM5.33664 9.6465C5.33085 9.63744 5.32479 9.62856 5.31847 9.61985C4.71916 8.79537 4.41383 7.81824 4.41383 6.83594C4.41383 4.19859 6.53747 2.05469 9.15992 2.05469C11.7769 2.05469 13.906 4.19954 13.906 6.83594C13.906 7.81982 13.6064 8.7638 13.0395 9.56656C12.9887 9.63357 13.2538 9.22182 9.15992 15.6457L5.33664 9.6465ZM9.15992 17.9453C5.01169 17.9453 2.30445 16.726 2.30445 15.8359C2.30445 15.2377 3.69551 14.2541 6.77801 13.8707L8.71519 16.9104C8.76283 16.9852 8.82855 17.0467 8.90628 17.0893C8.984 17.132 9.07123 17.1543 9.15988 17.1543C9.24854 17.1543 9.33576 17.132 9.41349 17.0893C9.49122 17.0467 9.55694 16.9852 9.60458 16.9104L11.5417 13.8707C14.6243 14.2541 16.0154 15.2377 16.0154 15.8359C16.0154 16.7184 13.3325 17.9453 9.15992 17.9453Z" fill="white"/>
<path d="M9.15991 4.19922C7.70602 4.19922 6.52319 5.38205 6.52319 6.83594C6.52319 8.28982 7.70602 9.47266 9.15991 9.47266C10.6138 9.47266 11.7966 8.28982 11.7966 6.83594C11.7966 5.38205 10.6138 4.19922 9.15991 4.19922ZM9.15991 8.41797C8.28758 8.41797 7.57788 7.70827 7.57788 6.83594C7.57788 5.96361 8.28758 5.25391 9.15991 5.25391C10.0322 5.25391 10.7419 5.96361 10.7419 6.83594C10.7419 7.70827 10.0322 8.41797 9.15991 8.41797Z" fill="white"/>
</svg>