<svg width="222" height="44" viewBox="0 0 222 44" fill="none" xmlns="http://www.w3.org/2000/svg">
<g clip-path="url(#clip0_1_38)">
<g clip-path="url(#clip1_1_38)">
<path d="M219.144 20.9005C219.994 20.9005 220.738 20.9005 221.801 20.9005C219.994 20.076 218.294 20.7631 216.699 20.6256C215.849 20.2134 215.104 19.6636 213.829 19.9385C213.086 19.8011 212.342 19.8011 211.597 19.9385C211.385 19.6636 211.172 19.5262 210.96 19.2513C210.854 19.114 210.535 18.9765 210.429 18.8391C209.897 18.5642 209.366 18.4268 208.834 18.1519C209.154 18.0146 209.366 17.8771 209.684 17.7397C210.322 17.7397 210.96 17.6022 211.492 17.1899C212.024 16.9151 212.661 16.6402 212.554 16.2279V16.0905V15.953C213.404 15.953 214.361 15.953 214.574 15.2659C214.467 14.991 214.361 14.8536 214.254 14.5788C214.892 14.5788 215.529 14.8536 215.956 14.3039C216.381 13.7541 216.912 13.342 217.444 12.9296C217.974 12.6548 218.506 12.5173 219.144 12.2425C219.144 11.5553 219.569 11.0056 220.419 10.5933C220.844 10.5933 221.481 10.7308 221.801 10.4559C222.014 9.9062 221.481 9.9062 221.269 9.9062C220.631 9.76877 219.888 9.76877 219.249 9.63134C219.249 9.35649 219.249 9.08162 219.249 8.94419C219.356 8.80677 219.569 8.66934 219.676 8.39448C219.676 8.25706 219.676 8.25706 219.676 8.11963C220.101 7.98219 220.526 8.39448 221.056 8.25706C220.844 7.98219 220.526 7.84476 220.101 7.70734C219.888 7.43248 219.462 7.15761 218.931 7.0202C219.144 6.47048 217.762 6.33305 218.081 5.78333C218.719 5.92077 218.824 6.33305 219.676 6.33305C219.462 5.92077 219.037 5.78333 218.506 5.50847C218.187 5.23362 218.081 4.95875 217.444 4.95875C217.549 5.09619 217.656 5.37105 217.656 5.50847C217.124 5.50847 216.594 5.50847 216.062 5.50847C215.636 5.37105 215.211 5.23362 214.786 4.95875C214.786 4.82134 214.679 4.82132 214.574 4.6839C214.892 4.54647 215.317 4.54647 215.636 4.40904C216.594 4.27161 215.636 3.85932 215.956 3.72189C216.699 3.72189 217.124 3.30961 217.656 3.03476C218.399 2.89733 219.356 3.17218 220.206 2.62246C219.144 2.62246 218.294 2.7599 217.549 2.7599C217.444 2.62246 217.444 2.48503 217.337 2.34761C217.762 2.07275 218.612 2.07275 218.719 1.66047C218.612 1.66047 218.506 1.66047 218.399 1.66047C217.337 1.24818 216.169 1.52303 214.999 1.52303C213.724 1.52303 212.554 1.52303 211.279 1.52303C210.429 1.3856 209.579 1.3856 208.834 1.24818C208.729 1.24818 208.622 1.24818 208.516 1.24818C208.091 0.973319 206.497 1.24818 207.24 0.286171C205.434 -0.675826 203.202 -0.813258 200.97 -0.950684C200.439 -0.950684 199.907 -0.950684 199.482 -0.950684C197.462 -1.08811 195.655 -1.77526 193.637 -1.36297C192.68 -1.36297 191.83 -1.91269 190.767 -1.63783C190.13 -1.63783 189.492 -1.77526 189.067 -1.5004C188.96 -1.5004 188.855 -1.5004 188.642 -1.5004C187.898 -1.91269 187.048 -1.77526 186.198 -1.77526C185.985 -1.77526 185.666 -1.77526 185.453 -1.77526C183.753 -2.18754 181.84 -1.91269 180.033 -2.18754C179.183 -2.32497 178.438 -2.32497 177.588 -2.18754C176.633 -2.18754 175.676 -2.18754 174.719 -2.18754C174.613 -2.18754 174.506 -2.18754 174.294 -2.18754C173.338 -2.18754 172.488 -2.05012 171.531 -2.05012C168.768 -2.05012 166.004 -2.18754 163.241 -2.18754C163.134 -2.18754 162.922 -2.18754 162.816 -2.18754C161.966 -2.18754 161.116 -2.18754 160.264 -2.18754C160.159 -2.05012 160.264 -2.05012 160.371 -1.91269H160.264C160.264 -2.05012 160.264 -2.05012 160.264 -2.18754C160.052 -2.18754 159.946 -2.18754 159.734 -2.18754C159.096 -2.4624 158.459 -2.4624 157.821 -2.4624C154.419 -2.4624 150.913 -2.4624 147.512 -2.4624C147.299 -2.32497 147.299 -2.32497 147.512 -2.18754C150.913 -2.18754 154.419 -2.18754 157.821 -2.18754C153.038 -2.32497 148.149 -2.32497 143.367 -2.18754C143.26 -2.05012 143.367 -2.05012 143.473 -2.05012H143.367C143.367 -1.91269 143.367 -1.91269 143.367 -1.77526C143.473 -1.91269 143.473 -1.91269 143.367 -2.05012V-2.18754C142.942 -2.18754 142.517 -2.18754 142.092 -2.18754C140.285 -2.18754 138.372 -2.32497 136.565 -2.05012C136.459 -2.05012 136.459 -2.05012 136.459 -2.05012C136.352 -2.05012 136.246 -2.05012 136.14 -2.05012C135.29 -2.18754 134.546 -2.18754 133.695 -2.05012C129.338 -2.05012 124.981 -2.18754 120.623 -1.77526C119.348 -1.77526 117.966 -1.77526 116.691 -1.77526C116.372 -1.77526 116.159 -1.77526 115.841 -1.77526C116.266 -1.91269 116.691 -2.05012 117.116 -2.05012C116.478 -2.18754 115.841 -2.32497 115.415 -1.91269C114.565 -1.91269 113.821 -1.91269 112.971 -1.91269C112.44 -1.91269 112.015 -1.91269 111.696 -1.63783C109.783 -1.63783 107.87 -1.91269 106.063 -1.5004C105.957 -1.5004 105.957 -1.5004 105.85 -1.5004C101.812 -1.5004 97.667 -1.5004 93.6282 -1.36297C93.3095 -1.36297 93.0969 -1.36297 92.778 -1.36297C89.0584 -1.36297 85.3386 -1.36297 81.6188 -1.36297C79.1744 -1.36297 76.8362 -1.22554 74.6043 -1.22554C74.2856 -1.22554 74.073 -1.22554 73.7541 -1.22554C72.4789 -1.22554 71.3097 -1.22554 70.0345 -1.22554C68.5465 -1.22554 66.9524 -1.22554 65.4644 -1.22554C64.8267 -1.22554 64.0828 -1.22554 63.4451 -1.22554C62.5948 -1.22554 61.7446 -1.22554 61.0007 -1.22554C60.6819 -1.22554 60.4692 -1.22554 60.1505 -1.22554C58.9815 -1.22554 57.8123 -1.22554 56.5369 -1.22554C55.1554 -1.5004 53.7737 -1.5004 52.2858 -1.5004C51.2231 -1.5004 50.1602 -1.5004 49.0974 -1.63783C48.141 -1.77526 47.0782 -1.77526 46.1216 -1.63783C45.6966 -1.63783 45.3776 -1.63783 44.9526 -1.63783C43.0395 -2.05012 41.1265 -1.91269 39.1072 -2.05012C38.0444 -2.4624 36.769 -2.18754 35.4938 -2.32497C34.8561 -2.4624 34.3246 -2.59983 34.2184 -2.05012C33.4744 -1.5004 33.5807 -0.675826 32.7305 -0.126111C31.774 0.423604 31.774 1.11075 32.4117 1.66047C32.4117 1.7979 32.5179 1.7979 32.6242 1.7979C32.9431 2.34761 33.3682 2.62246 33.7933 3.03476C32.4117 3.03476 31.5615 3.58448 30.7112 3.99676C30.3923 4.13419 30.0735 4.27161 29.9673 4.54647C29.6484 4.54647 29.3296 4.6839 29.2233 4.82132C28.5856 4.95875 27.5229 4.54647 27.204 5.23362H27.0977C26.46 5.23362 25.8224 5.23362 25.1847 5.23362C24.547 4.95875 24.0156 4.95875 23.0591 4.95875C23.8031 5.37105 24.4408 5.50847 25.1847 5.50847C25.3973 5.6459 25.6098 5.6459 25.8224 5.78333C25.716 6.47048 25.6098 7.0202 25.5035 7.70734C25.6098 7.70734 25.716 7.84476 25.8224 7.84476H25.716C25.5035 7.84476 25.3973 7.84476 25.1847 7.84476C24.7596 7.84476 24.3345 7.84476 24.0156 7.84476C23.4843 7.98219 22.9529 7.98219 22.3152 8.11963C20.6147 8.39448 18.7018 8.53191 17.3201 9.35649C16.1509 9.49391 15.407 10.1811 14.238 10.4559C15.0882 10.7308 15.5134 10.3185 16.1509 10.3185C16.2572 10.4559 16.4699 10.4559 16.5761 10.5933C16.2572 10.8682 15.9384 11.0056 15.7259 11.2805C14.4505 11.4179 13.9191 11.9676 13.1752 12.5173C12.7501 12.6548 12.325 12.9296 12.4312 13.2045C12.7501 14.1665 10.7308 14.4414 10.6245 15.4034C11.1559 15.1285 11.581 14.991 12.0061 14.8536C12.0061 14.991 12.0061 14.991 12.0061 15.1285C11.6873 15.4034 11.4747 15.6783 11.1559 15.8157C11.581 16.2279 11.3685 16.6402 10.7308 17.0524C10.3057 17.1899 9.88054 17.4648 9.56171 17.6022C9.24287 17.6022 8.92404 17.6022 8.71147 17.8771C6.90473 18.4268 6.90473 18.5642 8.92404 19.2513C8.92404 19.3887 9.03031 19.5262 9.03031 19.6636C7.43613 19.6636 6.0545 20.076 4.67288 20.4882C3.92892 20.7631 4.24775 20.9005 4.88543 20.9005C4.56659 21.5876 3.50381 21.5876 2.75986 21.8625C2.33474 22.1374 1.90963 22.2748 1.37823 22.5497C2.12217 22.5497 2.75986 22.5497 3.39753 22.687C3.71637 22.9619 3.61008 23.0994 2.97241 23.0994C2.12217 23.0994 1.37823 23.0994 0.315441 23.0994C2.12217 23.9239 3.82264 23.2368 5.41682 23.3743C6.26706 23.7865 7.011 24.3363 8.28636 24.0614C9.03031 24.1988 9.77426 24.1988 10.5182 24.0614C10.5182 24.3363 10.8371 24.6111 10.9433 24.8859C11.0496 25.0233 11.3685 25.1608 11.581 25.2982C12.1124 25.5731 12.6438 25.7106 13.1752 25.9853C12.8563 26.1228 12.6438 26.2602 12.325 26.5351C11.6873 26.5351 11.0496 26.6726 10.5182 27.0847C9.98682 27.3596 9.34915 27.6345 9.45542 28.0469V28.1842V28.3216C8.6052 28.3216 7.64868 28.3216 7.43613 29.0089C7.5424 29.1463 7.64868 29.4211 7.75497 29.5585C7.11729 29.5585 6.47962 29.2836 6.0545 29.8334C5.62939 30.383 5.09799 30.7954 4.56659 31.2077C4.03521 31.6199 3.39753 31.7574 2.86614 32.0323C2.86614 32.7193 2.44101 33.2691 1.59079 33.6813C1.16567 33.6813 0.527999 33.544 0.209161 33.8188C-0.00339682 34.0937 0.527999 34.0937 0.740557 34.0937C1.37823 34.2311 2.12217 34.2311 2.75986 34.3686C2.75986 34.6435 2.75986 34.9182 2.75986 35.0556C2.75986 35.3305 2.65357 35.468 2.44101 35.6054C2.44101 35.7429 2.44101 35.7429 2.44101 35.8803C2.0159 36.0176 1.59079 35.6054 1.05939 35.8803C1.27195 36.1551 1.69706 36.2925 2.0159 36.43C2.33474 36.7049 2.75986 36.9798 3.29125 37.1171C3.0787 37.6669 4.46032 37.8043 4.14148 38.3539C3.50381 38.2165 3.39753 37.8043 2.5473 37.8043C2.75986 38.2165 3.18497 38.3539 3.71637 38.6288C4.03521 38.7663 4.14148 39.0412 4.77915 39.0412C4.67288 38.9037 4.67288 38.7663 4.56659 38.4914C5.09799 38.4914 5.62939 38.4914 6.16079 38.4914C6.5859 38.7663 7.011 38.9037 7.43613 39.0412C7.43613 39.1786 7.5424 39.1786 7.64868 39.3159C7.32984 39.4534 6.90473 39.4534 6.5859 39.5908C5.62939 39.7283 6.58589 40.1406 6.26706 40.2781C5.52311 40.2781 5.09799 40.6902 4.56659 40.9651C3.71637 41.1026 2.86614 40.8277 1.90963 41.24C2.97241 41.24 3.82264 41.1026 4.56659 41.1026C4.67288 41.3775 4.67288 41.5148 4.77915 41.6522C4.99171 41.7897 5.09799 41.7897 5.31055 41.9271C5.31055 41.6522 5.20428 41.5148 4.77915 41.6522C4.46032 41.9271 3.50381 41.9271 3.39753 42.3395C3.50381 42.3395 3.61008 42.3395 3.71637 42.3395C4.77915 42.7517 5.94822 42.4769 7.11729 42.4769C8.39264 42.4769 9.56171 42.4769 10.8371 42.4769C11.581 42.7517 12.4312 42.7517 13.2815 42.8891C13.3877 42.8891 13.494 42.8891 13.6003 42.8891C14.0254 43.3014 15.6197 43.0266 14.8756 43.8511C16.6824 44.8131 18.9143 44.9505 21.1462 45.088C21.6775 45.088 22.2089 45.088 22.6341 45.088C24.6533 45.2254 26.46 45.9125 28.4794 45.5003C29.4358 45.5003 30.2861 46.0499 31.3489 45.7752C31.9865 45.7752 32.6242 45.9125 33.0494 45.6378C33.1556 45.6378 33.2619 45.6378 33.4744 45.6378C34.2184 46.0499 35.0686 46.0499 35.9188 45.9125C36.1315 45.9125 36.4503 45.9125 36.6628 45.9125C38.3632 46.3248 40.2763 46.0499 42.083 46.3248C42.9332 46.4623 43.6772 46.4623 44.5274 46.3248C45.4839 46.3248 46.4405 46.3248 47.397 46.3248C47.5033 46.3248 47.7158 46.3248 47.822 46.3248C48.7787 46.3248 49.6289 46.1874 50.5854 46.1874C53.3485 46.1874 56.1119 46.3248 58.875 46.3248C58.9815 46.3248 59.194 46.3248 59.3002 46.3248C60.1505 46.3248 61.0007 46.3248 61.8509 46.3248C61.9571 46.1874 61.8509 46.1874 61.7446 46.0499H61.8509C61.8509 46.1874 61.8509 46.1874 61.8509 46.3248C62.0634 46.3248 62.1698 46.3248 62.3823 46.3248C62.9138 46.4623 63.5513 46.4623 64.2953 46.4623C67.6963 46.4623 71.2035 46.4623 74.6043 46.4623C74.817 46.3248 74.817 46.3248 74.6043 46.1874C71.2035 46.1874 67.6963 46.1874 64.2953 46.1874C69.0778 46.3248 73.9668 46.3248 78.7493 46.1874C78.8556 46.0499 78.7493 46.0499 78.6429 46.0499H78.7493C78.7493 45.9125 78.7493 45.9125 78.7493 45.7752C78.6429 45.9125 78.6429 45.9125 78.7493 46.0499V46.1874C79.1744 46.1874 79.5995 46.1874 80.0246 46.1874C81.8314 46.1874 83.7444 46.3248 85.5511 46.0499H85.6573C85.7637 46.0499 85.87 46.0499 85.9763 46.0499C86.8265 46.1874 87.5704 46.1874 88.4207 46.0499C92.778 46.0499 97.1355 46.1874 101.493 45.7752C102.768 45.7752 104.15 45.7752 105.425 45.7752C105.744 45.7752 105.957 45.7752 106.275 45.7752C105.85 45.9125 105.425 46.0499 105 46.1874C105.638 46.3248 106.276 46.4623 106.701 46.0499C107.551 46.0499 108.295 46.0499 109.145 46.0499C109.251 45.9125 109.251 45.9125 109.145 45.7752C109.145 45.9125 109.145 45.9125 109.145 46.0499C109.676 46.0499 110.101 46.0499 110.42 45.7752C112.333 45.6378 114.353 46.0499 116.266 45.6378C120.304 45.6378 124.449 45.6378 128.488 45.5003C128.807 45.5003 129.019 45.5003 129.338 45.5003C133.058 45.5003 136.778 45.5003 140.497 45.5003C142.835 45.3629 145.067 45.3629 147.406 45.2254C147.724 45.2254 147.937 45.2254 148.256 45.2254C149.531 45.2254 150.7 45.2254 151.975 45.2254C153.464 45.2254 155.057 45.2254 156.546 45.2254C157.184 45.2254 157.927 45.2254 158.564 45.2254C159.414 45.2254 160.159 45.2254 161.009 45.2254C161.329 45.2254 161.541 45.2254 161.859 45.2254C163.029 45.2254 164.197 45.2254 165.473 45.2254C165.473 45.2254 165.473 45.2254 165.579 45.2254C166.961 45.5003 168.343 45.5003 169.724 45.3629C170.786 45.3629 171.849 45.3629 172.913 45.5003C173.869 45.7752 174.931 45.6378 175.888 45.6378C176.313 45.6378 176.633 45.6378 177.058 45.6378C178.97 46.0499 180.883 45.7752 182.796 45.9125C183.965 46.3248 185.24 46.0499 186.41 46.1874C187.048 46.4623 187.578 46.5997 187.791 45.9125C188.535 45.3629 188.43 44.5383 189.28 43.9885C190.13 43.4389 190.13 42.8891 189.598 42.202C189.598 42.0646 189.492 42.0646 189.385 42.0646C188.96 41.6522 188.535 41.24 188.217 40.8277C189.598 40.9651 190.342 40.4153 191.192 39.8657C191.618 39.7283 191.83 39.5908 191.937 39.3159C192.255 39.3159 192.575 39.1786 192.68 39.0412C193.318 38.9037 194.38 39.3159 194.7 38.6288H194.805C195.443 38.6288 196.082 38.6288 196.719 38.6288C197.357 38.9037 197.888 38.9037 198.845 38.9037C198.1 38.4914 197.462 38.3539 196.719 38.3539C196.507 38.2165 196.187 38.2165 195.975 38.0792C196.082 37.392 196.187 36.8423 196.294 36.1551C196.187 36.0176 196.082 36.0176 195.975 36.0176H196.082C196.294 36.0176 196.4 36.0176 196.612 36.0176C197.037 36.0176 197.462 36.0176 197.782 36.0176C198.313 35.8803 198.845 35.8803 199.482 35.7429C201.182 35.468 203.095 35.3305 204.477 34.506C205.647 34.3686 206.39 33.6813 207.559 33.4066C206.709 33.1317 206.284 33.544 205.647 33.544C205.54 33.4066 205.327 33.4066 205.222 33.2691C205.54 32.9942 205.859 32.8568 206.072 32.5819C207.24 32.4446 207.879 31.8948 208.622 31.3452C209.047 31.2077 209.366 30.9328 209.366 30.6579C209.154 29.6959 211.067 29.4211 211.172 28.4591C210.642 28.734 210.217 28.8714 209.792 29.0089C209.792 28.8714 209.792 28.8714 209.792 28.734C210.11 28.4591 210.322 28.3216 210.642 28.0469C210.217 27.6345 210.429 27.2222 211.067 26.81C211.492 26.6726 211.917 26.3977 212.236 26.2602C212.554 26.2602 212.874 26.2602 213.086 25.9853C214.892 25.2982 214.892 25.2982 212.767 24.4737C212.767 24.3363 212.661 24.1988 212.661 24.0614C214.254 24.0614 215.636 23.6492 217.019 23.2368C217.762 22.9619 217.444 22.8245 216.806 22.8245C217.124 22.1374 218.187 22.1374 218.931 21.8625C219.356 21.5876 219.888 21.4502 220.419 21.1754C219.676 21.1754 219.037 21.1754 218.399 21.038C218.399 21.038 218.506 20.9005 219.144 20.9005ZM5.41682 42.202C5.31055 42.202 5.31055 42.202 5.20428 42.202C5.20428 42.202 5.31055 42.202 5.41682 42.202ZM82.0439 -0.813258H81.9377C82.0439 -0.813258 82.0439 -0.813258 82.0439 -0.813258ZM34.7498 5.37105C34.7498 5.50847 34.8561 5.50847 34.7498 5.37105V5.37105ZM82.6816 24.6111C82.5752 24.6111 82.5752 24.6111 82.6816 24.6111V24.6111ZM175.781 40.1406C175.888 40.1406 175.994 40.1406 176.101 40.2781C175.994 40.2781 175.888 40.2781 175.781 40.1406ZM63.02 1.93532C63.1263 1.93532 63.2326 1.93532 63.3388 1.93532H63.2326C63.1263 1.93532 63.02 1.93532 63.02 1.93532ZM65.2519 1.66047C65.1455 1.52303 65.4644 1.66047 65.2519 1.66047V1.66047ZM48.3535 1.7979C48.2472 1.7979 48.141 1.7979 48.141 1.7979C48.2472 1.7979 48.3535 1.7979 48.3535 1.7979ZM15.3008 20.2134C15.1945 20.2134 15.1945 20.2134 15.0882 20.2134C15.0882 20.2134 15.0882 20.2134 15.1945 20.2134C15.1945 20.2134 15.1945 20.2134 15.3008 20.2134ZM158.989 42.202C158.884 42.202 158.777 42.202 158.671 42.202H158.777C158.884 42.202 158.989 42.0646 158.989 42.202ZM156.759 42.3395C156.546 42.3395 156.864 42.6142 156.759 42.3395V42.3395ZM173.656 42.202C173.763 42.202 173.763 42.202 173.869 42.202C173.763 42.202 173.763 42.3395 173.656 42.202ZM206.815 23.7865C206.922 23.7865 206.922 23.7865 207.027 23.7865C207.027 23.7865 207.027 23.7865 206.922 23.7865C206.815 23.7865 206.815 23.7865 206.815 23.7865ZM209.366 9.63134C209.259 9.63134 209.259 9.63134 209.366 9.63134V9.63134ZM12.8563 19.8011C12.8563 19.6636 12.8563 19.6636 12.8563 19.8011V19.8011ZM12.6438 34.3686C12.7501 34.3686 12.7501 34.506 12.6438 34.3686C12.7501 34.506 12.7501 34.506 12.6438 34.3686C12.7501 34.506 12.6438 34.506 12.6438 34.3686ZM204.265 26.6726C204.372 26.6726 204.372 26.6726 204.265 26.6726C204.372 26.81 204.372 26.81 204.265 26.6726C204.372 26.81 204.265 26.81 204.265 26.6726ZM53.9862 0.698469C54.0925 0.561037 54.0925 0.561037 54.1989 0.561037C54.0925 0.698469 53.9862 0.698469 53.9862 0.698469ZM168.129 43.3014C168.024 43.4389 168.024 43.4389 167.917 43.4389C167.917 43.3014 168.024 43.3014 168.129 43.3014ZM204.477 16.6402H204.372C204.372 16.5028 204.372 16.5028 204.477 16.6402ZM184.922 -0.126111C184.71 -0.263543 184.497 -0.126111 184.39 -0.126111C184.497 -0.126111 184.71 -0.126111 184.922 -0.126111ZM44.1024 0.561037C43.9961 0.698469 44.1024 0.698469 44.1024 0.561037C43.9961 0.561037 43.9961 0.698469 44.1024 0.561037ZM17.5326 27.4971H17.6389C17.7451 27.4971 17.6389 27.4971 17.5326 27.4971C17.6389 27.4971 17.6389 27.4971 17.5326 27.4971ZM37.088 44.126C37.3005 44.2634 37.513 44.126 37.6194 44.126C37.513 44.126 37.4067 44.126 37.088 44.126ZM45.9091 44.9505C45.8028 44.8131 45.6966 44.8131 45.4839 44.8131C45.6966 44.8131 45.8028 44.9505 45.9091 44.9505ZM205.009 18.8391H205.115C205.115 18.8391 205.115 18.8391 205.009 18.8391ZM156.546 -0.950684C156.546 -1.08811 156.546 -1.08811 156.546 -0.950684C156.652 -0.950684 156.759 -0.950684 156.759 -0.950684C156.652 -0.950684 156.546 -0.950684 156.546 -0.950684ZM33.2619 7.15761C33.1556 7.15761 32.9431 7.15761 32.8367 7.15761C33.0494 7.15761 33.1556 7.15761 33.2619 7.15761ZM65.5707 45.088C65.4644 45.088 65.4644 45.088 65.5707 45.088V45.088ZM122.961 -1.22554C123.068 -1.22554 123.068 -1.22554 122.961 -1.22554V-1.22554ZM14.0254 17.7397C14.0254 17.8771 14.0254 17.8771 14.0254 17.7397V17.7397ZM141.985 44.4009C141.985 44.2634 141.985 44.2634 141.985 44.4009H142.092C142.092 44.4009 142.092 44.2634 141.985 44.4009ZM169.618 45.2254C169.724 45.2254 169.724 45.2254 169.618 45.2254C169.618 45.3629 169.724 45.3629 169.618 45.2254ZM216.594 20.7631V20.9005C216.594 20.9005 216.594 20.9005 216.594 20.7631V20.9005C216.487 20.7631 216.487 20.7631 216.594 20.7631C216.487 20.7631 216.487 20.7631 216.594 20.7631ZM214.149 1.93532C214.042 1.7979 214.042 1.7979 214.149 1.93532V1.93532ZM106.701 -0.950684C106.701 -1.08811 106.701 -1.08811 106.701 -1.22554C106.594 -1.22554 106.594 -1.08811 106.701 -0.950684ZM99.5799 -1.22554C99.6862 -1.22554 99.6862 -1.22554 99.5799 -1.22554V-1.22554ZM79.3869 -0.950684H79.2806H79.1744C79.1744 -0.950684 79.2806 -0.950684 79.3869 -0.950684ZM78.1116 -0.950684C78.2179 -1.08811 78.2179 -1.08811 78.3241 -1.08811C78.2179 -0.950684 78.1116 -0.950684 78.1116 -0.950684ZM43.6772 -1.63783C43.5709 -1.63783 43.5709 -1.63783 43.5709 -1.63783C43.6772 -1.63783 43.6772 -1.63783 43.6772 -1.63783ZM5.52311 23.3743V23.2368C5.52311 23.2368 5.52311 23.2368 5.52311 23.3743V23.2368C5.52311 23.2368 5.62939 23.2368 5.52311 23.3743ZM7.86124 42.202C7.96753 42.202 7.96753 42.202 7.86124 42.202V42.202ZM115.415 45.3629C115.522 45.2254 115.415 45.2254 115.415 45.088C115.415 45.088 115.415 45.2254 115.415 45.3629ZM122.43 45.2254C122.43 45.3629 122.43 45.3629 122.43 45.2254V45.2254ZM142.942 45.088C142.835 45.088 142.835 45.088 142.729 45.088H142.835H142.942C143.26 45.088 143.473 45.088 143.792 45.088C143.792 45.088 143.898 45.088 144.004 44.9505C144.004 44.9505 143.898 44.9505 143.898 45.088H143.792C143.473 44.9505 143.26 44.9505 142.942 45.088ZM178.333 45.6378C178.438 45.6378 178.438 45.6378 178.438 45.6378H178.333Z" fill="#FBB03B"/>
</g>
</g>
<defs>
<clipPath id="clip0_1_38">
<rect width="221.68" height="44" fill="white" transform="translate(0.159912)"/>
</clipPath>
<clipPath id="clip1_1_38">
<rect width="221.69" height="48.9247" fill="white" transform="translate(0.159912 -2.4624)"/>
</clipPath>
</defs>
</svg>
