<svg width="146" height="33" viewBox="0 0 146 33" fill="none" xmlns="http://www.w3.org/2000/svg">
<g clip-path="url(#clip0_1_717)">
<g clip-path="url(#clip1_1_717)">
<path d="M143.788 15.3601C144.345 15.3601 144.832 15.3601 145.528 15.3601C144.345 14.8203 143.232 15.2701 142.188 15.1801C141.631 14.9103 141.144 14.5503 140.309 14.7303C139.822 14.6403 139.335 14.6403 138.848 14.7303C138.708 14.5503 138.569 14.4603 138.43 14.2804C138.361 14.1905 138.152 14.1005 138.083 14.0105C137.734 13.8305 137.387 13.7405 137.039 13.5606C137.248 13.4707 137.387 13.3807 137.595 13.2907C138.013 13.2907 138.43 13.2007 138.779 12.9308C139.127 12.7509 139.544 12.5709 139.474 12.301V12.211V12.121C140.031 12.121 140.657 12.121 140.796 11.6711C140.726 11.4912 140.657 11.4012 140.587 11.2213C141.005 11.2213 141.422 11.4012 141.701 11.0413C141.98 10.6814 142.327 10.4115 142.675 10.1416C143.023 9.96164 143.371 9.87166 143.788 9.69172C143.788 9.24185 144.067 8.88195 144.623 8.61203C144.901 8.61203 145.319 8.70199 145.528 8.52205C145.667 8.16215 145.319 8.16215 145.18 8.16215C144.762 8.07218 144.276 8.07218 143.857 7.9822C143.857 7.80226 143.857 7.6223 143.857 7.53233C143.927 7.44236 144.067 7.35238 144.137 7.17243C144.137 7.08246 144.137 7.08246 144.137 6.99249C144.415 6.90251 144.693 7.17243 145.041 7.08246C144.901 6.90251 144.693 6.81253 144.415 6.72257C144.276 6.54261 143.997 6.36266 143.649 6.27269C143.788 5.91279 142.883 5.82282 143.093 5.46292C143.51 5.5529 143.579 5.82282 144.137 5.82282C143.997 5.5529 143.718 5.46292 143.371 5.28297C143.162 5.10302 143.093 4.92307 142.675 4.92307C142.744 5.01305 142.814 5.193 142.814 5.28297C142.466 5.28297 142.119 5.28297 141.77 5.28297C141.492 5.193 141.214 5.10302 140.936 4.92307C140.936 4.8331 140.866 4.83309 140.796 4.74313C141.005 4.65315 141.283 4.65315 141.492 4.56317C142.119 4.4732 141.492 4.20328 141.701 4.1133C142.188 4.1133 142.466 3.84338 142.814 3.66343C143.301 3.57346 143.927 3.7534 144.484 3.3935C143.788 3.3935 143.232 3.48348 142.744 3.48348C142.675 3.3935 142.675 3.30353 142.605 3.21356C142.883 3.03361 143.44 3.03361 143.51 2.76369C143.44 2.76369 143.371 2.76369 143.301 2.76369C142.605 2.49377 141.84 2.67371 141.075 2.67371C140.24 2.67371 139.474 2.67371 138.639 2.67371C138.083 2.58373 137.526 2.58373 137.039 2.49377C136.97 2.49377 136.9 2.49377 136.831 2.49377C136.552 2.31381 135.508 2.49377 135.995 1.86394C134.813 1.23412 133.351 1.14414 131.89 1.05417C131.543 1.05417 131.194 1.05417 130.916 1.05417C129.594 0.964197 128.41 0.514325 127.089 0.784248C126.463 0.784248 125.906 0.424351 125.21 0.6043C124.793 0.6043 124.376 0.514325 124.097 0.694274C124.027 0.694274 123.958 0.694274 123.819 0.694274C123.332 0.424351 122.775 0.514325 122.219 0.514325C122.079 0.514325 121.87 0.514325 121.731 0.514325C120.618 0.244402 119.366 0.424351 118.183 0.244402C117.626 0.154428 117.139 0.154428 116.582 0.244402C115.956 0.244402 115.33 0.244402 114.703 0.244402C114.634 0.244402 114.564 0.244402 114.425 0.244402C113.799 0.244402 113.243 0.334376 112.616 0.334376C110.808 0.334376 108.998 0.244402 107.189 0.244402C107.119 0.244402 106.98 0.244402 106.911 0.244402C106.354 0.244402 105.798 0.244402 105.24 0.244402C105.171 0.334376 105.24 0.334376 105.31 0.424351H105.24C105.24 0.334376 105.24 0.334376 105.24 0.244402C105.101 0.244402 105.032 0.244402 104.893 0.244402C104.475 0.0644531 104.058 0.0644531 103.641 0.0644531C101.413 0.0644531 99.1175 0.0644531 96.891 0.0644531C96.7518 0.154428 96.7518 0.154428 96.891 0.244402C99.1175 0.244402 101.413 0.244402 103.641 0.244402C100.509 0.154428 97.3085 0.154428 94.1773 0.244402C94.1077 0.334376 94.1773 0.334376 94.2469 0.334376H94.1773C94.1773 0.424351 94.1773 0.424351 94.1773 0.514325C94.2469 0.424351 94.2469 0.424351 94.1773 0.334376V0.244402C93.899 0.244402 93.6206 0.244402 93.3424 0.244402C92.1595 0.244402 90.907 0.154428 89.7242 0.334376C89.6546 0.334376 89.6546 0.334376 89.6546 0.334376C89.585 0.334376 89.5154 0.334376 89.4458 0.334376C88.8892 0.244402 88.4021 0.244402 87.8455 0.334376C84.9927 0.334376 82.1399 0.244402 79.2871 0.514325C78.4521 0.514325 77.5475 0.514325 76.7126 0.514325C76.5038 0.514325 76.3647 0.514325 76.156 0.514325C76.4343 0.424351 76.7126 0.334376 76.9909 0.334376C76.5734 0.244402 76.156 0.154428 75.8776 0.424351C75.321 0.424351 74.8339 0.424351 74.2773 0.424351C73.9294 0.424351 73.6511 0.424351 73.4423 0.6043C72.1899 0.6043 70.9374 0.424351 69.7545 0.694274C69.685 0.694274 69.685 0.694274 69.6154 0.694274C66.9713 0.694274 64.2577 0.694274 61.6136 0.784248C61.4049 0.784248 61.2657 0.784248 61.0569 0.784248C58.6217 0.784248 56.1863 0.784248 53.751 0.784248C52.1506 0.784248 50.6199 0.874223 49.1587 0.874223C48.95 0.874223 48.8108 0.874223 48.602 0.874223C47.7671 0.874223 47.0017 0.874223 46.1668 0.874223C45.1926 0.874223 44.1489 0.874223 43.1748 0.874223C42.7573 0.874223 42.2702 0.874223 41.8527 0.874223C41.2961 0.874223 40.7394 0.874223 40.2524 0.874223C40.0437 0.874223 39.9044 0.874223 39.6957 0.874223C38.9304 0.874223 38.1649 0.874223 37.3299 0.874223C36.4255 0.694275 35.5209 0.694274 34.5468 0.694274C33.851 0.694274 33.1551 0.694274 32.4593 0.6043C31.8331 0.514325 31.1374 0.514325 30.5111 0.6043C30.2328 0.6043 30.024 0.6043 29.7457 0.6043C28.4932 0.334376 27.2408 0.424351 25.9187 0.334376C25.223 0.0644531 24.388 0.244402 23.5531 0.154428C23.1356 0.0644531 22.7876 -0.0255212 22.7181 0.334376C22.231 0.694274 22.3006 1.23412 21.7439 1.59402C21.1177 1.95392 21.1177 2.40379 21.5352 2.76369C21.5352 2.85366 21.6048 2.85366 21.6743 2.85366C21.8831 3.21356 22.1614 3.3935 22.4398 3.66343C21.5352 3.66343 20.9786 4.02333 20.4219 4.29325C20.2131 4.38323 20.0044 4.4732 19.9349 4.65315C19.7261 4.65315 19.5174 4.74313 19.4478 4.83309C19.0303 4.92307 18.3345 4.65315 18.1257 5.10302H18.0562C17.6387 5.10302 17.2213 5.10302 16.8037 5.10302C16.3862 4.92307 16.0383 4.92307 15.4121 4.92307C15.8992 5.193 16.3167 5.28297 16.8037 5.28297C16.9429 5.37294 17.082 5.37294 17.2212 5.46292C17.1516 5.91279 17.082 6.27269 17.0124 6.72257C17.082 6.72257 17.1516 6.81253 17.2212 6.81253H17.1516C17.0124 6.81253 16.9429 6.81253 16.8037 6.81253C16.5254 6.81253 16.2471 6.81253 16.0383 6.81253C15.6905 6.90251 15.3425 6.90251 14.925 6.99249C13.8118 7.17243 12.5594 7.26241 11.6548 7.80226C10.8893 7.89222 10.4023 8.3421 9.63692 8.52205C10.1936 8.70199 10.4719 8.43207 10.8893 8.43207C10.9589 8.52205 11.0981 8.52205 11.1677 8.61203C10.9589 8.79197 10.7502 8.88195 10.6111 9.06189C9.77609 9.15187 9.42818 9.51177 8.94111 9.87166C8.66279 9.96164 8.38448 10.1416 8.45405 10.3215C8.6628 10.9514 7.34077 11.1313 7.27118 11.7611C7.61909 11.5812 7.89741 11.4912 8.17573 11.4012C8.17573 11.4912 8.17573 11.4912 8.17573 11.5812C7.96699 11.7611 7.82783 11.9411 7.61909 12.0311C7.89741 12.301 7.75825 12.5709 7.34077 12.8408C7.06244 12.9308 6.78412 13.1107 6.57538 13.2007C6.36664 13.2007 6.1579 13.2007 6.01873 13.3807C4.83586 13.7405 4.83586 13.8305 6.1579 14.2804C6.1579 14.3704 6.22748 14.4603 6.22748 14.5503C5.18377 14.5503 4.27922 14.8203 3.37467 15.0901C2.8876 15.2701 3.09635 15.3601 3.51383 15.3601C3.30509 15.8099 2.60929 15.8099 2.12223 15.9899C1.8439 16.1699 1.56558 16.2599 1.21767 16.4398C1.70473 16.4398 2.12223 16.4398 2.53971 16.5297C2.74845 16.7097 2.67886 16.7997 2.26138 16.7997C1.70473 16.7997 1.21767 16.7997 0.521868 16.7997C1.70473 17.3395 2.81803 16.8897 3.86173 16.9797C4.41838 17.2495 4.90544 17.6095 5.74042 17.4295C6.22748 17.5195 6.71454 17.5195 7.20161 17.4295C7.20161 17.6095 7.41035 17.7894 7.47992 17.9693C7.54951 18.0593 7.75825 18.1493 7.89741 18.2393C8.24531 18.4193 8.59322 18.5092 8.94111 18.6891C8.73237 18.7791 8.59322 18.8691 8.38448 19.0491C7.96699 19.0491 7.54951 19.1391 7.20161 19.4089C6.8537 19.5889 6.43622 19.7689 6.50579 20.0388V20.1287V20.2187C5.94916 20.2187 5.32292 20.2187 5.18377 20.6686C5.25335 20.7586 5.32292 20.9385 5.39251 21.0285C4.97503 21.0285 4.55754 20.8485 4.27922 21.2084C4.0009 21.5683 3.65299 21.8383 3.30509 22.1082C2.95719 22.3781 2.53971 22.4681 2.1918 22.648C2.1918 23.0979 1.91347 23.4578 1.35683 23.7277C1.07851 23.7277 0.661029 23.6378 0.452287 23.8177C0.313126 23.9976 0.661029 23.9976 0.800191 23.9976C1.21767 24.0876 1.70473 24.0876 2.12223 24.1776C2.12223 24.3576 2.12223 24.5375 2.12223 24.6274C2.12223 24.8074 2.05264 24.8974 1.91347 24.9874C1.91347 25.0774 1.91347 25.0774 1.91347 25.1674C1.63516 25.2573 1.35683 24.9874 1.00893 25.1674C1.14809 25.3472 1.42641 25.4372 1.63516 25.5272C1.8439 25.7072 2.12223 25.8872 2.47012 25.977C2.33097 26.337 3.23551 26.427 3.02677 26.7868C2.60929 26.6968 2.53971 26.427 1.98306 26.427C2.12223 26.6968 2.40054 26.7868 2.74845 26.9668C2.95719 27.0568 3.02677 27.2368 3.44425 27.2368C3.37467 27.1468 3.37467 27.0568 3.30509 26.8768C3.65299 26.8768 4.0009 26.8768 4.3488 26.8768C4.62712 27.0568 4.90544 27.1468 5.18377 27.2368C5.18377 27.3267 5.25335 27.3267 5.32292 27.4166C5.11418 27.5066 4.83586 27.5066 4.62712 27.5966C4.0009 27.6866 4.62712 27.9566 4.41838 28.0465C3.93132 28.0465 3.65299 28.3164 3.30509 28.4964C2.74845 28.5864 2.1918 28.4064 1.56558 28.6763C2.26138 28.6763 2.81803 28.5864 3.30509 28.5864C3.37467 28.7663 3.37467 28.8562 3.44425 28.9462C3.58342 29.0362 3.65299 29.0362 3.79216 29.1262C3.79216 28.9462 3.72258 28.8562 3.44425 28.9462C3.23551 29.1262 2.60929 29.1262 2.53971 29.3961C2.60929 29.3961 2.67886 29.3961 2.74845 29.3961C3.44425 29.666 4.20964 29.4861 4.97503 29.4861C5.80999 29.4861 6.57538 29.4861 7.41035 29.4861C7.89741 29.666 8.45405 29.666 9.0107 29.756C9.08028 29.756 9.14985 29.756 9.21944 29.756C9.49776 30.026 10.5415 29.846 10.0544 30.3858C11.2373 31.0156 12.6985 31.1056 14.1597 31.1956C14.5075 31.1956 14.8555 31.1956 15.1338 31.1956C16.4558 31.2856 17.6387 31.7354 18.9607 31.4655C19.5869 31.4655 20.1436 31.8254 20.8394 31.6455C21.2568 31.6455 21.6743 31.7354 21.9527 31.5555C22.0223 31.5555 22.0918 31.5555 22.231 31.5555C22.7181 31.8254 23.2747 31.8254 23.8313 31.7354C23.9706 31.7354 24.1793 31.7354 24.3184 31.7354C25.4317 32.0054 26.6842 31.8254 27.867 32.0054C28.4237 32.0953 28.9107 32.0953 29.4674 32.0054C30.0936 32.0054 30.7199 32.0054 31.3461 32.0054C31.4156 32.0054 31.5548 32.0054 31.6243 32.0054C32.2506 32.0054 32.8073 31.9154 33.4335 31.9154C35.2425 31.9154 37.0517 32.0054 38.8607 32.0054C38.9304 32.0054 39.0695 32.0054 39.1391 32.0054C39.6957 32.0054 40.2524 32.0054 40.809 32.0054C40.8786 31.9154 40.809 31.9154 40.7394 31.8254H40.809C40.809 31.9154 40.809 31.9154 40.809 32.0054C40.9481 32.0054 41.0178 32.0054 41.1569 32.0054C41.5049 32.0953 41.9223 32.0953 42.4093 32.0953C44.636 32.0953 46.9321 32.0953 49.1587 32.0953C49.2979 32.0054 49.2979 32.0054 49.1587 31.9154C46.9321 31.9154 44.636 31.9154 42.4093 31.9154C45.5405 32.0054 48.7412 32.0054 51.8724 31.9154C51.9419 31.8254 51.8724 31.8254 51.8027 31.8254H51.8724C51.8724 31.7354 51.8724 31.7354 51.8724 31.6455C51.8027 31.7354 51.8027 31.7354 51.8724 31.8254V31.9154C52.1506 31.9154 52.429 31.9154 52.7073 31.9154C53.8902 31.9154 55.1426 32.0054 56.3255 31.8254H56.395C56.4647 31.8254 56.5343 31.8254 56.6038 31.8254C57.1605 31.9154 57.6475 31.9154 58.2042 31.8254C61.0569 31.8254 63.9098 31.9154 66.7625 31.6455C67.5975 31.6455 68.5021 31.6455 69.337 31.6455C69.5458 31.6455 69.685 31.6455 69.8937 31.6455C69.6154 31.7354 69.337 31.8254 69.0588 31.9154C69.4763 32.0054 69.8938 32.0953 70.172 31.8254C70.7287 31.8254 71.2157 31.8254 71.7724 31.8254C71.8419 31.7354 71.8419 31.7354 71.7724 31.6455C71.7724 31.7354 71.7724 31.7354 71.7724 31.8254C72.1203 31.8254 72.3986 31.8254 72.6074 31.6455C73.8598 31.5555 75.1819 31.8254 76.4343 31.5555C79.0783 31.5555 81.7919 31.5555 84.4361 31.4655C84.6448 31.4655 84.7839 31.4655 84.9927 31.4655C87.428 31.4655 89.8633 31.4655 92.2987 31.4655C93.8294 31.3756 95.2907 31.3756 96.8214 31.2856C97.0301 31.2856 97.1693 31.2856 97.3781 31.2856C98.213 31.2856 98.9784 31.2856 99.8133 31.2856C100.788 31.2856 101.831 31.2856 102.806 31.2856C103.223 31.2856 103.71 31.2856 104.127 31.2856C104.684 31.2856 105.171 31.2856 105.728 31.2856C105.937 31.2856 106.076 31.2856 106.284 31.2856C107.05 31.2856 107.815 31.2856 108.65 31.2856C108.65 31.2856 108.65 31.2856 108.72 31.2856C109.624 31.4655 110.529 31.4655 111.433 31.3756C112.129 31.3756 112.824 31.3756 113.521 31.4655C114.147 31.6455 114.842 31.5555 115.469 31.5555C115.747 31.5555 115.956 31.5555 116.235 31.5555C117.487 31.8254 118.739 31.6455 119.991 31.7354C120.757 32.0054 121.592 31.8254 122.358 31.9154C122.775 32.0953 123.122 32.1853 123.262 31.7354C123.749 31.3756 123.68 30.8357 124.236 30.4758C124.793 30.1159 124.793 29.756 124.445 29.3062C124.445 29.2162 124.376 29.2162 124.306 29.2162C124.027 28.9462 123.749 28.6763 123.541 28.4064C124.445 28.4964 124.932 28.1364 125.489 27.7766C125.767 27.6866 125.906 27.5966 125.976 27.4166C126.184 27.4166 126.394 27.3267 126.463 27.2368C126.88 27.1468 127.576 27.4166 127.785 26.9668H127.854C128.271 26.9668 128.69 26.9668 129.107 26.9668C129.525 27.1468 129.872 27.1468 130.499 27.1468C130.011 26.8768 129.594 26.7868 129.107 26.7868C128.968 26.6968 128.759 26.6968 128.62 26.607C128.69 26.157 128.759 25.7972 128.829 25.3472C128.759 25.2573 128.69 25.2573 128.62 25.2573H128.69C128.829 25.2573 128.898 25.2573 129.037 25.2573C129.315 25.2573 129.594 25.2573 129.803 25.2573C130.15 25.1674 130.499 25.1674 130.916 25.0774C132.029 24.8974 133.281 24.8074 134.186 24.2676C134.952 24.1776 135.438 23.7277 136.204 23.5478C135.647 23.3678 135.369 23.6378 134.952 23.6378C134.882 23.5478 134.743 23.5478 134.674 23.4578C134.882 23.2778 135.091 23.1879 135.23 23.0079C135.995 22.918 136.413 22.5581 136.9 22.1982C137.178 22.1082 137.387 21.9282 137.387 21.7483C137.248 21.1185 138.5 20.9385 138.569 20.3087C138.222 20.4887 137.944 20.5786 137.665 20.6686C137.665 20.5786 137.665 20.5786 137.665 20.4887C137.874 20.3087 138.013 20.2187 138.222 20.0388C137.944 19.7689 138.083 19.4989 138.5 19.229C138.779 19.1391 139.057 18.9591 139.266 18.8691C139.474 18.8691 139.683 18.8691 139.823 18.6891C141.005 18.2393 141.005 18.2393 139.613 17.6995C139.613 17.6095 139.544 17.5195 139.544 17.4295C140.587 17.4295 141.492 17.1596 142.397 16.8897C142.883 16.7097 142.675 16.6197 142.258 16.6197C142.466 16.1699 143.162 16.1699 143.649 15.9899C143.927 15.8099 144.276 15.72 144.623 15.5401C144.137 15.5401 143.718 15.5401 143.301 15.4501C143.301 15.4501 143.371 15.3601 143.788 15.3601ZM3.86173 29.3062C3.79216 29.3062 3.79216 29.3062 3.72258 29.3062C3.72258 29.3062 3.79216 29.3062 3.86173 29.3062ZM54.0294 1.14414H53.9598C54.0294 1.14414 54.0294 1.14414 54.0294 1.14414ZM23.066 5.193C23.066 5.28297 23.1356 5.28297 23.066 5.193V5.193ZM54.4469 17.7894C54.3772 17.7894 54.3772 17.7894 54.4469 17.7894V17.7894ZM115.399 27.9566C115.469 27.9566 115.538 27.9566 115.608 28.0465C115.538 28.0465 115.469 28.0465 115.399 27.9566ZM41.5744 2.94363C41.644 2.94363 41.7136 2.94363 41.7831 2.94363H41.7136C41.644 2.94363 41.5744 2.94363 41.5744 2.94363ZM43.0356 2.76369C42.966 2.67371 43.1748 2.76369 43.0356 2.76369V2.76369ZM31.9723 2.85366C31.9027 2.85366 31.8331 2.85366 31.8331 2.85366C31.9027 2.85366 31.9723 2.85366 31.9723 2.85366ZM10.3327 14.9103C10.2631 14.9103 10.2631 14.9103 10.1936 14.9103C10.1936 14.9103 10.1936 14.9103 10.2631 14.9103C10.2631 14.9103 10.2631 14.9103 10.3327 14.9103ZM104.405 29.3062C104.336 29.3062 104.266 29.3062 104.197 29.3062H104.266C104.336 29.3062 104.405 29.2162 104.405 29.3062ZM102.945 29.3961C102.806 29.3961 103.014 29.576 102.945 29.3961V29.3961ZM114.008 29.3062C114.078 29.3062 114.078 29.3062 114.147 29.3062C114.078 29.3062 114.078 29.3961 114.008 29.3062ZM135.717 17.2495C135.787 17.2495 135.787 17.2495 135.856 17.2495C135.856 17.2495 135.856 17.2495 135.787 17.2495C135.717 17.2495 135.717 17.2495 135.717 17.2495ZM137.387 7.9822C137.317 7.9822 137.317 7.9822 137.387 7.9822V7.9822ZM8.73237 14.6403C8.73237 14.5503 8.73237 14.5503 8.73237 14.6403V14.6403ZM8.59322 24.1776C8.66279 24.1776 8.66279 24.2676 8.59322 24.1776C8.66279 24.2676 8.66279 24.2676 8.59322 24.1776C8.66279 24.2676 8.59322 24.2676 8.59322 24.1776ZM134.047 19.1391C134.117 19.1391 134.117 19.1391 134.047 19.1391C134.117 19.229 134.117 19.229 134.047 19.1391C134.117 19.229 134.047 19.229 134.047 19.1391ZM35.66 2.13387C35.7296 2.04389 35.7296 2.04389 35.7993 2.04389C35.7296 2.13387 35.66 2.13387 35.66 2.13387ZM110.389 30.026C110.32 30.1159 110.32 30.1159 110.25 30.1159C110.25 30.026 110.32 30.026 110.389 30.026ZM134.186 12.5709H134.117C134.117 12.4809 134.117 12.4809 134.186 12.5709ZM121.384 1.59402C121.245 1.50404 121.105 1.59402 121.035 1.59402C121.105 1.59402 121.245 1.59402 121.384 1.59402ZM29.1891 2.04389C29.1195 2.13387 29.1891 2.13387 29.1891 2.04389C29.1195 2.04389 29.1195 2.13387 29.1891 2.04389ZM11.7939 19.6789H11.8635C11.933 19.6789 11.8635 19.6789 11.7939 19.6789C11.8635 19.6789 11.8635 19.6789 11.7939 19.6789ZM24.5968 30.5658C24.7359 30.6558 24.875 30.5658 24.9447 30.5658C24.875 30.5658 24.8055 30.5658 24.5968 30.5658ZM30.3719 31.1056C30.3024 31.0156 30.2328 31.0156 30.0936 31.0156C30.2328 31.0156 30.3024 31.1056 30.3719 31.1056ZM134.534 14.0105H134.603C134.603 14.0105 134.603 14.0105 134.534 14.0105ZM102.806 1.05417C102.806 0.964197 102.806 0.964197 102.806 1.05417C102.875 1.05417 102.945 1.05417 102.945 1.05417C102.875 1.05417 102.806 1.05417 102.806 1.05417ZM22.0918 6.36266C22.0223 6.36266 21.8831 6.36266 21.8135 6.36266C21.9527 6.36266 22.0223 6.36266 22.0918 6.36266ZM43.2444 31.1956C43.1748 31.1956 43.1748 31.1956 43.2444 31.1956V31.1956ZM80.8179 0.874223C80.8875 0.874223 80.8875 0.874223 80.8179 0.874223V0.874223ZM9.49776 13.2907C9.49776 13.3807 9.49776 13.3807 9.49776 13.2907V13.2907ZM93.2728 30.7457C93.2728 30.6558 93.2728 30.6558 93.2728 30.7457H93.3424C93.3424 30.7457 93.3424 30.6558 93.2728 30.7457ZM111.364 31.2856C111.433 31.2856 111.433 31.2856 111.364 31.2856C111.364 31.3756 111.433 31.3756 111.364 31.2856ZM142.119 15.2701V15.3601C142.119 15.3601 142.119 15.3601 142.119 15.2701V15.3601C142.049 15.2701 142.049 15.2701 142.119 15.2701C142.049 15.2701 142.049 15.2701 142.119 15.2701ZM140.518 2.94363C140.448 2.85366 140.448 2.85366 140.518 2.94363V2.94363ZM70.172 1.05417C70.172 0.964197 70.172 0.964197 70.172 0.874223C70.1025 0.874223 70.1025 0.964197 70.172 1.05417ZM65.5101 0.874223C65.5797 0.874223 65.5797 0.874223 65.5101 0.874223V0.874223ZM52.2898 1.05417H52.2202H52.1506C52.1506 1.05417 52.2202 1.05417 52.2898 1.05417ZM51.4549 1.05417C51.5244 0.964197 51.5244 0.964197 51.594 0.964197C51.5244 1.05417 51.4549 1.05417 51.4549 1.05417ZM28.9107 0.6043C28.8412 0.6043 28.8412 0.6043 28.8412 0.6043C28.9107 0.6043 28.9107 0.6043 28.9107 0.6043ZM3.93132 16.9797V16.8897C3.93132 16.8897 3.93132 16.8897 3.93132 16.9797V16.8897C3.93132 16.8897 4.0009 16.8897 3.93132 16.9797ZM5.46209 29.3062C5.53167 29.3062 5.53167 29.3062 5.46209 29.3062V29.3062ZM75.8776 31.3756C75.9472 31.2856 75.8776 31.2856 75.8776 31.1956C75.8776 31.1956 75.8776 31.2856 75.8776 31.3756ZM80.47 31.2856C80.47 31.3756 80.47 31.3756 80.47 31.2856V31.2856ZM93.899 31.1956C93.8294 31.1956 93.8294 31.1956 93.7599 31.1956H93.8294H93.899C94.1077 31.1956 94.2469 31.1956 94.4556 31.1956C94.4556 31.1956 94.5252 31.1956 94.5948 31.1056C94.5948 31.1056 94.5252 31.1056 94.5252 31.1956H94.4556C94.2469 31.1056 94.1077 31.1056 93.899 31.1956ZM117.07 31.5555C117.139 31.5555 117.139 31.5555 117.139 31.5555H117.07Z" fill="#FBB03B"/>
</g>
</g>
<defs>
<clipPath id="clip0_1_717">
<rect width="145.14" height="32" fill="white" transform="translate(0.420044 0.0800781)"/>
</clipPath>
<clipPath id="clip1_1_717">
<rect width="145.14" height="32.0309" fill="white" transform="translate(0.420044 0.0644531)"/>
</clipPath>
</defs>
</svg>
