<svg width="9" height="12" viewBox="0 0 9 12" fill="none" xmlns="http://www.w3.org/2000/svg">
<path d="M0.576782 4.50977C0.576782 4.29102 0.595011 4.07454 0.63147 3.86035C0.667928 3.64616 0.727173 3.4388 0.809204 3.23828C0.891235 3.02865 0.986938 2.83724 1.09631 2.66406C1.20569 2.49089 1.32874 2.33138 1.46545 2.18555C1.60217 2.03971 1.74801 1.90072 1.90295 1.76855C2.0579 1.63639 2.22196 1.52018 2.39514 1.41992L2.42249 1.40625C2.58655 1.30599 2.76428 1.21484 2.95569 1.13281C3.14709 1.05078 3.34762 0.982422 3.55725 0.927734L3.58459 0.914062C3.776 0.859375 3.9788 0.818359 4.19299 0.791016C4.40719 0.763672 4.62821 0.75 4.85608 0.75C5.19332 0.75 5.51689 0.78418 5.82678 0.852539C6.13668 0.920898 6.4329 1.028 6.71545 1.17383C7.00712 1.31055 7.26917 1.48145 7.50159 1.68652C7.73401 1.8916 7.93681 2.12175 8.10999 2.37695V2.39062C8.29228 2.65495 8.42672 2.93978 8.51331 3.24512C8.59989 3.55046 8.64319 3.87174 8.64319 4.20898C8.64319 4.40951 8.63407 4.60775 8.61584 4.80371C8.59762 4.99967 8.57027 5.19336 8.53381 5.38477C8.48824 5.5944 8.43355 5.79492 8.36975 5.98633C8.30595 6.17773 8.22848 6.36003 8.13733 6.5332L8.151 6.50586C8.06897 6.68815 7.97327 6.85677 7.86389 7.01172C7.75452 7.16667 7.64058 7.3125 7.52209 7.44922C7.39449 7.58594 7.25549 7.70898 7.1051 7.81836C6.95471 7.92773 6.79293 8.01888 6.61975 8.0918H6.60608C6.4329 8.17383 6.24833 8.23535 6.05237 8.27637C5.8564 8.31738 5.6536 8.33789 5.44397 8.33789C5.43485 8.33789 5.42802 8.33789 5.42346 8.33789C5.4189 8.33789 5.41663 8.33789 5.41663 8.33789C5.27079 8.33789 5.12724 8.32194 4.98596 8.29004C4.84469 8.25814 4.70569 8.20573 4.56897 8.13281C4.42314 8.06901 4.30009 7.99154 4.19983 7.90039C4.09957 7.80924 4.01754 7.70443 3.95374 7.58594C3.93551 7.66797 3.91044 7.76823 3.87854 7.88672C3.84664 8.00521 3.81246 8.14193 3.776 8.29688C3.73954 8.45182 3.70992 8.57943 3.68713 8.67969C3.66435 8.77995 3.64384 8.85286 3.62561 8.89844C3.6165 8.94401 3.60055 9.00326 3.57776 9.07617C3.55497 9.14909 3.52991 9.23568 3.50256 9.33594C3.47522 9.42708 3.44788 9.51139 3.42053 9.58887C3.39319 9.66634 3.36129 9.74154 3.32483 9.81445L3.3385 9.78711L3.13342 10.1836C3.08785 10.2747 3.04 10.3613 2.98987 10.4434C2.93974 10.5254 2.88733 10.6074 2.83264 10.6895L2.84631 10.6758C2.79163 10.7487 2.73238 10.8307 2.66858 10.9219C2.60478 11.013 2.53186 11.1133 2.44983 11.2227L2.3678 11.25L2.31311 11.1816C2.27665 10.8535 2.25159 10.5915 2.23792 10.3955C2.22424 10.1995 2.21741 10.0651 2.21741 9.99219C2.21741 9.80078 2.2288 9.59798 2.25159 9.38379C2.27437 9.1696 2.30855 8.93945 2.35413 8.69336C2.3997 8.45638 2.45667 8.18522 2.52502 7.87988C2.59338 7.57454 2.67769 7.24414 2.77795 6.88867C2.8691 6.52409 2.94202 6.2347 2.9967 6.02051C3.05139 5.80631 3.08785 5.66732 3.10608 5.60352C3.03316 5.4668 2.98075 5.30957 2.94885 5.13184C2.91695 4.9541 2.901 4.75586 2.901 4.53711C2.901 4.36393 2.92834 4.19531 2.98303 4.03125C3.03772 3.86719 3.11975 3.70768 3.22913 3.55273C3.3385 3.39779 3.46155 3.28158 3.59827 3.2041C3.73499 3.12663 3.88993 3.08789 4.06311 3.08789C4.19071 3.08789 4.30465 3.11068 4.40491 3.15625C4.50517 3.20182 4.59176 3.26562 4.66467 3.34766C4.72848 3.42969 4.7786 3.52539 4.81506 3.63477C4.85152 3.74414 4.86975 3.86263 4.86975 3.99023C4.86975 4.12695 4.84696 4.29785 4.80139 4.50293C4.75582 4.70801 4.68746 4.93815 4.59631 5.19336C4.50517 5.45768 4.43681 5.68783 4.39124 5.88379C4.34566 6.07975 4.32288 6.24609 4.32288 6.38281C4.32288 6.51042 4.34566 6.62891 4.39124 6.73828C4.43681 6.84766 4.50517 6.94792 4.59631 7.03906C4.68746 7.12109 4.79 7.1849 4.90393 7.23047C5.01786 7.27604 5.13863 7.29883 5.26624 7.29883C5.27535 7.29883 5.27991 7.29883 5.27991 7.29883C5.27991 7.29883 5.28446 7.29883 5.29358 7.29883C5.40295 7.29883 5.51233 7.28516 5.6217 7.25781C5.73108 7.23047 5.8359 7.18945 5.93616 7.13477C6.03642 7.08919 6.12756 7.02995 6.20959 6.95703C6.29163 6.88411 6.36454 6.80208 6.42834 6.71094C6.56506 6.52865 6.68355 6.3304 6.78381 6.11621C6.88407 5.90202 6.96155 5.67643 7.01624 5.43945V5.41211C7.04358 5.29362 7.06864 5.17513 7.09143 5.05664C7.11422 4.93815 7.13473 4.82422 7.15295 4.71484C7.16207 4.60547 7.17118 4.49837 7.1803 4.39355C7.18941 4.28874 7.19397 4.1862 7.19397 4.08594C7.19397 3.72135 7.13473 3.39779 7.01624 3.11523C6.89775 2.83268 6.72457 2.59115 6.4967 2.39062C6.26884 2.18099 6.00452 2.02604 5.70374 1.92578C5.40295 1.82552 5.06571 1.77539 4.69202 1.77539C4.27275 1.77539 3.88765 1.84375 3.53674 1.98047C3.18583 2.11719 2.8691 2.32227 2.58655 2.5957C2.304 2.86914 2.09208 3.17904 1.95081 3.52539C1.80953 3.87174 1.73889 4.25456 1.73889 4.67383C1.73889 4.76497 1.74573 4.85384 1.7594 4.94043C1.77307 5.02702 1.79358 5.11589 1.82092 5.20703C1.84827 5.28906 1.87561 5.36426 1.90295 5.43262C1.9303 5.50098 1.9622 5.5625 1.99866 5.61719C2.026 5.66276 2.05334 5.71061 2.08069 5.76074C2.10803 5.81087 2.13538 5.85872 2.16272 5.9043C2.19006 5.94987 2.21057 5.98861 2.22424 6.02051C2.23792 6.05241 2.24475 6.07747 2.24475 6.0957C2.24475 6.15039 2.23792 6.21647 2.22424 6.29395C2.21057 6.37142 2.18551 6.46029 2.14905 6.56055C2.1217 6.65169 2.08752 6.72005 2.04651 6.76562C2.00549 6.8112 1.9622 6.83398 1.91663 6.83398C1.91663 6.83398 1.90751 6.83398 1.88928 6.83398C1.87105 6.83398 1.84371 6.82943 1.80725 6.82031C1.69788 6.78385 1.59534 6.736 1.49963 6.67676C1.40393 6.61751 1.31506 6.54688 1.23303 6.46484C1.16012 6.38281 1.08948 6.29167 1.02112 6.19141C0.952759 6.09115 0.90035 5.98633 0.863892 5.87695H0.85022C0.813761 5.77669 0.777303 5.67188 0.740845 5.5625C0.704386 5.45312 0.677043 5.33919 0.658813 5.2207L0.645142 5.19336C0.626912 5.0931 0.610962 4.986 0.59729 4.87207C0.583618 4.75814 0.576782 4.64648 0.576782 4.53711C0.576782 4.52799 0.576782 4.52344 0.576782 4.52344C0.576782 4.52344 0.576782 4.51888 0.576782 4.50977Z" fill="white"/>
</svg>
