<svg width="716" height="992" viewBox="0 0 716 992" fill="none" xmlns="http://www.w3.org/2000/svg">
<path d="M715.622 561.94L677.684 537.121L648.953 535.772L644.165 538.402V527.982L622.38 518.81L614.961 525.352V517.057L603.664 510.11L604.979 500.936L599.718 496.586L594.93 478.747L540.029 454.298L536.117 445.194L521.752 438.213L521.347 433.457L507.925 423.408L495.179 422.733L493.223 426.646L453.025 408.705L440.953 423.071L441.594 433.559L436.03 427.624L439.974 422.094V414.27L444.864 410.998L442.909 406.749L415.459 418.485L409.591 432.243L366.123 437.774L349.801 420.474L356.006 383.548L346.193 376.332H315.808L335.401 329.322L309.266 332.257L303.736 348.612L275.948 356.098L269.103 350.872L268.8 352.187L256.018 323.118L267.147 278.671L302.117 255.807L315.505 257.764L318.743 261.035L326.936 259.686L335.097 251.525L355.668 250.884L361.874 257.764L371.012 254.189L378.869 262.653L376.576 273.445L385.412 294.386L389.661 296.005L391.617 249.603L448.135 199.962L447.461 187.52L452.722 186.575L457.916 175.447L463.142 176.088L473.293 163.34L500.743 155.517L504.014 151.943L500.102 148.671L508.263 136.565L549.775 121.862L536.995 130.023L539.625 136.228L573.921 124.493L577.529 118.928L586.668 117.275L584.711 113.364L585.386 108.137L572.268 118.591L559.555 117.984L553.687 109.115L564.445 91.1742L555.643 88.5438L523.606 102.91L540.266 89.5555L547.144 88.5438L555.002 81.3609L622.279 69.5918L623.628 71.2442L594.828 101.932L619.682 102.572L621.301 107.159L626.865 103.247L629.799 110.733L639.612 103.247L636.678 94.7488L639.309 86.8915L627.843 87.2286L626.527 70.5697L634.385 60.7227L629.158 44.0976L610.846 30.7097L614.455 22.2116L609.566 -3.61983L582.116 14.388L574.898 8.14935L575.573 -0.0115204L581.778 -5.91296L571.627 -9.15031L570.986 -11.7807L561.207 -20.2788L558.24 -17.3111L536.691 -19.3008L514.299 13.3763L520.673 18.6033L515.749 30.3387L487.995 42.4451L482.769 64.0275L469.718 72.8291L463.918 58.8006L470.662 60.082L471.673 55.4958L466.447 55.833L473.629 40.1857L456.634 38.8705L452.756 34.2843L444.223 32.9691L443.55 29.3608L430.464 22.5152L422.641 23.4931L424.261 10.1052L416.436 8.8238L509.207 -45.4358L510.522 -44.7613L490.93 -29.114L497.809 -28.1361L496.797 -24.1906L511.837 -31.7106L520.37 -26.8209L528.53 -27.1581L528.193 -33.3631L512.478 -45.4358L511.196 -48.7068L516.727 -48.0324L521.347 -44.1206L545.83 -57.2049L545.189 -61.454L552.709 -68.6369L547.786 -73.8302L588.287 -66.9844L585.049 -64.0506L571.627 -62.3982L568.357 -55.8897L578.17 -54.5745L585.69 -62.3982L593.851 -63.0726L595.166 -55.249L577.832 -46.7509L577.529 -40.8495L555.305 -41.1868L548.427 -35.6225L553.991 -30.7327L576.518 -30.0583L581.137 -21.2229L606.631 -18.2892L599.718 -26.4837L617.051 -18.2892L619.648 -25.5057L625.55 -29.0804L616.41 -41.1868L616.714 -46.0765L636.644 -37.9156L639.612 -42.8054L655.934 -49.3476L639.275 -61.7911L634.688 -60.4759L630.473 -65.3658L637.016 -75.4825L631.755 -80.7095L623.594 -82.3619L621.604 -86.611L584.375 -99.9988L581.103 -99.0209L576.888 -102.292L551.056 -91.1635L551.394 -102.292L522.291 -85.633L522.629 -77.7756L537.972 -75.179L509.24 -54.2711L507.925 -59.498L514.468 -63.4098L504.655 -70.2556L503.036 -88.5668L537.669 -103.911L510.522 -102.933L478.857 -78.0791L478.182 -70.5927L465.806 -72.8859L452.756 -67.6589V-60.4759L395.866 -62.7354L395.225 -58.1828L356.983 -58.5201L368.752 -63.7471L323.666 -71.5707L322.385 -76.4604L311.897 -72.2114L308.962 -79.0908L160.651 -83.6771L161.292 -85.3969L161.596 -85.5993L75.7042 -64.0843L78.9415 -49.7185L66.1944 -48.4033L69.4654 -52.9559L36.1139 -43.817L36.7883 -40.2425L34.4952 -35.9935L53.7845 -34.0375L56.0776 -27.4954L3.774 -12.118L-2.73445 3.22585L8.69748 1.26994L2.15533 10.1052L19.1515 11.0832L-66.7735 47.3349L68.1166 0.629219L67.5096 7.17138L142.306 4.2038L148.848 14.0171L146.892 42.7824L158.661 41.4672L157.009 76.4374L147.871 74.4816L147.533 82.9459L159.336 94.715L115.53 164.319L119.779 213.992L137.113 228.998L144.936 267.88L138.428 272.466L145.915 282.887L148.882 283.258L154.783 290.103L152.456 299.243L165.541 317.857L171.105 312.327L148.208 254.155L150.5 240.767L159.977 242.723L176.332 282.887L174.376 291.723L198.218 320.15L197.88 331.582L194.272 337.147L196.228 345.004L216.192 359.673L219.43 359.033L257.67 378.322L270.418 374.41L353.106 444.991L356.04 443.035L370.372 452.511L375.936 449.206L374.35 443.035L379.544 437.808H384.13L389.02 441.72L388.682 446.273L394.584 455.749L394.888 482.22L382.477 495.642L382.174 503.466L374.654 506.399L368.113 533.849L374.654 539.717L364.503 552.161L455.993 675.215L478.182 887.363L483.848 886.959L480.375 877.381L484.725 877.819L488.198 899.132L484.725 896.063L479.498 901.763L483.848 905.675L480.813 919.601L486.916 920.479L491.267 923.953L486.916 931.37L536.557 984.517L565.76 991.902L578.371 982.764L543.098 959.226L540.029 950.526L544.818 947.052L550.921 926.582L536.995 915.251L537.838 905.202L543.098 902.201L545.257 886.925L550.045 881.259L540.501 879.978L536.117 873.031V867.77L550.517 868.613L554.429 862.982L554.867 850.774L578.811 847.3L580.126 823.762L572.268 811.116L567.918 811.993L571.864 808.081L593.614 816.815L613.679 777.124H620.187L629.765 752.743L627.607 738.343L675.999 707.858L715.622 561.94Z" fill="url(#paint0_linear_1_2710)"/>
<defs>
<linearGradient id="paint0_linear_1_2710" x1="324.424" y1="-103.911" x2="324.424" y2="991.902" gradientUnits="userSpaceOnUse">
<stop stop-color="#63AB45"/>
<stop offset="1" stop-color="#63AB45" stop-opacity="0"/>
</linearGradient>
</defs>
</svg>
