<svg width="1066" height="817" viewBox="0 0 1066 817" fill="none" xmlns="http://www.w3.org/2000/svg">
<path d="M862.237 372.453L868.987 367.193L883.592 421.451L880.521 422.531L881.832 448.228L887.295 446.474L901.427 471.732L899.945 475.846L931.511 508.995L888.849 420.744L893.438 399.869L896.91 397.441L899.739 401.354L899.339 407.694L907.157 406.142L923.511 426.376L927.432 425.061L932.446 428.567L931.572 440.977L963.611 413.527L960.782 387.392L933.332 355.592L930.661 341.023L948.338 327.063L956.399 328.378L957.917 337.955L960.782 339.473L972.547 325.748L978.617 327.939L1006.27 314.214L1033.48 249.096L1023.46 252.368L1022.15 241.272L1024.31 236.719L996.694 210.349L1010.85 192.037L1015.65 192.477L998.685 186.406L987.589 191.195L986.909 186.169L974.271 180.943L974.501 176.356L993.853 160.237L998.248 163.947L995.614 170.016L997.168 178.987L1016.31 169.815L1023.73 172.209L1025.05 185.293L1040.5 193.353L1047.48 207.752L1045.52 213.619L1050.31 218.206L1062.72 213.418L1062.28 189.441L1038.51 172.276L1048.52 162.496L1047.65 153.998L1056.79 141.352L1063.73 146.175L1074.19 139.633L1080.29 91.0724L1058.94 54.2474L1038 47.5029L1034.09 54.0114L1024.31 39.0048L1021.24 44.4341L1009.92 41.1631L1024.95 7.40682L1077.66 5.04622L1079.21 9.1941L1102.04 6.76608L1094.41 -9.79166L1109.02 -14.7826L1121.43 -3.04716L1129.43 -12.0511L1124.97 -17.4129L1130.61 -19.4025L1136.91 -7.86949L1127.97 25.8868L1175.49 74.0425L1178.09 73.4018L1179.4 63.1501L1175.49 59.272L1182.23 56.6079L1175.7 48.346L1177.84 43.7934L1182.87 45.3109L1172.62 31.1474L1176.57 32.665L1158.26 15.9048L1153.87 16.5456L1151.48 11.7907L1152.8 8.08126L1148.25 1.77515L1158.4 -1.73198L1163.01 -0.450539L1165.4 3.0566L1169.99 -1.29361L1188.44 1.97749L1188.71 -4.16001L1199.43 -16.3676L1220.77 -18.2897L1195.32 -31.8125L1195.52 -35.5219L1199.9 -40.0745L1197.51 -43.784L1246.27 -32.9253L1245.63 -44.02L1090.54 -77.5739L1102.55 -67.5584L1033.92 -73.2237L1027.85 -79.7997L896.741 -93.491L906.489 -86.072L868.174 -89.7814L868.416 -80.845L806.766 -102.832L800.259 -96.5259L781.744 -97.1667L778.442 -100.64L754.064 -100.438L744.679 -107.216L737.734 -105.665L732.514 -99.9994L717.702 -98.9203L739.289 -111.566L734.505 -118.344L599.841 -108.295L606.421 -102.866L577.624 -100.708L597.049 -88.7361L566.758 -93.0863L563.929 -89.3768L567.669 -85.229L567.875 -81.9579L547.843 -97.8749L566.758 -66.3106L571.553 -69.5817L570.946 -66.9851L569.83 -66.5467L568.749 -50.1912L562.654 -48.8761L556.985 -50.832L563.529 -55.8229L564.403 -62.6011L544.577 -85.229L543.496 -95.4806L529.304 -100.708L524.545 -98.5493L521.51 -90.4896L522.384 -87.2186L516.277 -83.0707L535.641 -61.0837L478.338 -79.1589L473.761 -76.7646L484.651 -64.1187L414.636 -51.8774L409.852 -55.3171L415.279 -59.6673L409.172 -65.535L394.64 -65.5013L400.917 -53.3275L405.033 -51.4053L404.353 -47.6958L381.285 -41.592L384.321 -37.4779L380.618 -35.2859L368.441 -39.4337L362.54 -37.6802L364.701 -33.9707L372.119 -32.2171L354.076 -35.4883L344.498 -49.2133L385.668 -51.1693L387.635 -55.5531L386.312 -59.2626L319.882 -73.6285L324.266 -79.0915L227.987 -63.1744L237.126 -62.2976L209.474 -25.7088L189.206 -24.6296L180.506 -16.3339L180.91 11.5547L187.015 15.6688L214.667 7.20448L222.053 22.2109L221.176 32.665L211.16 35.2953L213.992 30.9452L210.722 24.1669L211.395 19.3783L201.178 22.2109L199.66 44.6702L201.413 47.5029L198.143 51.6508L173.087 57.5185L171.131 67.7701L139.128 88.6444L128.236 83.4173L130.394 95.1865L112.96 92.3538L108.609 97.8169L126.044 107.832L132.147 121.322L124.527 139.195L88.8151 137.002L87.2635 135.282H83.3518L80.0799 138.958L75.2917 139.195L74.0108 188.396L89.4889 193.657L92.7596 200.604L94.7154 201.918L95.3565 203.671L69.4241 230.009L63.9608 254.627L47.6389 270.105L38.9389 272.061L23.4608 292.767V300.152L6.46395 325.612L10.814 342.406L7.77879 345.441L5.82291 381.625L0.596375 385.74L0.799114 388.371L5.3846 392.046L8.01555 412.987L73.7741 477.229L111.24 470.721L117.31 473.553L161.116 459.39L169.412 462.628L178.55 478.308L198.615 476.791L207.518 485.087L199.897 522.788L233.888 587.232L230.415 592.02L268.522 790.241L265.284 798.74L271.354 812.7L278.301 816.612L332.561 806.597L373.734 762.792L377.643 740.164L397.044 725.123L396.595 685.465L439.961 650.664L434.061 551.52L522.08 411.234L470.689 423.847L461.984 414.707L463.308 408.165L383.143 272.668L392.078 271.791L455.683 373.094L448.022 366.113L446.505 370.733L465.699 404.49L477.901 402.096L480.062 397.273L550.647 366.113L552.602 358.728L559.547 358.29L561.501 353.299L568.251 349.15L569.089 338.259L574.115 339.776L575.669 336.066L573.909 333.706L581.533 322.611L581.739 318.665L553.646 294.689L553.209 285.989L523.598 306.019L519.446 304.3L518.815 293.609L513.582 286.865L509.636 294.487L490.041 259.18L505.933 254.627L535.739 284.471L546.835 283.796L552.942 279.21L559.012 282.246L559.886 289.462L629.586 296.409L655.725 316.709L658.553 316.474L651.609 319.543L666.178 335.021L675.113 329.558L675.55 323.252L678.415 323.455L717.205 441.956L724.38 444.99L731.324 435.21L736.35 434.334L741.146 437.369L748.321 462.425L754.865 456.557L757.706 446.507L740.709 429.343L741.62 432.378L740.709 433.491L735.719 431.535L740.976 378.389L795.633 325.242L796.082 328.512L816.782 320.924L817.183 318.295L833.548 344.025L838.332 343.351L836.814 350.567L846.393 360.346L845.713 376.027L854.649 379.096L862.237 372.453ZM223.637 42.6805L225.188 36.7791L239.756 40.9271L241.712 39.1735L238.678 37.4199L248.693 31.5521L252.403 23.0541L250.413 20.4237L253.481 12.6001L262.62 7.33934L264.576 -26.8553L297.22 -43.1769L298.097 -40.1419L276.11 -23.5841L279.583 -0.922653L283.258 1.67398L322.039 -2.67621L324.67 -0.720329L317.285 5.82185L291.15 7.77776L290.273 10.914L296.175 14.8258L296.613 22.8855L287.912 20.0527L277.425 32.2266L279.616 39.2071L236.283 49.6612L233.215 48.346L230.82 43.7934L216.454 49.2227V48.7844H216.42L223.637 42.6805ZM396.898 210.079L388.072 233.28L349.186 244.375L298.872 229.031L298.197 227.075L286.125 231.29L275.031 252.199L251.525 244.038L245.321 236.854L221.108 228.695L211.97 193.723L203.505 190.149L105.777 210.417L98.9319 204.853L100.55 200.974L131.574 188.227L134.171 181.381L138.758 179.391L137.138 173.827L146.581 159.124L159.969 152.582L161.925 141.151L171.738 138.216L182.866 141.825L199.526 130.393L207.045 132.011L250.817 174.806L241.679 185.596L225.02 184.955L241.376 195.106L246.265 191.836L247.884 185.968L257.697 179.122L257.36 176.828L260.327 174.502L255.708 166.678L261.642 164.082L267.814 167.69L268.826 163.745L249.536 153.628L248.895 150.357L224.716 124.863L230.921 116.702L276.311 162.092L275.031 166.981L295.938 195.41L303.323 196.186L305.448 188.867L311.956 183.978L302.143 171.264L303.458 165.025L310.338 168.297L317.15 162.092L335.157 194.769L350.198 200.636L358.359 196.388L379.27 201.311L388.072 197.062L396.898 210.079ZM429.544 152.582L422.369 159.765L381.225 149.615L354.447 158.754L331.245 147.962H334.854L334.214 139.161L337.451 137.171L339.744 127.695L343.69 126.076L344.667 121.187L353.165 111.677L367.87 116.263L362.637 121.153L375.385 129.955L377.34 126.683L389.76 122.738L380.618 118.489L385.51 110.969L404.79 106.416L392.686 121.153L393.329 125.064L429.544 152.582ZM504.343 196.658L484.748 179.357L488.997 174.772L489.981 167.285L491.935 166.948L467.751 140.172L469.706 133.967L463.842 132.652L462.531 127.426L490.284 107.832L499.73 112.082L499.39 123.85L492.882 122.536L508.216 156.494L518.074 156.832L508.896 161.384L507.912 165.632L516.751 174.165L521.983 194.061L504.343 196.658Z" fill="url(#paint0_linear_1_2694)"/>
<defs>
<linearGradient id="paint0_linear_1_2694" x1="623.43" y1="-118.344" x2="623.43" y2="816.612" gradientUnits="userSpaceOnUse">
<stop stop-color="#63AB45"/>
<stop offset="1" stop-color="#63AB45" stop-opacity="0"/>
</linearGradient>
</defs>
</svg>
