<svg width="409" height="204" viewBox="0 0 409 204" fill="none" xmlns="http://www.w3.org/2000/svg">
<g clip-path="url(#clip0_1_2772)">
<g clip-path="url(#clip1_1_2772)">
<g opacity="0.3">
<mask id="mask0_1_2772" style="mask-type:luminance" maskUnits="userSpaceOnUse" x="0" y="0" width="409" height="204">
<path d="M382.287 0.920197L0 85.0896L25.9722 203.052L408.259 118.883L382.287 0.920197Z" fill="white"/>
</mask>
<g mask="url(#mask0_1_2772)">
<path fill-rule="evenodd" clip-rule="evenodd" d="M346.568 29.8674C341.814 21.5818 327.218 30.1713 317.503 36.3872C317.459 36.3093 317.411 36.2294 317.331 36.1621C311.175 30.8677 303.994 26.2865 299.081 19.6772C298.934 19.4768 298.655 19.2861 298.391 19.399C298.105 19.5196 297.818 19.6402 297.536 19.7655C297.374 19.8366 297.294 20.0406 297.289 20.2034C297.276 20.5295 297.259 20.7113 297.273 20.848C297.05 20.8369 296.809 21.016 296.903 21.2719C298.318 25.1855 300.15 28.9304 302.03 32.6372C303.538 35.6014 305.147 39.3982 307.658 41.7387C305.656 42.3275 303.71 43.5806 301.913 44.5324C299.765 45.6685 297.721 46.9953 295.954 48.6775C295.698 48.923 295.809 49.4767 296.191 49.5322C297.773 49.7675 299.022 49.0077 300.461 48.3619C302.979 47.2349 305.519 46.1579 307.959 44.8643C307.84 47.4634 308.443 50.424 310.582 51.46C294.092 58.5925 276.796 63.3677 259.752 69.3343C259.635 69.3736 259.682 69.547 259.804 69.5201C281.996 64.6421 305.423 56.5414 325.377 45.49C326.005 45.1408 325.433 44.1761 324.803 44.526C320.422 46.9508 315.956 49.1069 311.43 51.0926C310.661 49.8891 309.679 49.0505 309.165 47.621C308.581 45.9933 308.693 44.1274 308.87 42.4115C309.14 42.3384 309.348 42.109 309.224 41.7665C308.099 38.7208 305.786 35.9942 304.131 33.1911C301.868 29.3548 299.94 25.3324 297.786 21.4364C298.449 19.7862 299.578 22.316 300.353 23.1757C302.125 25.1418 304.078 26.953 306.016 28.754C309.173 31.692 312.373 34.9358 315.943 37.3909C313.331 39.0785 311.18 40.4865 309.845 41.1613C309.82 41.1722 309.842 41.2086 309.866 41.1976C311.94 40.2534 314.133 39.0115 316.402 37.6791C316.925 37.8927 317.448 37.487 317.575 36.9878C325.384 32.3532 334.053 26.9375 342.184 28.1337C347.209 28.874 348.639 37.7544 345.343 40.9598C343.325 42.9247 340.338 44.2675 337.929 45.6555C332.365 48.8615 326.65 51.7171 320.721 54.1678C320.311 53.6526 319.825 53.2033 319.299 52.8534C319.912 52.5952 320.512 52.2548 321.114 52.0098C321.855 51.7126 322.59 51.3944 323.199 50.8686C323.309 50.7732 323.187 50.6054 323.061 50.636C322.196 50.8401 321.37 51.1945 320.557 51.5461C319.943 51.8101 319.247 52.073 318.731 52.5263C317.984 52.162 317.19 52.0189 316.434 52.221C316.334 52.2485 316.273 52.3278 316.241 52.4171C313.619 51.9969 311.118 53.2737 309.701 55.4681C309.655 55.47 309.61 55.4635 309.556 55.4781C293.578 59.8207 277.999 65.8264 261.778 69.2525C261.737 69.2616 261.756 69.3232 261.795 69.3146C270.454 67.874 278.868 65.7172 287.228 63.3285C286.852 63.8333 286.626 64.4036 286.868 64.9203C286.963 65.1269 287.229 65.1011 287.374 64.9814C287.669 64.7384 287.704 64.4019 287.814 64.0463C287.924 63.6932 288.081 63.3546 288.26 63.0302C292.307 61.8624 296.345 60.6527 300.389 59.4362C300.255 59.6794 300.136 59.9303 300.067 60.1976C299.824 61.1224 301.217 61.4897 301.487 60.5781C301.642 60.0563 301.762 59.5231 301.884 58.9893C304.241 58.2813 306.601 57.578 308.971 56.8892C307.822 60.0164 311.17 61.9834 313.853 61.7134C315.679 61.5277 317.478 60.8822 319.176 60.2071C320.109 59.8345 321.414 59.4813 321.816 58.4503C322.163 57.563 322.013 56.511 321.56 55.5201C329.134 52.836 336.521 48.1792 343.234 43.9312C348.141 40.8231 349.656 35.2509 346.568 29.8674ZM302.379 47.6878C301.33 48.1716 299.994 48.9392 298.717 49.0638C300.163 47.7699 301.68 46.642 303.269 45.5945C304.995 44.4597 307.07 43.725 308.684 42.3196C308.609 42.984 308.562 43.7169 308.561 44.4968C306.556 45.6966 304.475 46.7207 302.379 47.6878ZM320.667 59.2111C318.933 60.3941 316.829 61.1233 314.84 61.5775C312.17 62.1882 308.932 60.1376 310.289 56.5563C311.184 54.1893 313.754 52.4233 316.028 52.192C315.826 52.2818 315.628 52.4001 315.434 52.54C314.701 52.6463 314.184 53.1948 313.845 53.9407C313.396 54.406 313.046 55.0119 312.903 55.6888C312.753 56.4161 312.904 57.1158 313.224 57.7201C313.455 58.7103 314.109 59.507 315.283 59.6832C315.408 59.7009 315.545 59.6838 315.675 59.6875C316.414 59.9368 317.18 59.9919 317.86 59.6443C318.594 59.2718 318.928 58.3194 318.945 57.3881C318.951 57.3186 318.96 57.2486 318.961 57.1802C319.209 56.8595 319.369 56.4547 319.35 55.9269C319.326 55.2801 319.229 54.6529 319.032 54.0768C319.232 54.2402 319.433 54.4035 319.629 54.6069C319.662 54.645 319.704 54.7007 319.74 54.7414C319.276 55.3204 319.676 56.5264 320.481 56.252C320.553 56.2263 320.624 56.1912 320.697 56.1655C321.266 57.276 321.576 58.5894 320.667 59.2111ZM382.727 10.183C382.58 10.3779 382.421 10.5539 382.27 10.7417C371.799 19.0844 360.955 26.9097 350.115 34.7589C350.082 34.7824 350.113 34.8353 350.149 34.8138C357.447 30.0678 364.618 25.1274 371.673 20.0282C367.215 23.7072 363.216 27.9626 358.86 31.7735C358.691 31.7456 358.523 31.7203 358.354 31.7033C358.164 31.6882 358.029 31.8289 357.977 31.9951C355.324 31.8554 353.23 34.8212 352.294 37.2855C351.15 37.9493 350.414 39.2175 349.495 40.1355C349.377 40.2536 349.531 40.4121 349.666 40.3498C350.402 40.0117 351.18 39.5232 351.847 38.9371C351.374 41.8822 353.45 43.7186 356.403 43.2527C359.27 42.8005 362.054 40.3875 363.111 37.7313C364.297 34.7429 361.857 32.4067 359.109 31.8243C364.322 27.9523 368.886 23.3257 374.131 19.5278C377.743 16.9109 381.395 14.6131 383.99 10.8998C384.531 10.1219 383.275 9.44705 382.727 10.183ZM361.332 33.429C362.187 34.2227 362.069 35.3784 361.666 36.3685C360.811 38.4631 358.424 40.181 356.181 40.9735C355.147 41.3362 354.061 41.4455 353.028 41.1717C351.326 40.7204 351.413 38.8675 351.734 37.5839C351.805 37.2954 351.905 37.0164 352.008 36.7391C352.041 36.6903 352.09 36.6482 352.117 36.5981C352.149 36.5418 352.147 36.4799 352.133 36.418C353.088 34.1792 355.076 32.3883 357.565 31.5572C357.6 31.6092 357.632 31.6619 357.702 31.688C358.004 31.7955 358.289 31.8912 358.573 31.9845C358.161 31.9895 357.745 32.0527 357.34 32.1729C357.145 32.2054 356.956 32.2628 356.771 32.3294C356.462 32.4181 356.18 32.5477 355.932 32.722C355.726 32.8375 355.524 32.9598 355.345 33.1032C354.94 33.4234 354.693 33.8285 354.556 34.2611C354.106 35.0901 353.981 36.0917 354.422 36.8724C354.826 37.5862 355.558 37.877 356.36 37.9289C358.12 38.3882 360.283 37.4315 360.986 35.9311C361.519 35.1436 361.677 34.1842 361.293 33.3986C361.304 33.4092 361.321 33.416 361.332 33.429ZM314.524 47.1779C315.121 47.7993 316.424 47.3351 316.312 46.3656C316.293 46.1953 316.251 46.0534 316.214 45.9076C316.929 47.404 319.073 46.7663 318.778 45.0406C318.818 45.0725 318.862 45.0978 318.904 45.1235C319.516 45.6893 320.419 45.4381 320.663 44.6431C320.677 44.6575 320.687 44.6757 320.703 44.6895C321.563 45.4594 323.08 44.7592 322.675 43.4793C322.451 42.7728 321.944 42.2246 321.299 42.0701L321.296 42.0679C320.869 41.7723 320.19 42.0324 320.067 42.5565C319.319 42.134 318.099 42.6642 318.228 43.6707C318.227 43.6824 318.229 43.6907 318.232 43.7018C317.344 42.8043 315.513 43.5591 315.936 45.1083C315.952 45.1659 315.97 45.2258 315.986 45.2834C315.955 45.2175 315.939 45.1571 315.902 45.0896C315.595 44.5149 314.732 44.3676 314.323 44.8733C314.112 45.1321 313.807 45.2516 313.484 45.3546C313.31 45.2476 313.123 45.1551 312.912 45.0823C311.948 44.7453 311.498 46.0128 312.053 46.7017C312.159 46.8353 312.187 47.0995 312.24 47.2652C312.659 48.5738 314.403 48.2713 314.524 47.1779ZM322.437 42.3253C322.387 41.89 322.448 41.6227 322.517 41.2092C322.597 40.7185 323.069 40.4863 323.47 40.628C323.491 40.6018 323.524 40.5839 323.54 40.5536C323.891 39.875 324.69 39.7526 325.231 40.3338C325.32 40.429 325.382 40.5411 325.449 40.6467C325.43 40.5839 325.395 40.5275 325.38 40.4587C325.151 39.3784 326.012 38.82 326.701 39.1147C326.75 39.0345 326.793 38.9527 326.817 38.8726C326.951 38.4075 327.355 38.0351 327.824 38.226C327.864 38.2412 327.904 38.259 327.945 38.2742C329.171 38.7713 328.44 40.6509 327.385 40.0359C327.418 40.1756 327.451 40.3128 327.454 40.4537C327.484 41.5564 326.271 41.9463 325.677 41.1203C325.707 41.2046 325.747 41.2839 325.769 41.3752C326.003 42.3503 325.171 43.1028 324.463 42.9431C324.355 43.2316 324.155 43.4707 323.834 43.5628C323.119 43.7656 322.526 43.113 322.437 42.3253ZM325.742 48.8275C326.4 48.575 327.061 48.3149 327.661 47.9652C328.148 47.6816 328.589 48.3242 328.088 48.5905C326.793 49.2764 325.511 49.4281 324.082 49.6442C324.028 49.6515 324.009 49.5778 324.058 49.5601C324.633 49.3351 325.165 49.0531 325.742 48.8275ZM334.873 36.2832C335.069 36.167 335.253 36.0227 335.448 35.9036C334.913 35.8079 334.387 34.9695 334.643 34.2698C334.88 33.6262 335.224 33.0994 335.694 32.7551C336.351 31.9763 337.206 31.3734 337.925 30.7211C339.024 29.7292 340.107 28.7408 341.45 28.2409C341.684 28.1558 341.903 28.202 342.105 28.301C342.236 28.26 342.371 28.215 342.504 28.1734C342.972 28.0216 343.386 28.3054 343.647 28.7297C343.92 28.8982 344.113 29.182 344.199 29.5196C344.63 29.2876 345.18 30.0566 344.782 30.4491C343.134 32.0833 341.286 33.4047 339.382 34.5893C337.937 35.4866 336.621 36.4867 334.902 36.3927C334.855 36.3909 334.829 36.3081 334.873 36.2832ZM259.297 129.783C238.917 144.475 219.895 154.977 189.665 164.719C188.948 164.95 188.632 163.832 189.35 163.579C236.642 146.867 285.777 119.265 310.962 73.9031C310.995 73.8401 311.088 73.8948 311.054 73.9577C299.261 96.5683 279.799 115.001 259.297 129.783ZM112.792 167.344C117.524 161.869 121.133 155.036 123.417 148.236C125.421 142.272 126.753 133.528 122.328 128.253C118.396 123.565 112.32 121.896 106.986 125.173C102.871 127.703 100.756 132.547 101.712 137.037C97.3931 132.79 91.4323 133.612 88.0418 139.733C83.7836 147.417 88.9168 154.872 95.1075 159.322C99.9577 162.808 105.316 165.622 110.982 167.811C107.531 171.528 103.596 174.741 99.3777 177.213C76.0281 190.889 44.7082 185.301 20.5594 177.041C20.2896 176.948 20.1868 177.368 20.447 177.465C48.9112 188.151 89.3217 193.181 112.036 168.217C130.349 174.992 151.746 175.252 169.834 170.025C169.877 170.012 169.859 169.949 169.816 169.958C151.119 174.52 130.941 173.78 112.792 167.344ZM104.843 164.314C98.4573 161.271 90.4333 156.76 87.6636 149.715C83.8143 139.921 95.0692 127.943 102.129 139.251C102.46 139.783 103.234 139.311 102.944 138.756C99.0494 131.335 106.223 121.92 114.212 123.843C123.091 125.98 124.2 135.819 122.885 143.384C121.382 152.038 117.126 160.33 111.303 167.067C109.119 166.229 106.961 165.325 104.843 164.314Z" fill="#63AB45"/>
</g>
</g>
</g>
</g>
<defs>
<clipPath id="clip0_1_2772">
<rect width="409" height="203" fill="white" transform="translate(0 0.919922)"/>
</clipPath>
<clipPath id="clip1_1_2772">
<rect width="409" height="203" fill="white" transform="translate(0 0.919922)"/>
</clipPath>
</defs>
</svg>
