<svg width="9" height="9" viewBox="0 0 9 9" fill="none" xmlns="http://www.w3.org/2000/svg">
<path d="M4.47 0.0263672C4.61222 0.0263672 4.72778 0.0708113 4.81667 0.1597C4.90556 0.248589 4.95 0.364145 4.95 0.506367V3.54637H7.99C8.13222 3.54637 8.24778 3.59081 8.33667 3.6797C8.42556 3.76859 8.47 3.88414 8.47 4.02637C8.47 4.16859 8.42556 4.28414 8.33667 4.37303C8.24778 4.46192 8.13222 4.50637 7.99 4.50637H4.95V7.54637C4.95 7.68859 4.90556 7.80414 4.81667 7.89303C4.72778 7.98192 4.61222 8.02637 4.47 8.02637C4.32778 8.02637 4.21222 7.98192 4.12333 7.89303C4.03445 7.80414 3.99 7.68859 3.99 7.54637V4.50637H0.950001C0.807779 4.50637 0.692223 4.46192 0.603335 4.37303C0.514446 4.28414 0.470001 4.16859 0.470001 4.02637C0.470001 3.88414 0.514446 3.76859 0.603335 3.6797C0.692223 3.59081 0.807779 3.54637 0.950001 3.54637H3.99V0.506367C3.99 0.364145 4.03445 0.248589 4.12333 0.1597C4.21222 0.0708113 4.32778 0.0263672 4.47 0.0263672Z" fill="white"/>
</svg>
