<svg width="85" height="22" viewBox="0 0 85 22" fill="none" xmlns="http://www.w3.org/2000/svg">
<g clip-path="url(#clip0_1_2561)">
<path opacity="0.25" d="M32.0667 13.02H25.8007L26.5417 10.706L31.7547 10.732L32.0407 9.83502L26.8277 9.86102L27.9977 6.26002C28.1667 5.68802 28.3747 5.27202 28.6217 5.01202C28.8037 4.84302 28.9337 4.75202 28.9857 4.72602C29.3497 4.54402 29.5967 4.41402 31.4557 4.38802H36.7467L35.8757 7.02702H30.6887L30.4027 7.88502L35.5897 7.89802C34.7837 10.329 35.1737 9.18502 34.3157 11.746C34.1857 12.162 34.0167 12.461 33.8347 12.643C33.6787 12.851 33.3017 13.02 32.0667 13.02ZM45.4359 13.02H39.1699L39.9109 10.706L45.1239 10.732L45.4099 9.83502L40.1969 9.86102L41.3669 6.26002C41.5359 5.68802 41.7439 5.27202 41.9909 5.01202C42.1729 4.84302 42.3029 4.75202 42.3549 4.72602C42.7189 4.54402 42.9659 4.41402 44.8249 4.38802H50.1159L49.2449 7.02702H44.0579L43.7719 7.88502L48.9589 7.89802C48.1529 10.329 48.5429 9.18502 47.6849 11.746C47.5549 12.162 47.3859 12.461 47.2039 12.643C47.0479 12.851 46.6709 13.02 45.4359 13.02ZM58.805 13.02H52.539L53.28 10.706L58.493 10.732L58.779 9.83502L53.566 9.86102L54.736 6.26002C54.905 5.68802 55.113 5.27202 55.36 5.01202C55.542 4.84302 55.672 4.75202 55.724 4.72602C56.088 4.54402 56.335 4.41402 58.194 4.38802H63.485L62.614 7.02702H57.427L57.141 7.88502L62.328 7.89802C61.522 10.329 61.912 9.18502 61.054 11.746C60.924 12.162 60.755 12.461 60.573 12.643C60.417 12.851 60.04 13.02 58.805 13.02ZM72.1741 13.02H65.9081L66.6491 10.706L71.8621 10.732L72.1481 9.83502L66.9351 9.86102L68.1051 6.26002C68.2741 5.68802 68.4821 5.27202 68.7291 5.01202C68.9111 4.84302 69.0411 4.75202 69.0931 4.72602C69.4571 4.54402 69.7041 4.41402 71.5631 4.38802H76.8541L75.9831 7.02702H70.7961L70.5101 7.88502L75.6971 7.89802C74.8911 10.329 75.2811 9.18502 74.4231 11.746C74.2931 12.162 74.1241 12.461 73.9421 12.643C73.7861 12.851 73.4091 13.02 72.1741 13.02ZM85.5433 13.02H79.2773L80.0183 10.706L85.2313 10.732L85.5173 9.83502L80.3043 9.86102L81.4743 6.26002C81.6433 5.68802 81.8513 5.27202 82.0983 5.01202C82.2803 4.84302 82.4103 4.75202 82.4623 4.72602C82.8263 4.54402 83.0733 4.41402 84.9323 4.38802H90.2233L89.3523 7.02702H84.1653L83.8793 7.88502L89.0663 7.89802C88.2603 10.329 88.6503 9.18502 87.7923 11.746C87.6623 12.162 87.4933 12.461 87.3113 12.643C87.1553 12.851 86.7783 13.02 85.5433 13.02Z" fill="#787878"/>
</g>
<defs>
<clipPath id="clip0_1_2561">
<rect width="84.5" height="21.03" fill="white" transform="translate(0 0.0200195)"/>
</clipPath>
</defs>
</svg>
