<svg width="59" height="10" viewBox="0 0 59 10" fill="none" xmlns="http://www.w3.org/2000/svg">
<path d="M6.39671 9.02002H0.130707L0.871707 6.70602L6.08471 6.73202L6.37071 5.83502L1.15771 5.86102L2.32771 2.26002C2.49671 1.68802 2.70471 1.27202 2.95171 1.01202C3.13371 0.843019 3.26371 0.752019 3.31571 0.726019C3.67971 0.544019 3.92671 0.414019 5.78571 0.388019H11.0767L10.2057 3.02702H5.01871L4.73271 3.88502L9.91971 3.89802C9.11371 6.32902 9.50371 5.18502 8.64571 7.74602C8.51571 8.16202 8.34671 8.46102 8.16471 8.64302C8.00871 8.85102 7.63171 9.02002 6.39671 9.02002ZM19.7658 9.02002H13.4998L14.2408 6.70602L19.4538 6.73202L19.7398 5.83502L14.5268 5.86102L15.6968 2.26002C15.8658 1.68802 16.0738 1.27202 16.3208 1.01202C16.5028 0.843019 16.6328 0.752019 16.6848 0.726019C17.0488 0.544019 17.2958 0.414019 19.1548 0.388019H24.4458L23.5748 3.02702H18.3878L18.1018 3.88502L23.2888 3.89802C22.4828 6.32902 22.8728 5.18502 22.0148 7.74602C21.8848 8.16202 21.7158 8.46102 21.5338 8.64302C21.3778 8.85102 21.0008 9.02002 19.7658 9.02002ZM33.135 9.02002H26.869L27.61 6.70602L32.823 6.73202L33.109 5.83502L27.896 5.86102L29.066 2.26002C29.235 1.68802 29.443 1.27202 29.69 1.01202C29.872 0.843019 30.002 0.752019 30.054 0.726019C30.418 0.544019 30.665 0.414019 32.524 0.388019H37.815L36.944 3.02702H31.757L31.471 3.88502L36.658 3.89802C35.852 6.32902 36.242 5.18502 35.384 7.74602C35.254 8.16202 35.085 8.46102 34.903 8.64302C34.747 8.85102 34.37 9.02002 33.135 9.02002ZM46.5041 9.02002H40.2381L40.9791 6.70602L46.1921 6.73202L46.4781 5.83502L41.2651 5.86102L42.4351 2.26002C42.6041 1.68802 42.8121 1.27202 43.0591 1.01202C43.2411 0.843019 43.3711 0.752019 43.4231 0.726019C43.7871 0.544019 44.0341 0.414019 45.8931 0.388019H51.1841L50.3131 3.02702H45.1261L44.8401 3.88502L50.0271 3.89802C49.2211 6.32902 49.6111 5.18502 48.7531 7.74602C48.6231 8.16202 48.4541 8.46102 48.2721 8.64302C48.1161 8.85102 47.7391 9.02002 46.5041 9.02002ZM59.8733 9.02002H53.6073L54.3483 6.70602L59.5613 6.73202L59.8473 5.83502L54.6343 5.86102L55.8043 2.26002C55.9733 1.68802 56.1813 1.27202 56.4283 1.01202C56.6103 0.843019 56.7403 0.752019 56.7923 0.726019C57.1563 0.544019 57.4033 0.414019 59.2623 0.388019H64.5533L63.6823 3.02702H58.4953L58.2093 3.88502L63.3963 3.89802C62.5903 6.32902 62.9803 5.18502 62.1223 7.74602C61.9923 8.16202 61.8233 8.46102 61.6413 8.64302C61.4853 8.85102 61.1083 9.02002 59.8733 9.02002Z" fill="#FFC200"/>
</svg>
