<svg width="14" height="10" viewBox="0 0 14 10" fill="none" xmlns="http://www.w3.org/2000/svg">
<path d="M0.0133362 4.99998C0.0133362 4.85776 0.0577806 4.7422 0.14667 4.65331C0.235558 4.56442 0.351114 4.51998 0.493336 4.51998H12.28L9.13334 1.37331C9.02667 1.26665 8.97334 1.1422 8.97334 0.99998C8.97334 0.857758 9.02667 0.742203 9.13334 0.653314C9.24 0.564425 9.36445 0.51998 9.50667 0.51998C9.64889 0.51998 9.77334 0.555536 9.88 0.626647L13.88 4.62665C13.9511 4.73331 13.9867 4.85776 13.9867 4.99998C13.9867 5.1422 13.9511 5.26665 13.88 5.37331L9.88 9.37331C9.77334 9.44442 9.64889 9.47998 9.50667 9.47998C9.36445 9.47998 9.24 9.43554 9.13334 9.34665C9.02667 9.25776 8.97334 9.1422 8.97334 8.99998C8.97334 8.85776 9.02667 8.73331 9.13334 8.62665L12.28 5.47998H0.493336C0.351114 5.47998 0.235558 5.43554 0.14667 5.34665C0.0577806 5.25776 0.0133362 5.1422 0.0133362 4.99998Z" fill="#63AB45"/>
</svg>
