<svg width="14" height="10" viewBox="0 0 14 10" fill="none" xmlns="http://www.w3.org/2000/svg">
<path d="M13.9866 4.99998C13.9866 4.85776 13.9422 4.7422 13.8533 4.65331C13.7644 4.56442 13.6489 4.51998 13.5066 4.51998H1.71997L4.86664 1.37331C4.97331 1.26665 5.02664 1.1422 5.02664 0.99998C5.02664 0.857758 4.97331 0.742203 4.86664 0.653314C4.75997 0.564425 4.63553 0.51998 4.49331 0.51998C4.35108 0.51998 4.22664 0.555536 4.11997 0.626647L0.119972 4.62665C0.0488612 4.73331 0.0133057 4.85776 0.0133057 4.99998C0.0133057 5.1422 0.0488612 5.26665 0.119972 5.37331L4.11997 9.37331C4.22664 9.44442 4.35108 9.47998 4.49331 9.47998C4.63553 9.47998 4.75997 9.43554 4.86664 9.34665C4.97331 9.25776 5.02664 9.1422 5.02664 8.99998C5.02664 8.85776 4.97331 8.73331 4.86664 8.62665L1.71997 5.47998H13.5066C13.6489 5.47998 13.7644 5.43554 13.8533 5.34665C13.9422 5.25776 13.9866 5.1422 13.9866 4.99998Z" fill="#63AB45"/>
</svg>
