<svg width="28" height="28" viewBox="0 0 28 28" fill="none" xmlns="http://www.w3.org/2000/svg">
<path d="M18.8912 16.0145L15.1266 13.1911V7.43977C15.1266 6.86148 14.6592 6.39404 14.0809 6.39404C13.5026 6.39404 13.0352 6.86148 13.0352 7.43977V13.714C13.0352 14.0434 13.19 14.354 13.4535 14.5506L17.6363 17.6877C17.8168 17.8236 18.0367 17.897 18.2626 17.8968C18.5816 17.8968 18.8953 17.7535 19.1003 17.4775C19.4475 17.0163 19.3534 16.3606 18.8912 16.0145Z" fill="#63AB45"/>
<path d="M14.0801 0.130371C6.63573 0.130371 0.580078 6.18602 0.580078 13.6304C0.580078 21.0748 6.63573 27.1304 14.0801 27.1304C21.5245 27.1304 27.5801 21.0748 27.5801 13.6304C27.5801 6.18602 21.5245 0.130371 14.0801 0.130371ZM14.0801 25.039C7.79019 25.039 2.67147 19.9203 2.67147 13.6304C2.67147 7.34048 7.79019 2.22176 14.0801 2.22176C20.371 2.22176 25.4887 7.34048 25.4887 13.6304C25.4887 19.9203 20.37 25.039 14.0801 25.039Z" fill="#63AB45"/>
</svg>
