<svg width="174" height="41" viewBox="0 0 174 41" fill="none" xmlns="http://www.w3.org/2000/svg">
<path d="M85.8931 -5.38646C86.5925 -5.70777 87.3972 -5.70777 88.0966 -5.38646L98.2214 -0.735104C98.7588 -0.488235 99.3636 -0.428996 99.9386 -0.566874L115.167 -4.2179C116.145 -4.45235 117.171 -4.11073 117.813 -3.33693L121.068 0.58458C121.638 1.27233 122.519 1.62448 123.407 1.5203L140.093 -0.438048C141.736 -0.63089 143.022 0.948449 142.502 2.51879C142.009 4.00459 143.14 5.52927 144.704 5.49033L159.001 5.1346C160.675 5.09293 161.344 7.28088 159.934 8.1836C158.585 9.04613 159.125 11.1304 160.723 11.2299L169.508 11.7773C171.377 11.8936 171.693 14.5115 169.908 15.0706C168.211 15.6021 168.385 18.0585 170.14 18.3454L171.365 18.5454C173.579 18.9074 173.579 22.0936 171.365 22.4556L170.14 22.6556C168.385 22.9425 168.211 25.3989 169.908 25.9304C171.693 26.4895 171.377 29.1074 169.508 29.2237L160.723 29.7711C159.125 29.8706 158.585 31.9549 159.934 32.8174C161.344 33.7202 160.675 35.9082 159.001 35.8665L144.704 35.5107C143.14 35.4717 142.009 36.9965 142.502 38.4823C143.022 40.0525 141.736 41.6319 140.093 41.4391L123.407 39.4807C122.519 39.3765 121.638 39.7287 121.068 40.4164L117.813 44.338C117.171 45.1117 116.145 45.4534 115.167 45.2189L99.9386 41.5679C99.3636 41.43 98.7588 41.4893 98.2214 41.7362L88.0966 46.3874C87.3972 46.7088 86.5925 46.7088 85.8931 46.3874L75.7682 41.7362C75.2309 41.4893 74.6261 41.43 74.0511 41.5679L58.8229 45.2189C57.8451 45.4534 56.8189 45.1117 56.1766 44.338L52.9219 40.4164C52.3512 39.7287 51.4711 39.3765 50.5834 39.4807L33.8975 41.4391C32.2544 41.6319 30.9673 40.0525 31.4879 38.4823C31.9806 36.9965 30.8505 35.4717 29.2857 35.5107L14.9893 35.8665C13.3144 35.9082 12.6448 33.7202 14.0563 32.8174C15.405 31.9549 14.8654 29.8706 13.2676 29.7711L4.48154 29.2237C2.61367 29.1074 2.29641 26.4895 4.08247 25.9304C5.77969 25.3989 5.60562 22.9425 3.85041 22.6556L2.62556 22.4556C0.410145 22.0936 0.410145 18.9074 2.62555 18.5454L3.85041 18.3454C5.60562 18.0585 5.77969 15.6021 4.08247 15.0706C2.29641 14.5115 2.61367 11.8936 4.48154 11.7773L13.2676 11.2299C14.8654 11.1304 15.405 9.04613 14.0563 8.1836C12.6448 7.28088 13.3144 5.09293 14.9893 5.1346L29.2857 5.49033C30.8505 5.52927 31.9806 4.00459 31.4879 2.51879C30.9673 0.948449 32.2544 -0.63089 33.8975 -0.438048L50.5834 1.5203C51.4711 1.62448 52.3512 1.27233 52.9219 0.58458L56.1766 -3.33693C56.8189 -4.11073 57.8451 -4.45235 58.8229 -4.2179L74.0511 -0.566874C74.6261 -0.428996 75.2309 -0.488235 75.7682 -0.735104L85.8931 -5.38646Z" fill="#63AB45"/>
</svg>
