<svg width="24" height="24" viewBox="0 0 24 24" fill="none" xmlns="http://www.w3.org/2000/svg">
<path d="M6.47911 7.69385C3.36962 7.69385 0.839844 10.2236 0.839844 13.3331C0.839844 15.2637 1.75823 17.3395 3.56952 19.5028C3.82528 19.8078 4.09029 20.1049 4.36419 20.3937C3.1947 20.713 2.49252 21.2865 2.49252 21.9559C2.49252 23.1408 4.54644 23.7803 6.47893 23.7803C8.41147 23.7803 10.4653 23.1408 10.4653 21.9559C10.4653 21.287 9.7634 20.7134 8.59466 20.394C9.06158 19.9011 9.56399 19.3211 10.0407 18.6743C10.0675 18.6386 10.087 18.5981 10.0981 18.5549C10.1091 18.5117 10.1115 18.4667 10.1051 18.4226C10.0986 18.3784 10.0835 18.336 10.0605 18.2978C10.0376 18.2595 10.0073 18.2262 9.9714 18.1998C9.9355 18.1733 9.89471 18.1542 9.85139 18.1437C9.80807 18.1331 9.76308 18.1312 9.71902 18.1381C9.67497 18.145 9.63272 18.1606 9.59473 18.184C9.55674 18.2073 9.52375 18.238 9.49768 18.2741C8.92214 19.0552 8.29917 19.7416 7.75557 20.2868C7.69244 20.3188 7.64098 20.3699 7.60849 20.4328C7.12154 20.9113 6.71176 21.2663 6.47925 21.4603C6.24929 21.2682 5.84576 20.918 5.36505 20.4457C5.33101 20.371 5.27091 20.3113 5.19601 20.2777C3.66835 18.7412 1.51435 16.0865 1.51435 13.3332C1.51435 10.5957 3.74153 8.36849 6.47907 8.36849C9.21661 8.36849 11.4438 10.5957 11.4438 13.3332C11.4438 14.5287 11.0365 15.8198 10.233 17.1705C10.2104 17.2086 10.1955 17.2508 10.1891 17.2946C10.1828 17.3384 10.1851 17.3831 10.196 17.426C10.2069 17.469 10.2262 17.5093 10.2527 17.5448C10.2792 17.5803 10.3125 17.6102 10.3505 17.6328C10.3886 17.6555 10.4307 17.6704 10.4746 17.6768C10.5184 17.6831 10.5631 17.6808 10.606 17.6698C10.6489 17.6589 10.6893 17.6397 10.7248 17.6132C10.7603 17.5867 10.7902 17.5534 10.8128 17.5154C11.6791 16.0588 12.1184 14.6518 12.1184 13.3332C12.1184 10.2236 9.5886 7.69385 6.47911 7.69385ZM6.2727 22.1618C6.33177 22.2076 6.40439 22.2324 6.47911 22.2323C6.55384 22.2324 6.62646 22.2076 6.68553 22.1618C6.7269 22.1298 7.29049 21.6903 8.04172 20.9558C9.17923 21.1877 9.79089 21.6344 9.79089 21.9559C9.79089 22.196 9.46179 22.4793 8.93203 22.6951C8.28228 22.9599 7.41111 23.1058 6.47898 23.1058C4.45722 23.1058 3.16707 22.4247 3.16707 21.9559C3.16707 21.6339 3.7789 21.1875 4.91705 20.9555C5.67245 21.6944 6.23685 22.1341 6.2727 22.1618Z" fill="white"/>
<path d="M6.47922 10.8812C5.94577 10.8812 5.43851 11.0496 5.01229 11.3682C4.94067 11.4218 4.89325 11.5016 4.88046 11.5901C4.86767 11.6787 4.89056 11.7686 4.9441 11.8403C4.99768 11.9119 5.07751 11.9593 5.16603 11.9721C5.25455 11.9849 5.34453 11.962 5.41619 11.9085C5.72484 11.6777 6.09244 11.5557 6.47917 11.5557C7.45923 11.5557 8.25655 12.353 8.25655 13.3331C8.25655 14.3132 7.45923 15.1105 6.47917 15.1105C5.49911 15.1105 4.70179 14.3132 4.70179 13.3331C4.70179 13.1659 4.72493 13.0005 4.77052 12.8418C4.7952 12.7558 4.78472 12.6636 4.74139 12.5853C4.69806 12.5071 4.62541 12.4492 4.53945 12.4245C4.45347 12.3999 4.36124 12.4104 4.28301 12.4538C4.20478 12.4971 4.14694 12.5697 4.12221 12.6557C4.05913 12.876 4.0272 13.104 4.02734 13.3331C4.02734 14.6851 5.12725 15.7851 6.47926 15.7851C7.83123 15.7851 8.93119 14.6851 8.93119 13.3331C8.93114 11.9811 7.83119 10.8812 6.47922 10.8812ZM21.1772 10.5787C21.3577 10.3853 21.533 10.1871 21.7029 9.9844C23.107 8.30733 23.819 6.69513 23.819 5.19245C23.819 2.75962 21.8397 0.780273 19.4068 0.780273C17.6296 0.780273 16.0338 1.838 15.3415 3.47495C15.3243 3.51574 15.3152 3.55953 15.3149 3.60381C15.3145 3.6481 15.3229 3.69202 15.3396 3.73306C15.3562 3.7741 15.3808 3.81147 15.4119 3.84302C15.4429 3.87457 15.4799 3.89969 15.5207 3.91694C15.6031 3.95177 15.6959 3.95245 15.7788 3.91885C15.8617 3.88525 15.9278 3.82011 15.9627 3.73775C16.5493 2.35092 17.9012 1.45478 19.4068 1.45478C21.4678 1.45478 23.1445 3.13153 23.1445 5.1925C23.1445 7.97958 20.2184 10.6498 19.4067 11.3367C19.2278 11.1856 18.9462 10.9381 18.6161 10.6145C18.5834 10.55 18.5308 10.4977 18.4661 10.4654C17.3016 9.29292 15.6691 7.27741 15.6691 5.1925C15.6691 5.10305 15.6336 5.01726 15.5704 4.95401C15.5071 4.89076 15.4213 4.85522 15.3319 4.85522C15.2424 4.85522 15.1566 4.89076 15.0934 4.95401C15.0301 5.01726 14.9946 5.10305 14.9946 5.1925C14.9946 6.69513 15.7066 8.30733 17.1108 9.98445C17.2806 10.187 17.4558 10.3851 17.6361 10.5785C16.7667 10.8397 16.2648 11.2843 16.2648 11.8198C16.2648 12.2713 16.6311 12.6693 17.2963 12.9403C17.8655 13.1722 18.615 13.3 19.4068 13.3C20.1985 13.3 20.948 13.1722 21.5172 12.9403C22.1823 12.6692 22.5486 12.2713 22.5486 11.8197C22.5486 11.2853 22.0463 10.8402 21.1772 10.5787ZM19.4067 12.6254C17.8103 12.6254 16.9394 12.0932 16.9394 11.8197C16.9394 11.6415 17.3355 11.3155 18.1815 11.1356C18.7507 11.6894 19.1732 12.0185 19.2004 12.0397C19.2595 12.0855 19.3321 12.1103 19.4069 12.1102C19.4816 12.1103 19.5542 12.0855 19.6133 12.0397C19.6405 12.0186 20.0629 11.6895 20.6322 11.1357C21.009 11.2161 21.3355 11.3338 21.564 11.4729C21.7582 11.5912 21.8742 11.7208 21.8742 11.8197C21.8741 12.0932 21.0032 12.6254 19.4067 12.6254Z" fill="white"/>
<path d="M19.4061 3.22998C18.324 3.22998 17.4436 4.11036 17.4436 5.19257C17.4436 6.27469 18.324 7.15507 19.4061 7.15507C20.4883 7.15507 21.3687 6.27474 21.3687 5.19257C21.3687 4.1104 20.4883 3.22998 19.4061 3.22998ZM19.4062 6.48052C18.6959 6.48052 18.1181 5.90274 18.1181 5.19252C18.1181 4.48231 18.6959 3.90448 19.4062 3.90448C20.1164 3.90448 20.6942 4.48226 20.6942 5.19252C20.6942 5.90274 20.1164 6.48052 19.4062 6.48052ZM15.0312 11.4824H14.8772C14.7651 11.4824 14.6524 11.4899 14.5422 11.5045C14.4542 11.5172 14.3747 11.564 14.3211 11.6348C14.2675 11.7057 14.2439 11.7948 14.2557 11.8829C14.2674 11.971 14.3134 12.0509 14.3837 12.1053C14.454 12.1597 14.5429 12.1841 14.6312 12.1732C14.7127 12.1625 14.7949 12.1571 14.8772 12.1571H15.0312C15.2175 12.1571 15.3685 12.0061 15.3685 11.8198C15.3685 11.6334 15.2175 11.4824 15.0312 11.4824ZM13.9162 21.6014H13.9146L13.4692 21.6034C13.3797 21.6036 13.294 21.6393 13.2309 21.7027C13.1678 21.7661 13.1324 21.852 13.1326 21.9414C13.1328 22.0309 13.1685 22.1166 13.2319 22.1797C13.2953 22.2428 13.3812 22.2782 13.4706 22.278H13.4722L13.9177 22.276C14.0071 22.2755 14.0927 22.2396 14.1557 22.1761C14.2186 22.1125 14.2538 22.0266 14.2534 21.9372C14.253 21.848 14.2173 21.7626 14.1541 21.6996C14.0909 21.6367 14.0054 21.6014 13.9162 21.6014ZM15.4314 15.8511H14.9859C14.8965 15.8511 14.8107 15.8866 14.7475 15.9499C14.6842 16.0131 14.6487 16.0989 14.6487 16.1884C14.6487 16.2778 14.6842 16.3636 14.7475 16.4269C14.8107 16.4901 14.8965 16.5256 14.9859 16.5256H15.4314C15.4757 16.5256 15.5195 16.5169 15.5605 16.5C15.6014 16.483 15.6386 16.4582 15.6699 16.4269C15.7012 16.3955 15.7261 16.3584 15.743 16.3174C15.76 16.2765 15.7687 16.2327 15.7687 16.1884C15.7687 16.1441 15.76 16.1002 15.743 16.0593C15.7261 16.0184 15.7012 15.9812 15.6699 15.9499C15.6386 15.9185 15.6014 15.8937 15.5605 15.8768C15.5195 15.8598 15.4757 15.8511 15.4314 15.8511ZM13.6443 12.1696C13.5836 12.1039 13.4994 12.0649 13.41 12.0613C13.3206 12.0577 13.2335 12.0898 13.1677 12.1504C13.0417 12.2666 12.9278 12.3953 12.8278 12.5346C12.7778 12.6073 12.7583 12.6967 12.7735 12.7837C12.7887 12.8706 12.8373 12.9482 12.909 12.9997C12.9807 13.0512 13.0697 13.0725 13.157 13.0591C13.2442 13.0457 13.3228 12.9987 13.3757 12.9281C13.4491 12.8259 13.5327 12.7315 13.6251 12.6462C13.6908 12.5855 13.7298 12.5013 13.7334 12.4119C13.737 12.3225 13.705 12.2354 13.6443 12.1696ZM15.698 21.5932H15.6965L15.2511 21.5953C15.1626 21.5969 15.0783 21.6332 15.0163 21.6965C14.9544 21.7597 14.9198 21.8447 14.92 21.9333C14.9201 22.0218 14.9551 22.1067 15.0174 22.1696C15.0796 22.2326 15.164 22.2686 15.2526 22.2698H15.2541L15.6995 22.2678C15.788 22.2661 15.8724 22.2298 15.9343 22.1666C15.9962 22.1033 16.0308 22.0183 16.0307 21.9298C16.0305 21.8413 15.9955 21.7564 15.9333 21.6934C15.871 21.6304 15.7866 21.5945 15.698 21.5932ZM12.1344 21.6094H12.1328L11.6873 21.6115C11.5979 21.6119 11.5123 21.6478 11.4493 21.7114C11.3864 21.7749 11.3512 21.8608 11.3516 21.9503C11.352 22.0394 11.3877 22.1248 11.4509 22.1878C11.5141 22.2507 11.5996 22.286 11.6888 22.286H11.6904L12.1358 22.284C12.2253 22.2836 12.3109 22.2476 12.3738 22.1841C12.4368 22.1206 12.472 22.0346 12.4716 21.9452C12.4712 21.856 12.4355 21.7706 12.3723 21.7077C12.3091 21.6448 12.2235 21.6094 12.1344 21.6094ZM13.8934 15.5676C13.7871 15.5005 13.6879 15.4228 13.5972 15.3357C13.5328 15.2737 13.4463 15.2398 13.3569 15.2416C13.2674 15.2433 13.1824 15.2805 13.1203 15.3449C13.0896 15.3768 13.0655 15.4145 13.0494 15.4557C13.0332 15.497 13.0253 15.541 13.0262 15.5853C13.0271 15.6295 13.0366 15.6732 13.0544 15.7138C13.0721 15.7544 13.0977 15.7911 13.1296 15.8218C13.2532 15.9406 13.3885 16.0466 13.5335 16.1381C13.5709 16.1618 13.6127 16.1778 13.6564 16.1853C13.7 16.1929 13.7447 16.1917 13.788 16.1819C13.8312 16.1721 13.872 16.1539 13.9082 16.1283C13.9444 16.1027 13.9751 16.0703 13.9987 16.0328C14.0224 15.9953 14.0384 15.9535 14.0459 15.9099C14.0534 15.8662 14.0522 15.8215 14.0424 15.7784C14.0326 15.7352 14.0144 15.6943 13.9889 15.6581C13.9633 15.622 13.9309 15.5912 13.8934 15.5676ZM13.0643 14.3596C13.0416 14.2425 13.0302 14.1234 13.0302 14.0041L13.0303 13.9854C13.0308 13.9411 13.0226 13.8971 13.0061 13.856C12.9896 13.8149 12.9652 13.7774 12.9343 13.7457C12.9033 13.7141 12.8664 13.6888 12.8257 13.6714C12.785 13.6539 12.7412 13.6447 12.697 13.6442H12.693C12.6042 13.6442 12.519 13.6792 12.4559 13.7416C12.3928 13.804 12.3568 13.8888 12.3558 13.9775L12.3556 14.0041C12.3556 14.167 12.3713 14.33 12.4022 14.4887C12.4107 14.5321 12.4276 14.5735 12.4521 14.6104C12.4766 14.6474 12.5081 14.6791 12.5448 14.7038C12.5815 14.7286 12.6228 14.7459 12.6662 14.7547C12.7096 14.7635 12.7543 14.7637 12.7978 14.7552C12.8413 14.7467 12.8827 14.7297 12.9196 14.7053C12.9565 14.6808 12.9882 14.6493 13.013 14.6126C13.0377 14.5759 13.055 14.5346 13.0638 14.4912C13.0726 14.4478 13.0728 14.4031 13.0643 14.3596ZM17.2133 15.8511H16.7679C16.6784 15.8511 16.5926 15.8866 16.5294 15.9499C16.4661 16.0131 16.4306 16.0989 16.4306 16.1884C16.4306 16.2778 16.4661 16.3636 16.5294 16.4269C16.5926 16.4901 16.6784 16.5256 16.7679 16.5256H17.2133C17.3028 16.5256 17.3885 16.4901 17.4518 16.4269C17.515 16.3636 17.5506 16.2778 17.5506 16.1884C17.5506 16.0989 17.515 16.0131 17.4518 15.9499C17.3885 15.8866 17.3028 15.8511 17.2133 15.8511ZM22.6282 16.5378C22.498 16.435 22.3599 16.3424 22.2153 16.261C22.0532 16.1695 21.8474 16.227 21.7559 16.3893C21.7342 16.4278 21.7203 16.4703 21.715 16.5143C21.7096 16.5583 21.713 16.6029 21.7249 16.6455C21.7369 16.6882 21.7571 16.7281 21.7844 16.7629C21.8117 16.7978 21.8457 16.8269 21.8842 16.8486C21.9983 16.913 22.1073 16.9861 22.2101 17.0672C22.2696 17.1143 22.3431 17.1399 22.4189 17.1398C22.4891 17.1399 22.5574 17.1181 22.6146 17.0775C22.6718 17.0369 22.7149 16.9795 22.7379 16.9133C22.7609 16.8471 22.7627 16.7753 22.7431 16.708C22.7234 16.6407 22.6833 16.5812 22.6282 16.5378ZM21.3763 21.8349C21.3507 21.6504 21.1802 21.5213 20.996 21.547C20.8856 21.5622 20.7725 21.5703 20.6597 21.5707L20.5966 21.571C20.5084 21.5733 20.4247 21.6099 20.3633 21.6731C20.3018 21.7362 20.2675 21.8209 20.2677 21.9091C20.2679 21.9972 20.3026 22.0818 20.3644 22.1447C20.4261 22.2075 20.51 22.2438 20.5981 22.2456H20.5998L20.6628 22.2453C20.8051 22.2447 20.9473 22.2346 21.0884 22.2152C21.1322 22.2091 21.1745 22.1945 21.2127 22.1721C21.2509 22.1497 21.2844 22.12 21.3111 22.0847C21.3378 22.0494 21.3574 22.0091 21.3685 21.9663C21.3797 21.9234 21.3824 21.8788 21.3763 21.8349ZM22.8648 20.8865C22.8343 20.8544 22.7977 20.8286 22.7572 20.8107C22.7167 20.7928 22.6731 20.783 22.6288 20.7819C22.5845 20.7808 22.5405 20.7885 22.4991 20.8044C22.4578 20.8204 22.4201 20.8443 22.388 20.8749C22.293 20.9653 22.1912 21.0482 22.0835 21.123C22.01 21.174 21.9598 21.2521 21.9438 21.3401C21.9279 21.4281 21.9475 21.5188 21.9985 21.5924C22.0295 21.6372 22.071 21.6739 22.1193 21.6991C22.1677 21.7244 22.2214 21.7376 22.276 21.7375C22.3445 21.7375 22.4115 21.7166 22.4678 21.6774C22.6042 21.5828 22.733 21.4778 22.8532 21.3633C22.8853 21.3328 22.9111 21.2962 22.929 21.2557C22.9469 21.2152 22.9567 21.1716 22.9578 21.1273C22.9589 21.083 22.9512 21.039 22.9352 20.9976C22.9193 20.9563 22.8953 20.9185 22.8648 20.8865ZM23.5212 19.2485C23.4333 19.232 23.3424 19.251 23.2686 19.3015C23.1947 19.3519 23.1439 19.4296 23.1274 19.5175C23.1031 19.6461 23.0688 19.7727 23.0249 19.8961C22.996 19.9801 23.0014 20.0721 23.0399 20.1521C23.0784 20.2321 23.147 20.2938 23.2306 20.3236C23.3143 20.3534 23.4063 20.349 23.4868 20.3114C23.5672 20.2738 23.6296 20.2059 23.6604 20.1226C23.7161 19.9661 23.7595 19.8056 23.7903 19.6423C23.8068 19.5544 23.7878 19.4635 23.7373 19.3897C23.6868 19.3158 23.6091 19.265 23.5212 19.2485ZM23.7215 18.1643C23.6756 18.0045 23.6173 17.8486 23.547 17.6979C23.5083 17.6182 23.4398 17.5569 23.3564 17.5273C23.2729 17.4976 23.1812 17.502 23.1009 17.5395C23.0206 17.5769 22.9583 17.6444 22.9274 17.7274C22.8965 17.8104 22.8995 17.9023 22.9357 17.9831C22.991 18.1017 23.037 18.2246 23.0732 18.3504C23.0934 18.4208 23.1359 18.4827 23.1944 18.5267C23.2528 18.5708 23.324 18.5947 23.3972 18.5947C23.4495 18.5947 23.501 18.5826 23.5478 18.5593C23.5945 18.536 23.6352 18.5021 23.6667 18.4604C23.6981 18.4187 23.7195 18.3702 23.729 18.3188C23.7385 18.2675 23.736 18.2146 23.7215 18.1643ZM18.9952 15.8511H18.5497C18.4603 15.8511 18.3745 15.8866 18.3112 15.9499C18.248 16.0131 18.2125 16.0989 18.2125 16.1884C18.2125 16.2778 18.248 16.3636 18.3112 16.4269C18.3745 16.4901 18.4603 16.5256 18.5497 16.5256H18.9952C19.0846 16.5256 19.1704 16.4901 19.2337 16.4269C19.2969 16.3636 19.3325 16.2778 19.3325 16.1884C19.3325 16.0989 19.2969 16.0131 19.2337 15.9499C19.1704 15.8866 19.0846 15.8511 18.9952 15.8511ZM17.4799 21.5851H17.4783L17.0329 21.5872C16.9444 21.5888 16.8601 21.6251 16.7981 21.6884C16.7362 21.7516 16.7016 21.8367 16.7018 21.9252C16.702 22.0137 16.737 22.0986 16.7992 22.1615C16.8614 22.2245 16.9459 22.2605 17.0344 22.2617H17.036L17.4814 22.2597C17.5709 22.2595 17.6566 22.2238 17.7197 22.1604C17.7828 22.097 17.8181 22.0111 17.8179 21.9217C17.8177 21.8322 17.782 21.7465 17.7186 21.6834C17.6552 21.6203 17.5694 21.5849 17.4799 21.5851ZM20.7919 15.8543C20.744 15.8522 20.6962 15.8511 20.6483 15.8511H20.3316C20.2421 15.8511 20.1563 15.8867 20.0931 15.9499C20.0298 16.0132 19.9943 16.099 19.9943 16.1884C19.9943 16.2779 20.0298 16.3636 20.0931 16.4269C20.1563 16.4901 20.2421 16.5257 20.3316 16.5257H20.6483C20.6864 16.5257 20.7244 16.5265 20.762 16.5282C20.8063 16.5301 20.8505 16.5234 20.8921 16.5082C20.9337 16.4931 20.972 16.47 21.0047 16.4401C21.0373 16.4102 21.0638 16.3741 21.0825 16.334C21.1013 16.2939 21.1119 16.2504 21.1139 16.2062C21.1158 16.162 21.1091 16.1177 21.094 16.0761C21.0788 16.0345 21.0557 15.9962 21.0258 15.9636C20.9959 15.9309 20.9598 15.9044 20.9197 15.8857C20.8796 15.8669 20.8361 15.8563 20.7919 15.8543ZM19.2617 21.5771H19.2602L18.8147 21.5791C18.7262 21.5807 18.6419 21.6171 18.58 21.6803C18.518 21.7436 18.4834 21.8286 18.4836 21.9171C18.4838 22.0056 18.5188 22.0905 18.581 22.1535C18.6432 22.2165 18.7277 22.2524 18.8162 22.2537H18.8178L19.2632 22.2516C19.3527 22.2512 19.4383 22.2153 19.5012 22.1518C19.5642 22.0882 19.5994 22.0023 19.599 21.9128C19.5986 21.8237 19.5629 21.7383 19.4997 21.6753C19.4365 21.6124 19.3509 21.5771 19.2617 21.5771Z" fill="white"/>
</svg>
