<svg width="28" height="28" viewBox="0 0 28 28" fill="none" xmlns="http://www.w3.org/2000/svg">
<path d="M27.0228 15.2085C26.8841 15.2085 26.7482 15.265 26.6499 15.363C26.5514 15.4622 26.4959 15.5961 26.4954 15.7359C26.4954 15.8745 26.5518 16.0106 26.6499 16.1087C26.7491 16.2072 26.883 16.2627 27.0228 16.2632C27.1616 16.2632 27.2975 16.2068 27.3956 16.1087C27.4941 16.0096 27.5496 15.8756 27.5501 15.7359C27.5501 15.5967 27.4937 15.4611 27.3956 15.363C27.2965 15.2645 27.1625 15.209 27.0228 15.2085Z" fill="#63AB45"/>
<path d="M23.4527 6.2842H23.0275V3.10036H23.6175C23.9088 3.10036 24.1449 2.86433 24.1449 2.57302V1.7326C24.1449 0.849087 23.4261 0.130371 22.5426 0.130371H17.0311C16.1478 0.130371 15.429 0.849087 15.429 1.7326V2.57302C15.429 2.86433 15.6651 3.10036 15.9564 3.10036H16.5462V6.2842H16.121C15.5986 6.28404 15.081 6.38374 14.596 6.57793V2.76708C14.596 2.54317 14.4545 2.34358 14.2432 2.26938C14.1165 2.22512 13.9777 2.23079 13.855 2.28525C13.8542 2.28567 13.8534 2.28567 13.8524 2.28609L8.00474 4.91722C7.73917 5.03671 7.62073 5.34901 7.74023 5.61452C7.85967 5.88004 8.17196 5.99869 8.43748 5.87904L11.3403 4.57302L5.83225 9.66889L2.51558 8.54375L4.53456 7.6353C4.80008 7.51586 4.91847 7.20357 4.79903 6.93805C4.67958 6.67253 4.36729 6.55388 4.10172 6.67353L0.861039 8.13158C0.764484 8.17504 0.683244 8.24656 0.627885 8.33682C0.572526 8.42708 0.545613 8.53191 0.550645 8.63767C0.555673 8.74344 0.592434 8.84524 0.65614 8.92982C0.719846 9.0144 0.807545 9.07783 0.907815 9.11186L5.5651 10.692L7.13457 14.4504C7.18153 14.5628 7.26599 14.6556 7.37358 14.7128C7.48118 14.77 7.60528 14.7882 7.72478 14.7643C7.85097 14.7389 7.96351 14.6682 8.04118 14.5655C8.04239 14.5639 8.04382 14.5624 8.04529 14.5606L9.83515 12.1389L12.024 12.8825V20.9206C12.024 23.0585 13.6703 24.818 15.7615 25.0009V25.7052C15.7615 26.4909 16.4009 27.1303 17.1866 27.1303C17.9725 27.1303 18.6117 26.4909 18.6117 25.7052V25.0176H20.962V25.7052C20.962 26.4909 21.6012 27.1303 22.3871 27.1303C23.1728 27.1303 23.8122 26.4909 23.8122 25.7052V25.0009C25.9034 24.818 27.5497 23.0584 27.5497 20.9206V17.8499C27.5497 17.5586 27.3137 17.3225 27.0224 17.3225C26.7311 17.3225 26.495 17.5586 26.495 17.8499V20.9206C26.495 22.5982 25.1304 23.9629 23.4527 23.9629H16.121C14.4434 23.9629 13.0787 22.598 13.0787 20.9207V13.2407L13.8992 13.5197C13.9785 13.5466 14.0632 13.5542 14.1461 13.5419C14.229 13.5296 14.3077 13.4978 14.3759 13.449C14.444 13.4002 14.4995 13.3358 14.5378 13.2612C14.576 13.1867 14.596 13.1041 14.596 13.0203V7.74836C15.0593 7.47974 15.5854 7.33845 16.121 7.33883H23.4528C25.1304 7.33883 26.4951 8.70359 26.4951 10.3811V13.7157C26.4951 14.007 26.7312 14.2431 27.0224 14.2431C27.3137 14.2431 27.5498 14.007 27.5498 13.7157V10.3811C27.5498 8.12204 25.7118 6.2842 23.4527 6.2842ZM22.7575 25.0176V25.705C22.7575 25.8032 22.7184 25.8974 22.6489 25.9668C22.5795 26.0363 22.4853 26.0753 22.3871 26.0754C22.2889 26.0753 22.1948 26.0362 22.1253 25.9668C22.0559 25.8974 22.0168 25.8032 22.0167 25.705V25.0176H22.7575ZM17.557 25.0176V25.705C17.557 25.9094 17.3909 26.0754 17.1866 26.0754C16.9823 26.0754 16.8162 25.9094 16.8162 25.705V25.0176H17.557ZM7.09381 10.8296V11.6159L6.58872 10.4058L9.26477 7.93003L7.20935 10.5004C7.13454 10.5938 7.09379 10.7099 7.09381 10.8296ZM8.14849 12.6464V11.5658L8.78684 11.7827L8.14849 12.6464ZM13.5413 12.2841L9.81474 11.0181C9.81353 11.0174 9.81231 11.0172 9.81126 11.0168L8.50239 10.5721L13.5413 4.2708V12.2841ZM16.4835 1.73254C16.4835 1.43053 16.7293 1.185 17.0311 1.185H22.5426C22.8446 1.185 23.0902 1.43053 23.0902 1.73254V2.04563H16.4835V1.73254ZM17.6009 3.10036H21.9728V6.2842H17.6009V3.10036Z" fill="#63AB45"/>
<path d="M14.4083 15.8179V19.8488C14.4083 21.3025 15.5911 22.4855 17.045 22.4855H22.5294C23.9832 22.4855 25.1661 21.3025 25.1661 19.8488V15.8179C25.1661 14.9455 24.4564 14.2358 23.584 14.2358H15.9903C15.1179 14.2358 14.4083 14.9455 14.4083 15.8179ZM22.5294 21.4308H17.045C16.1726 21.4308 15.4629 20.721 15.4629 19.8488V17.8667H21.2746V18.3607C21.2746 18.6518 21.5107 18.888 21.802 18.888C22.0933 18.888 22.3293 18.6518 22.3293 18.3607V17.8667H24.1114V19.8488C24.1114 20.721 23.4017 21.4308 22.5294 21.4308ZM24.1114 15.8179V16.812H15.4629V15.8179C15.4629 15.527 15.6996 15.2905 15.9903 15.2905H23.584C23.8749 15.2905 24.1114 15.527 24.1114 15.8179ZM6.48334 6.70801C6.62219 6.70801 6.75808 6.65158 6.85617 6.55349C6.95465 6.45434 7.01015 6.32041 7.01068 6.18066C7.01068 6.04144 6.95425 5.90528 6.85617 5.8072C6.75699 5.70882 6.62302 5.65353 6.48334 5.65332C6.34366 5.65361 6.20972 5.70889 6.1105 5.8072C6.01187 5.90651 5.95635 6.04069 5.95599 6.18066C5.95599 6.31935 6.01242 6.45525 6.1105 6.55349C6.20966 6.65197 6.34359 6.70748 6.48334 6.70801ZM6.37887 15.1322C5.77596 15.7351 4.97439 16.0671 4.12184 16.0671C3.97328 16.0671 3.82642 16.0571 3.68161 16.0373C3.62724 15.2718 3.30878 14.522 2.72659 13.9372C2.64812 13.855 2.27033 13.4889 1.74468 13.501C1.50321 13.506 1.14646 13.5933 0.818661 13.9825C0.317684 14.5772 0.623227 15.382 1.11882 15.8778C1.53864 16.2976 2.03076 16.6188 2.56718 16.8295C2.46801 17.2242 2.26344 17.5845 1.97534 17.8719C1.69085 18.1568 1.3353 18.3603 0.945592 18.4614C0.66378 18.5343 0.494028 18.8219 0.566959 19.1039C0.628342 19.3416 0.842602 19.4994 1.07722 19.4994C1.12183 19.4994 1.16626 19.4938 1.20947 19.4828C1.7815 19.3343 2.30345 19.0357 2.72127 18.6177C3.1588 18.1801 3.44821 17.6495 3.58927 17.0891C3.76593 17.111 3.94377 17.1219 4.12179 17.1218C5.256 17.1218 6.32265 16.6802 7.1248 15.878C7.33057 15.6721 7.33057 15.3381 7.1248 15.1322C6.91882 14.9263 6.58485 14.9263 6.37887 15.1322ZM1.86475 15.1323C1.73824 15.0054 1.57224 14.7253 1.6256 14.6619C1.67976 14.5974 1.73313 14.5568 1.76482 14.5556H1.7673C1.82167 14.5556 1.91459 14.6163 1.96094 14.6627C1.96732 14.6699 1.96674 14.6688 1.97534 14.6775C2.24729 14.9487 2.44511 15.2852 2.54988 15.6548C2.29905 15.5122 2.0686 15.3365 1.86475 15.1323ZM21.7493 11.0465C21.7493 9.96457 20.8691 9.08438 19.7872 9.08438C18.7053 9.08438 17.8251 9.96457 17.8251 11.0465C17.8251 12.1284 18.7053 13.0086 19.7872 13.0086C20.8691 13.0086 21.7493 12.1284 21.7493 11.0465ZM18.8798 11.0465C18.8798 10.5461 19.2868 10.1391 19.7872 10.1391C20.2875 10.1391 20.6946 10.5461 20.6946 11.0465C20.6946 11.5468 20.2875 11.9539 19.7872 11.9539C19.2868 11.9539 18.8798 11.5468 18.8798 11.0465Z" fill="#63AB45"/>
</svg>
