<svg width="24" height="24" viewBox="0 0 24 24" fill="none" xmlns="http://www.w3.org/2000/svg">
<path fill-rule="evenodd" clip-rule="evenodd" d="M21.2303 16.3372C21.2303 16.9082 21.6935 17.3705 22.2642 17.3705H23.213C23.3376 17.3705 23.4385 17.2696 23.4385 17.145V14.873C23.4385 14.7484 23.3376 14.6475 23.213 14.6475H22.2642C21.6933 14.6475 21.2303 15.1105 21.2303 15.6812V16.3372ZM22.2642 16.9195C21.9423 16.9195 21.6813 16.6587 21.6813 16.3372V15.6812C21.6813 15.3596 21.9424 15.0984 22.2642 15.0984H22.9875V16.9195H22.2642Z" fill="black"/>
<path fill-rule="evenodd" clip-rule="evenodd" d="M0.811045 17.2827C0.853736 17.3381 0.919715 17.3705 0.989652 17.3705H2.2639C2.83509 17.3705 3.29771 16.9081 3.29771 16.3372V15.6812C3.29771 15.1105 2.83526 14.6475 2.2639 14.6475H1.58833C1.48592 14.6475 1.39637 14.7165 1.37028 14.8155L0.771604 17.0876C0.753785 17.1552 0.768355 17.2273 0.811045 17.2827ZM1.28225 16.9195L1.7621 15.0984H2.2639C2.58603 15.0984 2.84673 15.3594 2.84673 15.6812V16.3372C2.84673 16.6588 2.58621 16.9195 2.2639 16.9195H1.28225Z" fill="black"/>
<path fill-rule="evenodd" clip-rule="evenodd" d="M4.27706 13.099L5.21611 9.5354C5.22391 9.50568 5.24137 9.47925 5.26567 9.46045C5.29003 9.44169 5.31988 9.43149 5.35059 9.43145H8.73791C8.94757 9.43145 9.1175 9.60138 9.1175 9.81099V13.1957C9.1175 13.4053 8.94757 13.5752 8.73791 13.5752H4.64407C4.39519 13.5752 4.21366 13.3397 4.27706 13.099ZM3.84095 12.984C3.70222 13.5107 4.09937 14.0262 4.64407 14.0262H8.73791C9.1966 14.0262 9.56848 13.6544 9.56848 13.1957V9.81099C9.56848 9.35235 9.19665 8.98047 8.73791 8.98047H5.35032C5.22003 8.9806 5.09322 9.02385 4.99008 9.1035C4.88695 9.18314 4.81307 9.29462 4.77996 9.42063L3.84095 12.984Z" fill="black"/>
<path fill-rule="evenodd" clip-rule="evenodd" d="M11.9244 13.5752C11.7148 13.5752 11.5449 13.4053 11.5449 13.1956V9.81095C11.5449 9.60138 11.7147 9.43145 11.9244 9.43145H15.1869C15.2175 9.43145 15.2474 9.44164 15.2716 9.46036C15.2959 9.47907 15.3133 9.50532 15.3211 9.53495L15.5749 10.4982C15.6066 10.6186 15.7299 10.6905 15.8504 10.6587C15.9708 10.627 16.0427 10.5037 16.011 10.3832L15.7572 9.42013C15.7241 9.29422 15.6502 9.18278 15.547 9.10323C15.4439 9.02372 15.3174 8.98051 15.1872 8.98047H11.9244C11.4657 8.98047 11.0939 9.3523 11.0939 9.81095V13.1956C11.0939 13.6543 11.4657 14.0262 11.9244 14.0262H15.8933C16.4467 14.0262 16.8338 13.5002 16.6936 12.974L16.6915 12.9663L16.6913 12.9655L16.3626 11.7179C16.3309 11.5975 16.2076 11.5256 16.0871 11.5573C15.9667 11.589 15.8948 11.7124 15.9265 11.8328L16.2554 13.0811L16.2556 13.082L16.2578 13.0902C16.324 13.3387 16.1416 13.5752 15.8933 13.5752H11.9244Z" fill="black"/>
<path fill-rule="evenodd" clip-rule="evenodd" d="M5.54236 19.2727C5.54236 20.0313 6.15741 20.6464 6.91609 20.6464C7.67482 20.6464 8.28982 20.0313 8.28982 19.2727C8.28982 18.514 7.67482 17.8989 6.91609 17.8989C6.15741 17.8989 5.54236 18.514 5.54236 19.2727ZM6.91609 20.1954C6.40648 20.1954 5.99334 19.7823 5.99334 19.2727C5.99334 18.763 6.40648 18.3499 6.91609 18.3499C7.42574 18.3499 7.83884 18.763 7.83884 19.2727C7.83884 19.7823 7.42574 20.1954 6.91609 20.1954Z" fill="black"/>
<path fill-rule="evenodd" clip-rule="evenodd" d="M15.1233 19.2727C15.1233 20.0313 15.7383 20.6464 16.497 20.6464C17.2557 20.6464 17.8708 20.0313 17.8708 19.2727C17.8708 18.514 17.2557 17.8989 16.497 17.8989C15.7383 17.8989 15.1233 18.514 15.1233 19.2727ZM16.497 20.1954C15.9874 20.1954 15.5743 19.7823 15.5743 19.2727C15.5743 18.763 15.9874 18.3499 16.497 18.3499C17.0066 18.3499 17.4198 18.763 17.4198 19.2727C17.4198 19.7823 17.0066 20.1954 16.497 20.1954Z" fill="black"/>
<path fill-rule="evenodd" clip-rule="evenodd" d="M3.94541 7.05804C3.45734 7.05804 3.0617 6.66243 3.0617 6.17438V4.57098C3.0617 4.08297 3.45734 3.68731 3.94541 3.68731H6.00663V7.05804H3.94541ZM2.61072 6.17438C2.61072 6.91151 3.20829 7.50902 3.94541 7.50902H6.23212C6.35663 7.50902 6.45761 7.40809 6.45761 7.28353V3.46182C6.45761 3.33728 6.35663 3.23633 6.23212 3.23633H3.94541C3.20829 3.23633 2.61072 3.83389 2.61072 4.57098V6.17438Z" fill="black"/>
<path fill-rule="evenodd" clip-rule="evenodd" d="M6.00671 7.28347C6.00671 7.40803 6.10769 7.50896 6.2322 7.50896H8.33359C8.45815 7.50896 8.55908 7.40803 8.55908 7.28347V3.46176C8.55908 2.75693 7.98774 2.18555 7.2829 2.18555C6.57811 2.18555 6.00671 2.75693 6.00671 3.46176V7.28347ZM6.45769 7.05798V3.46176C6.45769 3.00599 6.82718 2.63653 7.2829 2.63653C7.73866 2.63653 8.1081 3.00599 8.1081 3.46176V7.05798H6.45769Z" fill="black"/>
<path fill-rule="evenodd" clip-rule="evenodd" d="M8.10803 7.28353C8.10803 7.40809 8.20901 7.50902 8.33352 7.50902H11.8703C11.9948 7.50902 12.0958 7.40809 12.0958 7.28353V3.46182C12.0958 3.33728 11.9948 3.23633 11.8703 3.23633H8.33352C8.20901 3.23633 8.10803 3.33728 8.10803 3.46182V7.28353ZM8.55901 7.05804V3.68731H11.6448V7.05804H8.55901Z" fill="black"/>
<path fill-rule="evenodd" clip-rule="evenodd" d="M11.6449 7.28347C11.6449 7.40803 11.7458 7.50896 11.8704 7.50896H13.9718C14.0963 7.50896 14.1973 7.40803 14.1973 7.28347V3.46176C14.1973 2.75693 13.6259 2.18555 12.921 2.18555C12.2162 2.18555 11.6449 2.75694 11.6449 3.46176V7.28347ZM12.0959 7.05798V3.46176C12.0959 3.00598 12.4653 2.63653 12.921 2.63653C13.3768 2.63653 13.7463 3.00599 13.7463 3.46176V7.05798H12.0959Z" fill="black"/>
<path fill-rule="evenodd" clip-rule="evenodd" d="M17.1421 6.17452C17.1421 6.29908 17.2431 6.40001 17.3676 6.40001H18.8971C19.4644 6.40001 19.9242 5.94015 19.9242 5.37286C19.9242 4.80558 19.4644 4.3457 18.8971 4.3457H17.3676C17.2431 4.3457 17.1421 4.44666 17.1421 4.57119V6.17452ZM17.5931 5.94903V4.79668H18.8971C19.2153 4.79668 19.4733 5.05465 19.4733 5.37286C19.4733 5.69107 19.2153 5.94903 18.8971 5.94903H17.5931Z" fill="black"/>
<path fill-rule="evenodd" clip-rule="evenodd" d="M13.7462 7.28353C13.7462 7.40809 13.8471 7.50902 13.9717 7.50902H16.2584C16.9955 7.50902 17.5931 6.91151 17.5931 6.17438V4.57098C17.5931 3.83389 16.9955 3.23633 16.2584 3.23633H13.9717C13.8471 3.23633 13.7462 3.33728 13.7462 3.46182V7.28353ZM14.1972 7.05804V3.68731H16.2584C16.7465 3.68731 17.1421 4.08297 17.1421 4.57098V6.17438C17.1421 6.66243 16.7465 7.05804 16.2584 7.05804H14.1972Z" fill="black"/>
<path fill-rule="evenodd" clip-rule="evenodd" d="M3.81323 19.2728C3.81323 20.9864 5.20241 22.3756 6.91605 22.3756C8.62968 22.3756 10.0189 20.9864 10.0189 19.2728C10.0189 17.5591 8.62968 16.1699 6.91605 16.1699C5.20241 16.1699 3.81323 17.5591 3.81323 19.2728ZM6.91605 21.9246C5.45149 21.9246 4.26421 20.7373 4.26421 19.2728C4.26421 17.8082 5.45149 16.6209 6.91605 16.6209C8.38061 16.6209 9.5679 17.8082 9.5679 19.2728C9.5679 20.7373 8.38061 21.9246 6.91605 21.9246Z" fill="black"/>
<path fill-rule="evenodd" clip-rule="evenodd" d="M1.15791 17.3911C1.1579 17.3911 1.15792 17.3911 1.15791 17.3911L1.20775 17.2028L1.80648 14.9305L2.24905 13.251C2.28078 13.1306 2.20889 13.0073 2.08846 12.9755C1.96804 12.9438 1.84469 13.0156 1.81296 13.1361L1.37039 14.8156L0.72187 17.276C0.421078 18.418 1.28214 19.5365 2.4636 19.5365H4.03972C4.09994 19.5365 4.15766 19.5124 4.20001 19.4696C4.24236 19.4268 4.26584 19.3688 4.2652 19.3086C4.26511 19.2999 4.26481 19.2914 4.26462 19.2859L4.26456 19.2841C4.26434 19.2777 4.26427 19.2748 4.26427 19.2728C4.26427 17.8082 5.45156 16.6209 6.91611 16.6209C8.38067 16.6209 9.56792 17.8082 9.56792 19.2728C9.56792 19.2817 9.56788 19.2823 9.5677 19.2834C9.56756 19.2848 9.56729 19.2869 9.56698 19.3078C9.56612 19.3682 9.58953 19.4263 9.63187 19.4693C9.67426 19.5123 9.73208 19.5365 9.79247 19.5365H13.6207C13.6811 19.5365 13.7389 19.5123 13.7813 19.4693C13.8236 19.4263 13.8471 19.3682 13.8462 19.3078C13.8459 19.2886 13.8457 19.2857 13.8455 19.2837C13.8453 19.2821 13.8452 19.2811 13.8452 19.2728C13.8452 17.8082 15.0325 16.6209 16.4971 16.6209C17.9616 16.6209 19.1489 17.8082 19.1489 19.2728C19.1489 19.2748 19.1488 19.2777 19.1486 19.2841L19.1486 19.2859C19.1484 19.2913 19.1481 19.2999 19.148 19.3086C19.1473 19.3688 19.1708 19.4268 19.2132 19.4696C19.2555 19.5124 19.3132 19.5365 19.3735 19.5365H21.6377C22.6324 19.5365 23.4386 18.7302 23.4386 17.7351V14.873C23.4386 13.8784 22.6324 13.072 21.6377 13.072H19.3231C19.1467 13.072 18.9751 13.0136 18.8354 12.9059C18.6957 12.7981 18.5955 12.6472 18.5506 12.4766L17.6164 8.93076C17.3258 7.82703 16.3277 7.05811 15.1871 7.05811H5.3504C4.20938 7.05811 3.21174 7.82703 2.92112 8.93076L2.16807 11.7884C2.13633 11.9089 2.20823 12.0322 2.32865 12.0639C2.44908 12.0957 2.57242 12.0238 2.60416 11.9033L3.35722 9.04562C3.59569 8.13996 4.41425 7.50909 5.3504 7.50909H15.1871C16.1228 7.50909 16.9418 8.13996 17.1803 9.04558L18.1145 12.5915C18.1848 12.8584 18.3415 13.0946 18.5601 13.2631C18.7787 13.4315 19.047 13.523 19.323 13.523H21.6377C22.3833 13.523 22.9877 14.1274 22.9877 14.873V17.7351C22.9877 18.4812 22.3833 19.0855 21.6377 19.0855H19.5943C19.4975 17.4591 18.1478 16.1699 16.4971 16.1699C14.8463 16.1699 13.4967 17.4591 13.3999 19.0855H10.0134C9.91653 17.4591 8.56688 16.1699 6.91611 16.1699C5.26535 16.1699 3.91567 17.4591 3.81885 19.0855H2.4636C1.57808 19.0855 0.932515 18.2473 1.15791 17.3911Z" fill="black"/>
<path fill-rule="evenodd" clip-rule="evenodd" d="M13.3942 19.2728C13.3942 20.9864 14.7833 22.3756 16.497 22.3756C18.2106 22.3756 19.5998 20.9864 19.5998 19.2728C19.5998 17.5591 18.2106 16.1699 16.497 16.1699C14.7833 16.1699 13.3942 17.5591 13.3942 19.2728ZM16.497 21.9246C15.0324 21.9246 13.8451 20.7373 13.8451 19.2728C13.8451 17.8082 15.0324 16.6209 16.497 16.6209C17.9616 16.6209 19.1488 17.8082 19.1488 19.2728C19.1488 20.7373 17.9616 21.9246 16.497 21.9246Z" fill="black"/>
</svg>
