<svg width="111" height="20" viewBox="0 0 111 20" fill="none" xmlns="http://www.w3.org/2000/svg">
<path d="M109.61 15.0314C109.169 15.0314 108.811 15.3818 108.811 15.8132C108.811 16.2446 109.169 16.5949 109.61 16.5949C110.052 16.5949 110.41 16.2446 110.41 15.8132C110.41 15.3818 110.052 15.0314 109.61 15.0314ZM109.61 16.471C109.239 16.471 108.938 16.1751 108.938 15.8132C108.938 15.4495 109.24 15.1554 109.61 15.1554C109.982 15.1554 110.285 15.4512 110.285 15.8132C110.285 16.1751 109.982 16.471 109.61 16.471ZM109.871 15.6793C109.871 15.5372 109.768 15.4529 109.615 15.4529H109.36V16.1652H109.485V15.9074H109.622L109.754 16.1652H109.889L109.744 15.881C109.822 15.8462 109.871 15.7768 109.871 15.6793ZM109.61 15.7966H109.487V15.5603H109.61C109.695 15.5603 109.746 15.6016 109.746 15.6777C109.746 15.7553 109.693 15.7966 109.61 15.7966ZM13.2718 7.1197V5.22896H10.307V16.4776H13.2718V9.73273C13.2718 8.51134 14.0731 7.91137 15.3223 7.91137H16.945V5.229H15.5589C14.4737 5.22896 13.5305 5.78262 13.2718 7.1197ZM19.7223 0.779785C18.708 0.779785 17.9305 1.5632 17.9305 2.55485C17.9305 3.52336 18.708 4.30677 19.7223 4.30677C20.7365 4.30677 21.514 3.52336 21.514 2.55485C21.514 1.56316 20.7365 0.779785 19.7223 0.779785ZM18.2432 16.4776H21.2013V5.22896H18.2432V16.4776ZM35.2921 10.8533C35.2921 14.0645 32.6298 16.6677 29.3454 16.6677C28.0202 16.6677 26.8183 16.2429 25.8548 15.5256V19.7798H22.8967V5.22896H25.8548V6.18092C26.8183 5.46365 28.0202 5.03889 29.3454 5.03889C32.6298 5.03889 35.2921 7.64197 35.2921 10.8533ZM32.3154 10.8533C32.3154 9.10962 30.8685 7.69484 29.0851 7.69484C27.3018 7.69484 25.8549 9.10962 25.8549 10.8533C25.8549 12.5969 27.3018 14.0117 29.0851 14.0117C30.8685 14.0117 32.3154 12.5986 32.3154 10.8533ZM86.706 9.86658L84.9801 9.4038C83.8443 9.11455 83.4031 8.7741 83.4031 8.18739C83.4031 7.61552 84.0251 7.21557 84.9142 7.21557C85.7611 7.21557 86.4254 7.75766 86.4254 8.4518V8.51624H89.152V8.4518C89.152 6.41063 87.4498 5.03885 84.9142 5.03885C82.4041 5.03885 80.5802 6.40897 80.5802 8.29806C80.5802 9.76735 81.5758 10.8747 83.3134 11.3342L84.9666 11.7755C86.2225 12.1159 86.6891 12.4928 86.6891 13.1688C86.6891 13.8811 86.0147 14.3604 85.0105 14.3604C83.9642 14.3604 83.2593 13.7125 83.2593 12.7506V12.6861H80.3655V12.7506C80.3655 15.0578 82.2654 16.6709 84.987 16.6709C87.6087 16.6709 89.512 15.0959 89.512 12.9274C89.512 11.8631 89.0251 10.4715 86.706 9.86658ZM45.7859 5.22896H48.744V16.4776H45.7859V15.5255C44.8224 16.2429 43.6205 16.6676 42.2953 16.6676C39.011 16.6676 36.3486 14.0645 36.3486 10.8532C36.3486 7.64188 39.011 5.03885 42.2953 5.03885C43.6205 5.03885 44.8224 5.4636 45.7859 6.18088V5.22896ZM45.7859 10.8533C45.7859 9.10796 44.3389 7.69484 42.5556 7.69484C40.7722 7.69484 39.3253 9.10962 39.3253 10.8533C39.3253 12.5969 40.7722 14.0117 42.5556 14.0117C44.3406 14.0117 45.7859 12.5986 45.7859 10.8533ZM59.4254 1.22602H62.3835V16.4792H59.4254V15.5272C58.4618 16.2445 57.26 16.6693 55.9348 16.6693C52.6504 16.6693 49.9881 14.0662 49.9881 10.8549C49.9881 7.64355 52.6503 5.0405 55.9348 5.0405C57.26 5.0405 58.4618 5.46526 59.4254 6.18254V1.22602ZM59.4254 10.8533C59.4254 9.10962 57.9784 7.69484 56.195 7.69484C54.4118 7.69484 52.9648 9.10962 52.9648 10.8533C52.9648 12.5969 54.41 14.0117 56.195 14.0117C57.9784 14.0117 59.4254 12.5986 59.4254 10.8533ZM76.1176 16.4776H79.0757V5.22896H76.1176V16.4776ZM77.5967 0.779785C76.5824 0.779785 75.8049 1.5632 75.8049 2.55485C75.8049 3.52336 76.5824 4.30677 77.5967 4.30677C78.6109 4.30677 79.3884 3.52336 79.3884 2.55485C79.3884 1.56316 78.6109 0.779785 77.5967 0.779785ZM102.298 10.8533C102.298 14.0645 99.6355 16.6677 96.3511 16.6677C93.0668 16.6677 90.4045 14.0646 90.4045 10.8533C90.4045 7.64193 93.0668 5.03889 96.3511 5.03889C99.6355 5.03889 102.298 7.64197 102.298 10.8533ZM99.5815 10.8533C99.5815 9.10962 98.1345 7.69484 96.3512 7.69484C94.5678 7.69484 93.1209 9.10962 93.1209 10.8533C93.1209 12.5969 94.5661 14.0117 96.3512 14.0117C98.1345 14.0117 99.5815 12.5986 99.5815 10.8533ZM11.7573 1.22602H0.409912V3.80597H4.61047V16.4776H7.55845V3.80597H11.759V1.22602H11.7573ZM69.1432 13.3968L66.5113 5.229H63.4044L67.3514 16.4776H70.9113L74.8819 5.229H71.775L69.1432 13.3968ZM106.632 7.1197V5.22896H103.667V16.4776H106.632V9.73273C106.632 8.51134 107.433 7.91137 108.682 7.91137H110.305V5.229H108.919C107.834 5.22896 106.892 5.78262 106.632 7.1197Z" fill="white"/>
</svg>
