<svg width="74" height="17" viewBox="0 0 74 17" fill="none" xmlns="http://www.w3.org/2000/svg">
<path d="M0.820393 0.983459H10.8354V2.887H6.89209V13.6175H4.73069V2.887H0.803894L0.820393 0.983459ZM10.4064 4.4704H12.2543V6.2392H12.2873C12.3533 5.9865 12.4688 5.7507 12.6338 5.5148C12.7988 5.279 12.9968 5.06 13.2443 4.8747C13.4753 4.6726 13.7392 4.521 14.0362 4.4031C14.3167 4.2851 14.6137 4.2178 14.9107 4.2178C15.1417 4.2178 15.3067 4.2346 15.3892 4.2346C15.4717 4.2514 15.5707 4.2683 15.6532 4.2683V6.2055C15.5212 6.1718 15.3727 6.155 15.2242 6.1381C15.0757 6.1213 14.9437 6.1044 14.7952 6.1044C14.4652 6.1044 14.1517 6.1718 13.8547 6.3066C13.5578 6.4413 13.3103 6.6435 13.0793 6.8962C12.8648 7.1657 12.6833 7.4858 12.5513 7.8732C12.4193 8.2606 12.3533 8.7155 12.3533 9.2208V13.5669H10.3734L10.4064 4.4704ZM24.7277 13.6175H22.7808V12.3372H22.7478C22.5003 12.8089 22.1373 13.1626 21.6588 13.449C21.1804 13.7354 20.6854 13.8701 20.1904 13.8701C19.019 13.8701 18.161 13.5838 17.6331 12.9773C17.1051 12.3877 16.8411 11.4781 16.8411 10.2821V4.4704H18.821V10.0799C18.821 10.8885 18.9695 11.4612 19.283 11.7813C19.58 12.1182 20.0089 12.2867 20.5534 12.2867C20.9659 12.2867 21.3124 12.2193 21.5929 12.0845C21.8733 11.9498 22.1043 11.7813 22.2693 11.5623C22.4508 11.3433 22.5663 11.0738 22.6488 10.7706C22.7313 10.4674 22.7643 10.1305 22.7643 9.7767V4.4704H24.7442V13.6175H24.7277ZM28.0935 10.6864C28.1595 11.2759 28.374 11.6802 28.7535 11.9329C29.133 12.1688 29.5949 12.2867 30.1229 12.2867C30.3044 12.2867 30.5189 12.2698 30.7499 12.2361C30.9809 12.2024 31.2119 12.1519 31.4099 12.0677C31.6243 11.9835 31.7893 11.8655 31.9213 11.6971C32.0533 11.5286 32.1193 11.3265 32.1028 11.0738C32.0863 10.8211 32.0038 10.6021 31.8223 10.4337C31.6408 10.2652 31.4264 10.1473 31.1624 10.0294C30.8984 9.9283 30.5849 9.8441 30.2384 9.7767C29.8919 9.7093 29.5454 9.6251 29.1825 9.5409C28.8195 9.4567 28.4565 9.3556 28.11 9.2377C27.7635 9.1198 27.4666 8.9681 27.1861 8.7491C26.9221 8.547 26.6911 8.2943 26.5426 7.9743C26.3776 7.6542 26.2951 7.2836 26.2951 6.8119C26.2951 6.3066 26.4106 5.9023 26.6581 5.5654C26.8891 5.2285 27.2026 4.959 27.5655 4.7568C27.9285 4.5547 28.341 4.4031 28.7865 4.3188C29.232 4.2346 29.6609 4.2009 30.0569 4.2009C30.5189 4.2009 30.9644 4.2515 31.3769 4.3525C31.7893 4.4536 32.1853 4.6052 32.5153 4.841C32.8618 5.06 33.1423 5.3632 33.3568 5.717C33.5877 6.0707 33.7197 6.5087 33.7857 7.0141H31.7233C31.6243 6.5256 31.4099 6.2055 31.0799 6.0371C30.7334 5.8686 30.3539 5.7844 29.9084 5.7844C29.7764 5.7844 29.5949 5.8012 29.4135 5.8181C29.2155 5.8518 29.0505 5.8854 28.869 5.9528C28.704 6.0202 28.5555 6.1213 28.44 6.2392C28.3245 6.3571 28.2585 6.5256 28.2585 6.7277C28.2585 6.9804 28.341 7.1657 28.506 7.3173C28.671 7.4689 28.8855 7.5868 29.166 7.7047C29.43 7.8058 29.7434 7.89 30.0899 7.9574C30.4364 8.0248 30.7994 8.109 31.1624 8.1933C31.5253 8.2775 31.8718 8.3786 32.2183 8.4965C32.5648 8.6144 32.8783 8.766 33.1423 8.985C33.4063 9.1871 33.6372 9.4398 33.8022 9.743C33.9672 10.0462 34.0497 10.4337 34.0497 10.8717C34.0497 11.4107 33.9342 11.8655 33.6867 12.253C33.4392 12.6236 33.1258 12.9436 32.7463 13.1795C32.3668 13.4153 31.9213 13.5838 31.4593 13.7017C30.9809 13.8028 30.5189 13.8701 30.0569 13.8701C29.4959 13.8701 28.968 13.8028 28.4895 13.668C28.011 13.5332 27.582 13.3311 27.2356 13.0784C26.8891 12.8089 26.6086 12.4888 26.4106 12.0845C26.2126 11.6971 26.0971 11.2254 26.0806 10.6695H28.077V10.6864H28.0935ZM34.6107 4.4704H36.1121V1.7078H38.092V4.4536H39.8739V5.9528H38.092V10.838C38.092 11.057 38.1085 11.2254 38.125 11.3939C38.1415 11.5455 38.191 11.6802 38.2405 11.7813C38.3065 11.8824 38.4055 11.9666 38.521 12.0171C38.653 12.0677 38.818 12.1014 39.049 12.1014C39.181 12.1014 39.3294 12.1014 39.4614 12.0845C39.5934 12.0677 39.7419 12.0508 39.8739 12.0171V13.5838C39.6594 13.6175 39.4449 13.6343 39.2305 13.6511C39.016 13.6848 38.818 13.6848 38.587 13.6848C38.059 13.6848 37.6465 13.6343 37.3331 13.5332C37.0196 13.4322 36.7721 13.2805 36.5906 13.0952C36.4091 12.8931 36.2936 12.6573 36.2276 12.3709C36.1616 12.0845 36.1286 11.7308 36.1121 11.3602V5.9697H34.6107V4.4367V4.4704ZM41.2599 4.4704H43.1243V5.717H43.1573C43.4377 5.1779 43.8172 4.8073 44.3122 4.5715C44.8072 4.3357 45.3351 4.2178 45.9291 4.2178C46.6386 4.2178 47.249 4.3357 47.777 4.6052C48.305 4.8579 48.734 5.1948 49.0805 5.6496C49.4269 6.0876 49.6909 6.6098 49.8559 7.1994C50.0209 7.789 50.1199 8.4291 50.1199 9.0861C50.1199 9.7093 50.0374 10.2989 49.8889 10.8717C49.7239 11.4444 49.4929 11.9666 49.1794 12.4046C48.866 12.8426 48.47 13.1963 47.975 13.4658C47.48 13.7354 46.9191 13.8701 46.2591 13.8701C45.9786 13.8701 45.6816 13.8364 45.4011 13.7859C45.1207 13.7354 44.8402 13.6511 44.5762 13.5332C44.3122 13.4153 44.0647 13.2637 43.8502 13.0784C43.6192 12.8931 43.4377 12.6741 43.2893 12.4383H43.2563V17.0034H41.2764V4.4704H41.2599ZM48.173 9.0524C48.173 8.6481 48.1235 8.2438 48.008 7.8563C47.909 7.4689 47.744 7.132 47.5295 6.8288C47.315 6.5256 47.0511 6.2897 46.7541 6.1044C46.4406 5.9191 46.0776 5.8349 45.6816 5.8349C44.8567 5.8349 44.2297 6.1213 43.8007 6.7109C43.3882 7.3005 43.1738 8.0922 43.1738 9.0692C43.1738 9.5409 43.2233 9.962 43.3387 10.3495C43.4542 10.7369 43.6027 11.0738 43.8337 11.3602C44.0482 11.6465 44.3122 11.8655 44.6257 12.034C44.9392 12.2024 45.2857 12.2867 45.6981 12.2867C46.1601 12.2867 46.5231 12.1856 46.8366 12.0003C47.1501 11.815 47.3975 11.5623 47.612 11.2759C47.81 10.9727 47.9585 10.6358 48.041 10.2484C48.1235 9.8441 48.173 9.4567 48.173 9.0524ZM51.6543 0.983459H53.6342V2.887H51.6543V0.983459ZM51.6543 4.4704H53.6342V13.6175H51.6543V4.4704ZM55.3996 0.983459H57.3795V13.6175H55.3996V0.983459ZM63.4182 13.8701C62.7088 13.8701 62.0653 13.7522 61.5043 13.4995C60.9434 13.2469 60.4814 12.9268 60.0854 12.5057C59.7059 12.0845 59.4089 11.5623 59.2109 10.9727C59.0129 10.3831 58.8975 9.7262 58.8975 9.0355C58.8975 8.3449 58.9964 7.7047 59.2109 7.1152C59.4089 6.5256 59.7059 6.0202 60.0854 5.5822C60.4649 5.1611 60.9434 4.8242 61.5043 4.5884C62.0653 4.3525 62.7088 4.2178 63.4182 4.2178C64.1277 4.2178 64.7712 4.3357 65.3321 4.5884C65.8931 4.8242 66.3551 5.1611 66.7511 5.5822C67.1305 6.0034 67.4275 6.5256 67.6255 7.1152C67.8235 7.7047 67.939 8.3449 67.939 9.0355C67.939 9.743 67.84 10.3831 67.6255 10.9727C67.411 11.5623 67.1305 12.0677 66.7511 12.5057C66.3716 12.9268 65.8931 13.2637 65.3321 13.4995C64.7712 13.7354 64.1442 13.8701 63.4182 13.8701ZM63.4182 12.2698C63.8472 12.2698 64.2432 12.1688 64.5567 11.9835C64.8867 11.7982 65.1341 11.5455 65.3486 11.2423C65.5631 10.939 65.7116 10.5853 65.8106 10.2147C65.9096 9.8273 65.9591 9.4398 65.9591 9.0355C65.9591 8.6481 65.9096 8.2606 65.8106 7.8732C65.7116 7.4858 65.5631 7.1488 65.3486 6.8456C65.1341 6.5424 64.8702 6.3066 64.5567 6.1213C64.2267 5.936 63.8472 5.8349 63.4182 5.8349C62.9892 5.8349 62.5933 5.936 62.2798 6.1213C61.9498 6.3066 61.7023 6.5593 61.4878 6.8456C61.2733 7.1488 61.1248 7.4858 61.0258 7.8732C60.9269 8.2606 60.8774 8.6481 60.8774 9.0355C60.8774 9.4398 60.9269 9.8273 61.0258 10.2147C61.1248 10.6021 61.2733 10.939 61.4878 11.2423C61.7023 11.5455 61.9663 11.7982 62.2798 11.9835C62.6098 12.1856 62.9892 12.2698 63.4182 12.2698ZM68.533 4.4704H70.0344V1.7078H72.0143V4.4536H73.7962V5.9528H72.0143V10.838C72.0143 11.057 72.0308 11.2254 72.0473 11.3939C72.0638 11.5455 72.1133 11.6802 72.1628 11.7813C72.2288 11.8824 72.3278 11.9666 72.4433 12.0171C72.5753 12.0677 72.7403 12.1014 72.9712 12.1014C73.1032 12.1014 73.2517 12.1014 73.3837 12.0845C73.5157 12.0677 73.6642 12.0508 73.7962 12.0171V13.5838C73.5817 13.6175 73.3672 13.6343 73.1527 13.6511C72.9382 13.6848 72.7403 13.6848 72.5093 13.6848C71.9813 13.6848 71.5688 13.6343 71.2553 13.5332C70.9418 13.4322 70.6944 13.2805 70.5129 13.0952C70.3314 12.8931 70.2159 12.6573 70.1499 12.3709C70.0839 12.0845 70.0509 11.7308 70.0344 11.3602V5.9697H68.533V4.4367V4.4704Z" fill="white"/>
</svg>
