<svg width="11" height="11" viewBox="0 0 11 11" fill="none" xmlns="http://www.w3.org/2000/svg">
<path d="M3.06668 10.1067C2.93334 10.1511 2.81668 10.1344 2.71668 10.0567C2.61668 9.97889 2.57779 9.86222 2.60001 9.70667L3.10001 6.77333L0.900009 4.67333C0.81112 4.56222 0.783343 4.44 0.816676 4.30667C0.850009 4.17333 0.944454 4.09556 1.10001 4.07333L4.13334 3.64L5.50001 0.940001C5.56668 0.806668 5.66668 0.740002 5.80001 0.740002C5.93334 0.740002 6.03334 0.806668 6.10001 0.940001L7.46668 3.64L10.5333 4.07333C10.6667 4.09556 10.75 4.17333 10.7833 4.30667C10.8167 4.44 10.7889 4.56222 10.7 4.67333L8.50001 6.77333L9.00001 9.70667C9.02223 9.86222 8.98334 9.97889 8.88334 10.0567C8.78334 10.1344 8.66668 10.1511 8.53334 10.1067L5.80001 8.67334L3.06668 10.1067Z" fill="#00AA6C"/>
</svg>
