<svg width="100" height="26" viewBox="0 0 100 26" fill="none" xmlns="http://www.w3.org/2000/svg">
<g clip-path="url(#clip0_1_3087)">
<path d="M26.8204 8.98346H36.8354V10.887H32.8921V21.6175H30.7307V10.887H26.8039L26.8204 8.98346ZM36.4064 12.4704H38.2543V14.2392H38.2873C38.3533 13.9865 38.4688 13.7507 38.6338 13.5148C38.7988 13.279 38.9968 13.06 39.2443 12.8747C39.4753 12.6726 39.7392 12.521 40.0362 12.4031C40.3167 12.2851 40.6137 12.2178 40.9107 12.2178C41.1417 12.2178 41.3067 12.2346 41.3892 12.2346C41.4717 12.2514 41.5707 12.2683 41.6532 12.2683V14.2055C41.5212 14.1718 41.3727 14.155 41.2242 14.1381C41.0757 14.1213 40.9437 14.1044 40.7952 14.1044C40.4652 14.1044 40.1517 14.1718 39.8547 14.3066C39.5578 14.4413 39.3103 14.6435 39.0793 14.8962C38.8648 15.1657 38.6833 15.4858 38.5513 15.8732C38.4193 16.2606 38.3533 16.7155 38.3533 17.2208V21.5669H36.3734L36.4064 12.4704ZM50.7277 21.6175H48.7808V20.3372H48.7478C48.5003 20.8089 48.1373 21.1626 47.6588 21.449C47.1804 21.7354 46.6854 21.8701 46.1904 21.8701C45.019 21.8701 44.161 21.5838 43.6331 20.9773C43.1051 20.3877 42.8411 19.4781 42.8411 18.2821V12.4704H44.821V18.0799C44.821 18.8885 44.9695 19.4612 45.283 19.7813C45.58 20.1182 46.0089 20.2867 46.5534 20.2867C46.9659 20.2867 47.3124 20.2193 47.5929 20.0845C47.8733 19.9498 48.1043 19.7813 48.2693 19.5623C48.4508 19.3433 48.5663 19.0738 48.6488 18.7706C48.7313 18.4674 48.7643 18.1305 48.7643 17.7767V12.4704H50.7442V21.6175H50.7277ZM54.0935 18.6864C54.1595 19.2759 54.374 19.6802 54.7535 19.9329C55.133 20.1688 55.5949 20.2867 56.1229 20.2867C56.3044 20.2867 56.5189 20.2698 56.7499 20.2361C56.9809 20.2024 57.2119 20.1519 57.4099 20.0677C57.6243 19.9835 57.7893 19.8655 57.9213 19.6971C58.0533 19.5286 58.1193 19.3265 58.1028 19.0738C58.0863 18.8211 58.0038 18.6021 57.8223 18.4337C57.6408 18.2652 57.4264 18.1473 57.1624 18.0294C56.8984 17.9283 56.5849 17.8441 56.2384 17.7767C55.8919 17.7093 55.5454 17.6251 55.1825 17.5409C54.8195 17.4567 54.4565 17.3556 54.11 17.2377C53.7635 17.1198 53.4666 16.9681 53.1861 16.7491C52.9221 16.547 52.6911 16.2943 52.5426 15.9743C52.3776 15.6542 52.2951 15.2836 52.2951 14.8119C52.2951 14.3066 52.4106 13.9023 52.6581 13.5654C52.8891 13.2285 53.2026 12.959 53.5655 12.7568C53.9285 12.5547 54.341 12.4031 54.7865 12.3188C55.232 12.2346 55.6609 12.2009 56.0569 12.2009C56.5189 12.2009 56.9644 12.2515 57.3769 12.3525C57.7893 12.4536 58.1853 12.6052 58.5153 12.841C58.8618 13.06 59.1423 13.3632 59.3568 13.717C59.5877 14.0707 59.7197 14.5087 59.7857 15.0141H57.7233C57.6243 14.5256 57.4099 14.2055 57.0799 14.0371C56.7334 13.8686 56.3539 13.7844 55.9084 13.7844C55.7764 13.7844 55.5949 13.8012 55.4135 13.8181C55.2155 13.8518 55.0505 13.8854 54.869 13.9528C54.704 14.0202 54.5555 14.1213 54.44 14.2392C54.3245 14.3571 54.2585 14.5256 54.2585 14.7277C54.2585 14.9804 54.341 15.1657 54.506 15.3173C54.671 15.4689 54.8855 15.5868 55.166 15.7047C55.43 15.8058 55.7434 15.89 56.0899 15.9574C56.4364 16.0248 56.7994 16.109 57.1624 16.1933C57.5253 16.2775 57.8718 16.3786 58.2183 16.4965C58.5648 16.6144 58.8783 16.766 59.1423 16.985C59.4063 17.1871 59.6372 17.4398 59.8022 17.743C59.9672 18.0462 60.0497 18.4337 60.0497 18.8717C60.0497 19.4107 59.9342 19.8655 59.6867 20.253C59.4392 20.6236 59.1258 20.9436 58.7463 21.1795C58.3668 21.4153 57.9213 21.5838 57.4593 21.7017C56.9809 21.8028 56.5189 21.8701 56.0569 21.8701C55.4959 21.8701 54.968 21.8028 54.4895 21.668C54.011 21.5332 53.582 21.3311 53.2356 21.0784C52.8891 20.8089 52.6086 20.4888 52.4106 20.0845C52.2126 19.6971 52.0971 19.2254 52.0806 18.6695H54.077V18.6864H54.0935ZM60.6107 12.4704H62.1121V9.7078H64.092V12.4536H65.8739V13.9528H64.092V18.838C64.092 19.057 64.1085 19.2254 64.125 19.3939C64.1415 19.5455 64.191 19.6802 64.2405 19.7813C64.3065 19.8824 64.4055 19.9666 64.521 20.0171C64.653 20.0677 64.818 20.1014 65.049 20.1014C65.181 20.1014 65.3294 20.1014 65.4614 20.0845C65.5934 20.0677 65.7419 20.0508 65.8739 20.0171V21.5838C65.6594 21.6175 65.4449 21.6343 65.2305 21.6511C65.016 21.6848 64.818 21.6848 64.587 21.6848C64.059 21.6848 63.6465 21.6343 63.3331 21.5332C63.0196 21.4322 62.7721 21.2805 62.5906 21.0952C62.4091 20.8931 62.2936 20.6573 62.2276 20.3709C62.1616 20.0845 62.1286 19.7308 62.1121 19.3602V13.9697H60.6107V12.4367V12.4704ZM67.2599 12.4704H69.1243V13.717H69.1573C69.4377 13.1779 69.8172 12.8073 70.3122 12.5715C70.8072 12.3357 71.3351 12.2178 71.9291 12.2178C72.6386 12.2178 73.249 12.3357 73.777 12.6052C74.305 12.8579 74.734 13.1948 75.0805 13.6496C75.4269 14.0876 75.6909 14.6098 75.8559 15.1994C76.0209 15.789 76.1199 16.4291 76.1199 17.0861C76.1199 17.7093 76.0374 18.2989 75.8889 18.8717C75.7239 19.4444 75.4929 19.9666 75.1794 20.4046C74.866 20.8426 74.47 21.1963 73.975 21.4658C73.48 21.7354 72.9191 21.8701 72.2591 21.8701C71.9786 21.8701 71.6816 21.8364 71.4011 21.7859C71.1207 21.7354 70.8402 21.6511 70.5762 21.5332C70.3122 21.4153 70.0647 21.2637 69.8502 21.0784C69.6192 20.8931 69.4377 20.6741 69.2893 20.4383H69.2563V25.0034H67.2764V12.4704H67.2599ZM74.173 17.0524C74.173 16.6481 74.1235 16.2438 74.008 15.8563C73.909 15.4689 73.744 15.132 73.5295 14.8288C73.315 14.5256 73.0511 14.2897 72.7541 14.1044C72.4406 13.9191 72.0776 13.8349 71.6816 13.8349C70.8567 13.8349 70.2297 14.1213 69.8007 14.7109C69.3882 15.3005 69.1738 16.0922 69.1738 17.0692C69.1738 17.5409 69.2233 17.962 69.3387 18.3495C69.4542 18.7369 69.6027 19.0738 69.8337 19.3602C70.0482 19.6465 70.3122 19.8655 70.6257 20.034C70.9392 20.2024 71.2857 20.2867 71.6981 20.2867C72.1601 20.2867 72.5231 20.1856 72.8366 20.0003C73.1501 19.815 73.3975 19.5623 73.612 19.2759C73.81 18.9727 73.9585 18.6358 74.041 18.2484C74.1235 17.8441 74.173 17.4567 74.173 17.0524ZM77.6543 8.98346H79.6342V10.887H77.6543V8.98346ZM77.6543 12.4704H79.6342V21.6175H77.6543V12.4704ZM81.3996 8.98346H83.3795V21.6175H81.3996V8.98346ZM89.4182 21.8701C88.7088 21.8701 88.0653 21.7522 87.5043 21.4995C86.9434 21.2469 86.4814 20.9268 86.0854 20.5057C85.7059 20.0845 85.4089 19.5623 85.2109 18.9727C85.0129 18.3831 84.8975 17.7262 84.8975 17.0355C84.8975 16.3449 84.9964 15.7047 85.2109 15.1152C85.4089 14.5256 85.7059 14.0202 86.0854 13.5822C86.4649 13.1611 86.9434 12.8242 87.5043 12.5884C88.0653 12.3525 88.7088 12.2178 89.4182 12.2178C90.1277 12.2178 90.7712 12.3357 91.3321 12.5884C91.8931 12.8242 92.3551 13.1611 92.7511 13.5822C93.1305 14.0034 93.4275 14.5256 93.6255 15.1152C93.8235 15.7047 93.939 16.3449 93.939 17.0355C93.939 17.743 93.84 18.3831 93.6255 18.9727C93.411 19.5623 93.1305 20.0677 92.7511 20.5057C92.3716 20.9268 91.8931 21.2637 91.3321 21.4995C90.7712 21.7354 90.1442 21.8701 89.4182 21.8701ZM89.4182 20.2698C89.8472 20.2698 90.2432 20.1688 90.5567 19.9835C90.8867 19.7982 91.1341 19.5455 91.3486 19.2423C91.5631 18.939 91.7116 18.5853 91.8106 18.2147C91.9096 17.8273 91.9591 17.4398 91.9591 17.0355C91.9591 16.6481 91.9096 16.2606 91.8106 15.8732C91.7116 15.4858 91.5631 15.1488 91.3486 14.8456C91.1341 14.5424 90.8702 14.3066 90.5567 14.1213C90.2267 13.936 89.8472 13.8349 89.4182 13.8349C88.9892 13.8349 88.5933 13.936 88.2798 14.1213C87.9498 14.3066 87.7023 14.5593 87.4878 14.8456C87.2733 15.1488 87.1248 15.4858 87.0258 15.8732C86.9269 16.2606 86.8774 16.6481 86.8774 17.0355C86.8774 17.4398 86.9269 17.8273 87.0258 18.2147C87.1248 18.6021 87.2733 18.939 87.4878 19.2423C87.7023 19.5455 87.9663 19.7982 88.2798 19.9835C88.6098 20.1856 88.9892 20.2698 89.4182 20.2698ZM94.533 12.4704H96.0344V9.7078H98.0143V12.4536H99.7962V13.9528H98.0143V18.838C98.0143 19.057 98.0308 19.2254 98.0473 19.3939C98.0638 19.5455 98.1133 19.6802 98.1628 19.7813C98.2288 19.8824 98.3278 19.9666 98.4433 20.0171C98.5753 20.0677 98.7403 20.1014 98.9712 20.1014C99.1032 20.1014 99.2517 20.1014 99.3837 20.0845C99.5157 20.0677 99.6642 20.0508 99.7962 20.0171V21.5838C99.5817 21.6175 99.3672 21.6343 99.1527 21.6511C98.9382 21.6848 98.7403 21.6848 98.5093 21.6848C97.9813 21.6848 97.5688 21.6343 97.2553 21.5332C96.9418 21.4322 96.6944 21.2805 96.5129 21.0952C96.3314 20.8931 96.2159 20.6573 96.1499 20.3709C96.0839 20.0845 96.0509 19.7308 96.0344 19.3602V13.9697H94.533V12.4367V12.4704Z" fill="white"/>
<path d="M24.5093 8.98375H15.4513L12.6629 0.190491L9.85803 8.98375L0.799988 8.96691L8.12562 14.4079L5.32076 23.2012L12.6464 17.7602L19.972 23.2012L17.1837 14.4079L24.5093 8.98375Z" fill="#00B67A"/>
<path d="M17.811 16.3955L17.1841 14.4078L12.6633 17.76L17.811 16.3955Z" fill="#005128"/>
</g>
<defs>
<clipPath id="clip0_1_3087">
<rect width="99" height="25" fill="white" transform="translate(0.799988 0.190002)"/>
</clipPath>
</defs>
</svg>
