<svg width="15" height="14" viewBox="0 0 15 14" fill="none" xmlns="http://www.w3.org/2000/svg">
<path d="M12.067 4.66211C12.067 4.7168 12.067 4.76921 12.067 4.81934C12.067 4.86947 12.067 4.92188 12.067 4.97656C12.067 5.7513 11.9212 6.53516 11.6295 7.32812C11.3378 8.12109 10.9095 8.83887 10.3444 9.48145C9.77926 10.124 9.08199 10.6458 8.25256 11.0469C7.42314 11.457 6.4661 11.6621 5.38147 11.6621C4.71611 11.6621 4.07808 11.5687 3.46741 11.3818C2.85673 11.195 2.29163 10.9329 1.77209 10.5957C1.87236 10.6139 1.96806 10.623 2.0592 10.623C2.15035 10.623 2.24605 10.623 2.34631 10.623C2.34631 10.623 2.35087 10.623 2.35999 10.623C2.90686 10.623 3.42867 10.5342 3.92542 10.3564C4.42216 10.1787 4.87105 9.93034 5.27209 9.61133L5.25842 9.625C4.74801 9.61589 4.29456 9.46094 3.89807 9.16016C3.50159 8.85938 3.22587 8.47656 3.07092 8.01172V7.99805C3.13472 8.00716 3.20536 8.01628 3.28284 8.02539C3.36031 8.03451 3.43551 8.03906 3.50842 8.03906C3.6178 8.03906 3.72262 8.02995 3.82288 8.01172C3.92314 7.99349 4.0234 7.97526 4.12366 7.95703C3.5859 7.83854 3.137 7.5651 2.77698 7.13672C2.41695 6.70833 2.23694 6.21159 2.23694 5.64648V5.61914C2.401 5.70117 2.5719 5.76953 2.74963 5.82422C2.92737 5.87891 3.11194 5.91081 3.30334 5.91992C2.98433 5.70117 2.72913 5.4209 2.53772 5.0791C2.34631 4.7373 2.25061 4.36589 2.25061 3.96484C2.25061 3.74609 2.28023 3.53646 2.33948 3.33594C2.39872 3.13542 2.47847 2.94857 2.57874 2.77539C2.8704 3.13086 3.19397 3.45443 3.54944 3.74609C3.90491 4.03776 4.28772 4.28841 4.69788 4.49805C5.10803 4.70768 5.54097 4.8763 5.9967 5.00391C6.45243 5.13151 6.92183 5.20898 7.40491 5.23633H7.41858C7.40035 5.14518 7.38668 5.05404 7.37756 4.96289C7.36845 4.87174 7.36389 4.7806 7.36389 4.68945C7.36389 4.04232 7.59403 3.48861 8.05432 3.02832C8.51461 2.56803 9.06832 2.33789 9.71545 2.33789C10.0527 2.33789 10.3694 2.40625 10.6656 2.54297C10.9619 2.67969 11.2148 2.86198 11.4244 3.08984C11.707 3.03516 11.9736 2.95768 12.2242 2.85742C12.4749 2.75716 12.7142 2.63867 12.942 2.50195L12.9147 2.51562C12.8235 2.79818 12.6914 3.04883 12.5182 3.26758C12.345 3.48633 12.1399 3.66862 11.903 3.81445H11.8893C12.1354 3.78711 12.3746 3.74154 12.6071 3.67773C12.8395 3.61393 13.0605 3.5319 13.2701 3.43164L13.2428 3.44531C13.0787 3.68229 12.8987 3.90104 12.7028 4.10156C12.5068 4.30208 12.2994 4.48438 12.0807 4.64844L12.067 4.66211Z" fill="white"/>
</svg>
