<svg width="19" height="24" viewBox="0 0 19 24" fill="none" xmlns="http://www.w3.org/2000/svg">
<path d="M6.88918 14.7447C6.89062 14.7448 6.89196 14.7452 6.89336 14.7453C6.89623 14.7454 6.89911 14.7465 6.90198 14.7465C6.90382 14.7465 6.90625 14.7457 6.90809 14.7457C6.91564 14.7458 6.92291 14.7469 6.93046 14.7469C9.21846 14.7469 11.08 12.8855 11.08 10.5974C11.08 8.30925 9.21864 6.44787 6.93064 6.44787C6.92633 6.44787 6.92215 6.4485 6.91784 6.44854C6.91267 6.44827 6.90746 6.44904 6.90225 6.44904C6.89229 6.44907 6.88234 6.44958 6.87242 6.45057C6.86672 6.4511 6.86097 6.45084 6.85526 6.45169C4.60225 6.49248 2.78116 8.33468 2.78116 10.5974C2.78116 12.8715 4.6204 14.7221 6.88918 14.7447ZM3.70296 12.016H4.64573C4.86473 12.731 5.2471 13.384 5.76973 13.925C4.84537 13.6014 4.09562 12.9058 3.70296 12.016ZM10.4584 10.5973C10.4584 10.8718 10.4237 11.1378 10.3642 11.3944H9.30274C9.34634 11.1316 9.37104 10.8631 9.37104 10.5896C9.37104 10.3218 9.34684 10.0586 9.30434 9.80048H10.3642C10.4238 10.057 10.4584 10.323 10.4584 10.5973ZM8.74944 10.605C8.74944 10.8736 8.72364 11.1375 8.67464 11.3944H7.24132V9.80052H8.67334C8.72404 10.0657 8.74944 10.3351 8.74944 10.605ZM5.3024 12.016H6.61974V13.8592C6.01078 13.3727 5.56003 12.7359 5.3024 12.016ZM7.24132 13.8113V12.016H8.50384C8.25464 12.7114 7.82254 13.3302 7.24132 13.8113ZM7.24132 9.1789V7.38346C7.82134 7.86363 8.25284 8.4818 8.50224 9.1789H7.24132ZM6.61974 7.33553V9.1789H5.3007C5.55801 8.46068 6.00938 7.82293 6.61974 7.33553ZM6.61974 9.80048V11.3944H5.13121C5.08053 11.1291 5.05507 10.8597 5.05515 10.5896C5.05515 10.3212 5.08089 10.0573 5.12981 9.80048H6.61974ZM4.50032 11.3944H3.49695C3.43738 11.1378 3.40275 10.8718 3.40275 10.5973C3.40275 10.3229 3.43734 10.057 3.4969 9.80048H4.50181C4.45832 10.0632 4.43361 10.3316 4.43361 10.605C4.43361 10.8729 4.45783 11.1363 4.50032 11.3944ZM8.00024 13.9584C8.53704 13.4138 8.93394 12.7473 9.15714 12.016H10.1581C9.75254 12.9352 8.96694 13.65 8.00024 13.9584ZM10.1582 9.1789H9.15894C8.93524 8.44743 8.53784 7.78098 8.00064 7.23643C8.96724 7.54491 9.75274 8.25966 10.1582 9.1789ZM5.77004 7.26963C5.24854 7.80972 4.86666 8.46226 4.64735 9.1789H3.70287C4.09553 8.2889 4.84546 7.59315 5.77004 7.26963ZM17.872 4.86065C17.659 4.44786 17.2994 4.14333 16.8595 4.00291L7.02552 0.862962C6.58582 0.722131 6.11616 0.762202 5.70342 0.975445C5.29072 1.18833 4.98611 1.54789 4.84568 1.98776L4.19301 4.03166H1.76903C0.812554 4.03166 0.0344238 4.80988 0.0344238 5.76636V22.0458C0.0344238 23.0023 0.812554 23.7803 1.76903 23.7803H12.0921C13.0486 23.7803 13.8267 23.0023 13.8267 22.0458V19.2044L17.9843 6.18279C18.1248 5.74309 18.0849 5.27343 17.872 4.86065ZM13.2051 22.0458C13.2051 22.6595 12.7058 23.1587 12.0921 23.1587H1.76903C1.15531 23.1587 0.656044 22.6595 0.656044 22.0458V5.76636C0.656044 5.15264 1.15535 4.65329 1.76903 4.65329H12.0921C12.7058 4.65329 13.2051 5.15268 13.2051 5.76636V22.0458ZM17.3923 5.9938L13.8267 17.161V5.76636C13.8267 4.80988 13.0486 4.03166 12.0921 4.03166H4.84537L5.43771 2.17679C5.52764 1.89513 5.72323 1.66464 5.9884 1.52767C6.25349 1.39088 6.55456 1.36519 6.83653 1.45503L16.6705 4.59502C16.9522 4.68505 17.1828 4.88055 17.3195 5.14581C17.4563 5.41085 17.4822 5.71214 17.3923 5.9938ZM11.1229 17.1497C11.1229 17.2321 11.0902 17.3112 11.0319 17.3694C10.9736 17.4277 10.8946 17.4605 10.8121 17.4605H3.04885C2.96733 17.4591 2.88962 17.4258 2.83247 17.3676C2.77531 17.3095 2.74328 17.2312 2.74328 17.1497C2.74328 17.0682 2.77531 16.9899 2.83247 16.9317C2.88962 16.8736 2.96733 16.8403 3.04885 16.8389H10.8122C10.853 16.8389 10.8934 16.8469 10.9311 16.8625C10.9688 16.8781 11.0031 16.901 11.0319 16.9299C11.0608 16.9588 11.0837 16.993 11.0993 17.0307C11.1149 17.0685 11.1229 17.1089 11.1229 17.1497ZM11.1229 19.3437C11.1229 19.4261 11.0902 19.5051 11.0319 19.5634C10.9736 19.6217 10.8946 19.6545 10.8121 19.6545H3.04885C2.96733 19.6531 2.88962 19.6197 2.83247 19.5616C2.77531 19.5035 2.74328 19.4252 2.74328 19.3437C2.74328 19.2621 2.77531 19.1839 2.83247 19.1257C2.88962 19.0676 2.96733 19.0342 3.04885 19.0329H10.8122C10.8946 19.0329 10.9736 19.0656 11.0319 19.1239C11.0902 19.1822 11.1229 19.2612 11.1229 19.3437ZM9.36214 21.5377C9.36214 21.6201 9.32944 21.6992 9.27114 21.7575C9.21284 21.8157 9.13374 21.8485 9.05134 21.8485H4.8097C4.72818 21.8471 4.65047 21.8138 4.59331 21.7556C4.53615 21.6975 4.50412 21.6192 4.50412 21.5377C4.50412 21.4562 4.53615 21.3779 4.59331 21.3198C4.65047 21.2616 4.72818 21.2283 4.8097 21.2269H9.05134C9.13384 21.2269 9.21284 21.2596 9.27114 21.3179C9.32944 21.3762 9.36214 21.4553 9.36214 21.5377Z" fill="black"/>
</svg>
